solid Mesh
  facet normal -0.0436194 0 -0.999048
    outer loop
      vertex -0.00199896 0.005 0
      vertex -0.00199896 -0.005 0
      vertex -0.00226052 -0.005 1.14199e-5
    endloop
  endfacet
  facet normal -0.0436194 0 -0.999048
    outer loop
      vertex -0.00199896 0.005 0
      vertex -0.00226052 -0.005 1.14199e-5
      vertex -0.00226052 0.005 1.14199e-5
    endloop
  endfacet
  facet normal -0.130526 0 -0.991445
    outer loop
      vertex -0.00226052 -0.005 1.14199e-5
      vertex -0.00252009 -0.005 4.55925e-5
      vertex -0.00226052 0.005 1.14199e-5
    endloop
  endfacet
  facet normal -0.130526 0 -0.991445
    outer loop
      vertex -0.00226052 0.005 1.14199e-5
      vertex -0.00252009 -0.005 4.55925e-5
      vertex -0.00252009 0.005 4.55925e-5
    endloop
  endfacet
  facet normal -0.21644 0 -0.976296
    outer loop
      vertex -0.00252009 -0.005 4.55925e-5
      vertex -0.00277569 -0.005 0.000102258
      vertex -0.00252009 0.005 4.55925e-5
    endloop
  endfacet
  facet normal -0.21644 0 -0.976296
    outer loop
      vertex -0.00252009 0.005 4.55925e-5
      vertex -0.00277569 -0.005 0.000102258
      vertex -0.00277569 0.005 0.000102258
    endloop
  endfacet
  facet normal -0.300706 0 -0.953717
    outer loop
      vertex -0.00277569 -0.005 0.000102258
      vertex -0.00302538 -0.005 0.000180985
      vertex -0.00277569 0.005 0.000102258
    endloop
  endfacet
  facet normal -0.300706 0 -0.953717
    outer loop
      vertex -0.00277569 0.005 0.000102258
      vertex -0.00302538 -0.005 0.000180985
      vertex -0.00302538 0.005 0.000180985
    endloop
  endfacet
  facet normal -0.382683 0 -0.92388
    outer loop
      vertex -0.00302538 -0.005 0.000180985
      vertex -0.00326726 -0.005 0.000281174
      vertex -0.00302538 0.005 0.000180985
    endloop
  endfacet
  facet normal -0.382683 0 -0.92388
    outer loop
      vertex -0.00302538 0.005 0.000180985
      vertex -0.00326726 -0.005 0.000281174
      vertex -0.00326726 0.005 0.000281174
    endloop
  endfacet
  facet normal -0.461749 0 -0.887011
    outer loop
      vertex -0.00326726 -0.005 0.000281174
      vertex -0.00349948 -0.005 0.000402063
      vertex -0.00326726 0.005 0.000281174
    endloop
  endfacet
  facet normal -0.461749 0 -0.887011
    outer loop
      vertex -0.00326726 0.005 0.000281174
      vertex -0.00349948 -0.005 0.000402063
      vertex -0.00349948 0.005 0.000402063
    endloop
  endfacet
  facet normal -0.537299 0 -0.843392
    outer loop
      vertex -0.00349948 -0.005 0.000402063
      vertex -0.00372029 -0.005 0.000542732
      vertex -0.00349948 0.005 0.000402063
    endloop
  endfacet
  facet normal -0.537299 0 -0.843392
    outer loop
      vertex -0.00349948 0.005 0.000402063
      vertex -0.00372029 -0.005 0.000542732
      vertex -0.00372029 0.005 0.000542732
    endloop
  endfacet
  facet normal -0.608762 0 -0.793353
    outer loop
      vertex -0.00372029 -0.005 0.000542732
      vertex -0.00392799 -0.005 0.00070211
      vertex -0.00372029 0.005 0.000542732
    endloop
  endfacet
  facet normal -0.608762 0 -0.793353
    outer loop
      vertex -0.00372029 0.005 0.000542732
      vertex -0.00392799 -0.005 0.00070211
      vertex -0.00392799 0.005 0.00070211
    endloop
  endfacet
  facet normal -0.67559 0 -0.737278
    outer loop
      vertex -0.00392799 -0.005 0.00070211
      vertex -0.00412102 -0.005 0.000878984
      vertex -0.00392799 0.005 0.00070211
    endloop
  endfacet
  facet normal -0.67559 0 -0.737278
    outer loop
      vertex -0.00392799 0.005 0.00070211
      vertex -0.00412102 -0.005 0.000878984
      vertex -0.00412102 0.005 0.000878984
    endloop
  endfacet
  facet normal -0.737278 0 -0.67559
    outer loop
      vertex -0.00412102 -0.005 0.000878984
      vertex -0.00429789 -0.005 0.00107201
      vertex -0.00412102 0.005 0.000878984
    endloop
  endfacet
  facet normal -0.737278 0 -0.67559
    outer loop
      vertex -0.00412102 0.005 0.000878984
      vertex -0.00429789 -0.005 0.00107201
      vertex -0.00429789 0.005 0.00107201
    endloop
  endfacet
  facet normal -0.793353 0 -0.608762
    outer loop
      vertex -0.00429789 -0.005 0.00107201
      vertex -0.00445727 -0.005 0.00127971
      vertex -0.00429789 0.005 0.00107201
    endloop
  endfacet
  facet normal -0.793353 0 -0.608762
    outer loop
      vertex -0.00429789 0.005 0.00107201
      vertex -0.00445727 -0.005 0.00127971
      vertex -0.00445727 0.005 0.00127971
    endloop
  endfacet
  facet normal -0.843391 0 -0.5373
    outer loop
      vertex -0.00445727 -0.005 0.00127971
      vertex -0.00459794 -0.005 0.00150052
      vertex -0.00445727 0.005 0.00127971
    endloop
  endfacet
  facet normal -0.843391 0 -0.5373
    outer loop
      vertex -0.00445727 0.005 0.00127971
      vertex -0.00459794 -0.005 0.00150052
      vertex -0.00459794 0.005 0.00150052
    endloop
  endfacet
  facet normal -0.887011 0 -0.461749
    outer loop
      vertex -0.00459794 -0.005 0.00150052
      vertex -0.00471883 -0.005 0.00173274
      vertex -0.00459794 0.005 0.00150052
    endloop
  endfacet
  facet normal -0.887011 0 -0.461749
    outer loop
      vertex -0.00459794 0.005 0.00150052
      vertex -0.00471883 -0.005 0.00173274
      vertex -0.00471883 0.005 0.00173274
    endloop
  endfacet
  facet normal -0.92388 0 -0.382682
    outer loop
      vertex -0.00471883 -0.005 0.00173274
      vertex -0.00481902 -0.005 0.00197462
      vertex -0.00471883 0.005 0.00173274
    endloop
  endfacet
  facet normal -0.92388 0 -0.382682
    outer loop
      vertex -0.00471883 0.005 0.00173274
      vertex -0.00481902 -0.005 0.00197462
      vertex -0.00481902 0.005 0.00197462
    endloop
  endfacet
  facet normal -0.953717 0 -0.300706
    outer loop
      vertex -0.00481902 -0.005 0.00197462
      vertex -0.00489774 -0.005 0.00222431
      vertex -0.00481902 0.005 0.00197462
    endloop
  endfacet
  facet normal -0.953717 0 -0.300706
    outer loop
      vertex -0.00481902 0.005 0.00197462
      vertex -0.00489774 -0.005 0.00222431
      vertex -0.00489774 0.005 0.00222431
    endloop
  endfacet
  facet normal -0.976296 0 -0.21644
    outer loop
      vertex -0.00489774 -0.005 0.00222431
      vertex -0.00495441 -0.005 0.00247991
      vertex -0.00489774 0.005 0.00222431
    endloop
  endfacet
  facet normal -0.976296 0 -0.21644
    outer loop
      vertex -0.00489774 0.005 0.00222431
      vertex -0.00495441 -0.005 0.00247991
      vertex -0.00495441 0.005 0.00247991
    endloop
  endfacet
  facet normal -0.991445 0 -0.130526
    outer loop
      vertex -0.00495441 -0.005 0.00247991
      vertex -0.00498858 -0.005 0.00273948
      vertex -0.00495441 0.005 0.00247991
    endloop
  endfacet
  facet normal -0.991445 0 -0.130526
    outer loop
      vertex -0.00495441 0.005 0.00247991
      vertex -0.00498858 -0.005 0.00273948
      vertex -0.00498858 0.005 0.00273948
    endloop
  endfacet
  facet normal -0.999048 0 -0.0436195
    outer loop
      vertex -0.00498858 -0.005 0.00273948
      vertex -0.005 -0.005 0.00300104
      vertex -0.00498858 0.005 0.00273948
    endloop
  endfacet
  facet normal -0.999048 0 -0.0436195
    outer loop
      vertex -0.00498858 0.005 0.00273948
      vertex -0.005 -0.005 0.00300104
      vertex -0.005 0.005 0.00300104
    endloop
  endfacet
  facet normal 0.0436195 0 0.999048
    outer loop
      vertex 0.00199896 0.005 0.015
      vertex 0.00199896 -0.005 0.015
      vertex 0.00226052 -0.005 0.0149886
    endloop
  endfacet
  facet normal 0.0436195 0 0.999048
    outer loop
      vertex 0.00199896 0.005 0.015
      vertex 0.00226052 -0.005 0.0149886
      vertex 0.00226052 0.005 0.0149886
    endloop
  endfacet
  facet normal 0.130524 0 0.991445
    outer loop
      vertex 0.00226052 -0.005 0.0149886
      vertex 0.00252009 -0.005 0.0149544
      vertex 0.00226052 0.005 0.0149886
    endloop
  endfacet
  facet normal 0.130524 0 0.991445
    outer loop
      vertex 0.00226052 0.005 0.0149886
      vertex 0.00252009 -0.005 0.0149544
      vertex 0.00252009 0.005 0.0149544
    endloop
  endfacet
  facet normal 0.21644 0 0.976296
    outer loop
      vertex 0.00252009 -0.005 0.0149544
      vertex 0.00277569 -0.005 0.0148977
      vertex 0.00252009 0.005 0.0149544
    endloop
  endfacet
  facet normal 0.21644 0 0.976296
    outer loop
      vertex 0.00252009 0.005 0.0149544
      vertex 0.00277569 -0.005 0.0148977
      vertex 0.00277569 0.005 0.0148977
    endloop
  endfacet
  facet normal 0.300708 0 0.953716
    outer loop
      vertex 0.00277569 -0.005 0.0148977
      vertex 0.00302538 -0.005 0.014819
      vertex 0.00277569 0.005 0.0148977
    endloop
  endfacet
  facet normal 0.300708 0 0.953716
    outer loop
      vertex 0.00277569 0.005 0.0148977
      vertex 0.00302538 -0.005 0.014819
      vertex 0.00302538 0.005 0.014819
    endloop
  endfacet
  facet normal 0.382682 0 0.92388
    outer loop
      vertex 0.00302538 -0.005 0.014819
      vertex 0.00326726 -0.005 0.0147188
      vertex 0.00302538 0.005 0.014819
    endloop
  endfacet
  facet normal 0.382682 0 0.92388
    outer loop
      vertex 0.00302538 0.005 0.014819
      vertex 0.00326726 -0.005 0.0147188
      vertex 0.00326726 0.005 0.0147188
    endloop
  endfacet
  facet normal 0.461747 0 0.887012
    outer loop
      vertex 0.00326726 -0.005 0.0147188
      vertex 0.00349948 -0.005 0.0145979
      vertex 0.00326726 0.005 0.0147188
    endloop
  endfacet
  facet normal 0.461747 0 0.887012
    outer loop
      vertex 0.00326726 0.005 0.0147188
      vertex 0.00349948 -0.005 0.0145979
      vertex 0.00349948 0.005 0.0145979
    endloop
  endfacet
  facet normal 0.5373 0 0.843391
    outer loop
      vertex 0.00349948 -0.005 0.0145979
      vertex 0.00372029 -0.005 0.0144573
      vertex 0.00349948 0.005 0.0145979
    endloop
  endfacet
  facet normal 0.5373 0 0.843391
    outer loop
      vertex 0.00349948 0.005 0.0145979
      vertex 0.00372029 -0.005 0.0144573
      vertex 0.00372029 0.005 0.0144573
    endloop
  endfacet
  facet normal 0.608762 0 0.793353
    outer loop
      vertex 0.00372029 -0.005 0.0144573
      vertex 0.00392799 -0.005 0.0142979
      vertex 0.00372029 0.005 0.0144573
    endloop
  endfacet
  facet normal 0.608762 0 0.793353
    outer loop
      vertex 0.00372029 0.005 0.0144573
      vertex 0.00392799 -0.005 0.0142979
      vertex 0.00392799 0.005 0.0142979
    endloop
  endfacet
  facet normal 0.675589 0 0.737278
    outer loop
      vertex 0.00392799 -0.005 0.0142979
      vertex 0.00412102 -0.005 0.014121
      vertex 0.00392799 0.005 0.0142979
    endloop
  endfacet
  facet normal 0.675589 0 0.737278
    outer loop
      vertex 0.00392799 0.005 0.0142979
      vertex 0.00412102 -0.005 0.014121
      vertex 0.00412102 0.005 0.014121
    endloop
  endfacet
  facet normal 0.737279 0 0.675589
    outer loop
      vertex 0.00412102 -0.005 0.014121
      vertex 0.00429789 -0.005 0.013928
      vertex 0.00412102 0.005 0.014121
    endloop
  endfacet
  facet normal 0.737279 0 0.675589
    outer loop
      vertex 0.00412102 0.005 0.014121
      vertex 0.00429789 -0.005 0.013928
      vertex 0.00429789 0.005 0.013928
    endloop
  endfacet
  facet normal 0.793353 0 0.608762
    outer loop
      vertex 0.00429789 -0.005 0.013928
      vertex 0.00445727 -0.005 0.0137203
      vertex 0.00429789 0.005 0.013928
    endloop
  endfacet
  facet normal 0.793353 0 0.608762
    outer loop
      vertex 0.00429789 0.005 0.013928
      vertex 0.00445727 -0.005 0.0137203
      vertex 0.00445727 0.005 0.0137203
    endloop
  endfacet
  facet normal 0.843391 0 0.5373
    outer loop
      vertex 0.00445727 -0.005 0.0137203
      vertex 0.00459794 -0.005 0.0134995
      vertex 0.00445727 0.005 0.0137203
    endloop
  endfacet
  facet normal 0.843391 0 0.5373
    outer loop
      vertex 0.00445727 0.005 0.0137203
      vertex 0.00459794 -0.005 0.0134995
      vertex 0.00459794 0.005 0.0134995
    endloop
  endfacet
  facet normal 0.887011 0 0.461749
    outer loop
      vertex 0.00459794 -0.005 0.0134995
      vertex 0.00471883 -0.005 0.0132673
      vertex 0.00459794 0.005 0.0134995
    endloop
  endfacet
  facet normal 0.887011 0 0.461749
    outer loop
      vertex 0.00459794 0.005 0.0134995
      vertex 0.00471883 -0.005 0.0132673
      vertex 0.00471883 0.005 0.0132673
    endloop
  endfacet
  facet normal 0.92388 0 0.382682
    outer loop
      vertex 0.00471883 -0.005 0.0132673
      vertex 0.00481902 -0.005 0.0130254
      vertex 0.00471883 0.005 0.0132673
    endloop
  endfacet
  facet normal 0.92388 0 0.382682
    outer loop
      vertex 0.00471883 0.005 0.0132673
      vertex 0.00481902 -0.005 0.0130254
      vertex 0.00481902 0.005 0.0130254
    endloop
  endfacet
  facet normal 0.953717 0 0.300707
    outer loop
      vertex 0.00481902 -0.005 0.0130254
      vertex 0.00489774 -0.005 0.0127757
      vertex 0.00481902 0.005 0.0130254
    endloop
  endfacet
  facet normal 0.953717 0 0.300707
    outer loop
      vertex 0.00481902 0.005 0.0130254
      vertex 0.00489774 -0.005 0.0127757
      vertex 0.00489774 0.005 0.0127757
    endloop
  endfacet
  facet normal 0.976296 0 0.216439
    outer loop
      vertex 0.00489774 -0.005 0.0127757
      vertex 0.00495441 -0.005 0.0125201
      vertex 0.00489774 0.005 0.0127757
    endloop
  endfacet
  facet normal 0.976296 0 0.216439
    outer loop
      vertex 0.00489774 0.005 0.0127757
      vertex 0.00495441 -0.005 0.0125201
      vertex 0.00495441 0.005 0.0125201
    endloop
  endfacet
  facet normal 0.991445 0 0.130526
    outer loop
      vertex 0.00495441 -0.005 0.0125201
      vertex 0.00498858 -0.005 0.0122605
      vertex 0.00495441 0.005 0.0125201
    endloop
  endfacet
  facet normal 0.991445 0 0.130526
    outer loop
      vertex 0.00495441 0.005 0.0125201
      vertex 0.00498858 -0.005 0.0122605
      vertex 0.00498858 0.005 0.0122605
    endloop
  endfacet
  facet normal 0.999048 0 0.0436195
    outer loop
      vertex 0.00498858 -0.005 0.0122605
      vertex 0.005 -0.005 0.011999
      vertex 0.00498858 0.005 0.0122605
    endloop
  endfacet
  facet normal 0.999048 0 0.0436195
    outer loop
      vertex 0.00498858 0.005 0.0122605
      vertex 0.005 -0.005 0.011999
      vertex 0.005 0.005 0.011999
    endloop
  endfacet
  facet normal 1 0 0
    outer loop
      vertex 0 0.0025 0.0175
      vertex 0 -0.0025 0.0175
      vertex 0 0.0025 0.015
    endloop
  endfacet
  facet normal 1 0 0
    outer loop
      vertex 0 -0.0025 0.0175
      vertex 0 -0.0025 0.015
      vertex 0 0.0025 0.015
    endloop
  endfacet
  facet normal -1 0 0
    outer loop
      vertex -0.005 -0.005 0.00300104
      vertex -0.005 -0.005 0.015
      vertex -0.005 0.005 0.00300104
    endloop
  endfacet
  facet normal -1 0 0
    outer loop
      vertex -0.005 -0.005 0.015
      vertex -0.005 -0.0025 0.015
      vertex -0.005 0.005 0.00300104
    endloop
  endfacet
  facet normal -1 0 0
    outer loop
      vertex -0.005 0.005 0.015
      vertex -0.005 0.005 0.00300104
      vertex -0.005 0.0025 0.015
    endloop
  endfacet
  facet normal -1 0 0
    outer loop
      vertex -0.005 0.005 0.00300104
      vertex -0.005 -0.0025 0.015
      vertex -0.005 0.0025 0.015
    endloop
  endfacet
  facet normal -1 0 0
    outer loop
      vertex -0.005 0.0025 0.015
      vertex -0.005 -0.0025 0.015
      vertex -0.005 0.0025 0.0175
    endloop
  endfacet
  facet normal -1 0 0
    outer loop
      vertex -0.005 -0.0025 0.015
      vertex -0.005 -0.0025 0.0175
      vertex -0.005 0.0025 0.0175
    endloop
  endfacet
  facet normal 0 -1 0
    outer loop
      vertex 0 -0.0025 0.0175
      vertex -0.005 -0.0025 0.0175
      vertex 0 -0.0025 0.015
    endloop
  endfacet
  facet normal 0 -1 0
    outer loop
      vertex -0.005 -0.0025 0.0175
      vertex -0.005 -0.0025 0.015
      vertex 0 -0.0025 0.015
    endloop
  endfacet
  facet normal -0.0436203 2.67097e-18 0.999048
    outer loop
      vertex 0 0.005 0.005
      vertex -6.12323e-19 -0.005 0.005
      vertex 0.000217889 0.005 0.00500951
    endloop
  endfacet
  facet normal -0.0436203 0 0.999048
    outer loop
      vertex -6.12323e-19 -0.005 0.005
      vertex 0.000217889 -0.005 0.00500951
      vertex 0.000217889 0.005 0.00500951
    endloop
  endfacet
  facet normal -0.130526 0 0.991445
    outer loop
      vertex 0.000217889 0.005 0.00500951
      vertex 0.000217889 -0.005 0.00500951
      vertex 0.00043412 0.005 0.00503798
    endloop
  endfacet
  facet normal -0.130526 0 0.991445
    outer loop
      vertex 0.000217889 -0.005 0.00500951
      vertex 0.00043412 -0.005 0.00503798
      vertex 0.00043412 0.005 0.00503798
    endloop
  endfacet
  facet normal -0.216441 0 0.976296
    outer loop
      vertex 0.00043412 0.005 0.00503798
      vertex 0.00043412 -0.005 0.00503798
      vertex 0.000647048 0.005 0.00508519
    endloop
  endfacet
  facet normal -0.216441 0 0.976296
    outer loop
      vertex 0.00043412 -0.005 0.00503798
      vertex 0.000647048 -0.005 0.00508519
      vertex 0.000647048 0.005 0.00508519
    endloop
  endfacet
  facet normal -0.300705 0 0.953717
    outer loop
      vertex 0.000647048 0.005 0.00508519
      vertex 0.000647048 -0.005 0.00508519
      vertex 0.00085505 0.005 0.00515077
    endloop
  endfacet
  facet normal -0.300705 0 0.953717
    outer loop
      vertex 0.000647048 -0.005 0.00508519
      vertex 0.00085505 -0.005 0.00515077
      vertex 0.00085505 0.005 0.00515077
    endloop
  endfacet
  facet normal -0.382683 0 0.92388
    outer loop
      vertex 0.00085505 0.005 0.00515077
      vertex 0.00085505 -0.005 0.00515077
      vertex 0.00105655 0.005 0.00523423
    endloop
  endfacet
  facet normal -0.382683 0 0.92388
    outer loop
      vertex 0.00085505 -0.005 0.00515077
      vertex 0.00105655 -0.005 0.00523423
      vertex 0.00105655 0.005 0.00523423
    endloop
  endfacet
  facet normal -0.46175 0 0.88701
    outer loop
      vertex 0.00105655 0.005 0.00523423
      vertex 0.00105655 -0.005 0.00523423
      vertex 0.00125 0.005 0.00533494
    endloop
  endfacet
  facet normal -0.46175 0 0.88701
    outer loop
      vertex 0.00105655 -0.005 0.00523423
      vertex 0.00125 -0.005 0.00533494
      vertex 0.00125 0.005 0.00533494
    endloop
  endfacet
  facet normal -0.537299 0 0.843392
    outer loop
      vertex 0.00125 0.005 0.00533494
      vertex 0.00125 -0.005 0.00533494
      vertex 0.00143394 0.005 0.00545212
    endloop
  endfacet
  facet normal -0.537299 0 0.843392
    outer loop
      vertex 0.00125 -0.005 0.00533494
      vertex 0.00143394 -0.005 0.00545212
      vertex 0.00143394 0.005 0.00545212
    endloop
  endfacet
  facet normal -0.608762 0 0.793353
    outer loop
      vertex 0.00143394 0.005 0.00545212
      vertex 0.00143394 -0.005 0.00545212
      vertex 0.00160697 0.005 0.00558489
    endloop
  endfacet
  facet normal -0.608762 0 0.793353
    outer loop
      vertex 0.00143394 -0.005 0.00545212
      vertex 0.00160697 -0.005 0.00558489
      vertex 0.00160697 0.005 0.00558489
    endloop
  endfacet
  facet normal -0.67559 0 0.737277
    outer loop
      vertex 0.00160697 0.005 0.00558489
      vertex 0.00160697 -0.005 0.00558489
      vertex 0.00176777 0.005 0.00573223
    endloop
  endfacet
  facet normal -0.67559 0 0.737277
    outer loop
      vertex 0.00160697 -0.005 0.00558489
      vertex 0.00176777 -0.005 0.00573223
      vertex 0.00176777 0.005 0.00573223
    endloop
  endfacet
  facet normal -0.737277 0 0.67559
    outer loop
      vertex 0.00176777 0.005 0.00573223
      vertex 0.00176777 -0.005 0.00573223
      vertex 0.00191511 0.005 0.00589303
    endloop
  endfacet
  facet normal -0.737277 0 0.67559
    outer loop
      vertex 0.00176777 -0.005 0.00573223
      vertex 0.00191511 -0.005 0.00589303
      vertex 0.00191511 0.005 0.00589303
    endloop
  endfacet
  facet normal -0.793353 0 0.608762
    outer loop
      vertex 0.00191511 0.005 0.00589303
      vertex 0.00191511 -0.005 0.00589303
      vertex 0.00204788 0.005 0.00606606
    endloop
  endfacet
  facet normal -0.793353 0 0.608762
    outer loop
      vertex 0.00191511 -0.005 0.00589303
      vertex 0.00204788 -0.005 0.00606606
      vertex 0.00204788 0.005 0.00606606
    endloop
  endfacet
  facet normal -0.843392 0 0.537299
    outer loop
      vertex 0.00204788 0.005 0.00606606
      vertex 0.00204788 -0.005 0.00606606
      vertex 0.00216506 0.005 0.00625
    endloop
  endfacet
  facet normal -0.843392 0 0.537299
    outer loop
      vertex 0.00204788 -0.005 0.00606606
      vertex 0.00216506 -0.005 0.00625
      vertex 0.00216506 0.005 0.00625
    endloop
  endfacet
  facet normal -0.887011 0 0.461749
    outer loop
      vertex 0.00216506 0.005 0.00625
      vertex 0.00216506 -0.005 0.00625
      vertex 0.00226577 0.005 0.00644345
    endloop
  endfacet
  facet normal -0.887011 0 0.461749
    outer loop
      vertex 0.00216506 -0.005 0.00625
      vertex 0.00226577 -0.005 0.00644345
      vertex 0.00226577 0.005 0.00644345
    endloop
  endfacet
  facet normal -0.92388 0 0.382683
    outer loop
      vertex 0.00226577 0.005 0.00644345
      vertex 0.00226577 -0.005 0.00644345
      vertex 0.00234923 0.005 0.00664495
    endloop
  endfacet
  facet normal -0.92388 0 0.382683
    outer loop
      vertex 0.00226577 -0.005 0.00644345
      vertex 0.00234923 -0.005 0.00664495
      vertex 0.00234923 0.005 0.00664495
    endloop
  endfacet
  facet normal -0.953717 0 0.300706
    outer loop
      vertex 0.00234923 0.005 0.00664495
      vertex 0.00234923 -0.005 0.00664495
      vertex 0.00241481 0.005 0.00685295
    endloop
  endfacet
  facet normal -0.953717 0 0.300706
    outer loop
      vertex 0.00234923 -0.005 0.00664495
      vertex 0.00241481 -0.005 0.00685295
      vertex 0.00241481 0.005 0.00685295
    endloop
  endfacet
  facet normal -0.976296 0 0.216439
    outer loop
      vertex 0.00241481 0.005 0.00685295
      vertex 0.00241481 -0.005 0.00685295
      vertex 0.00246202 0.005 0.00706588
    endloop
  endfacet
  facet normal -0.976296 0 0.216439
    outer loop
      vertex 0.00241481 -0.005 0.00685295
      vertex 0.00246202 -0.005 0.00706588
      vertex 0.00246202 0.005 0.00706588
    endloop
  endfacet
  facet normal -0.991445 0 0.130526
    outer loop
      vertex 0.00246202 0.005 0.00706588
      vertex 0.00246202 -0.005 0.00706588
      vertex 0.00249049 0.005 0.00728211
    endloop
  endfacet
  facet normal -0.991445 0 0.130526
    outer loop
      vertex 0.00246202 -0.005 0.00706588
      vertex 0.00249049 -0.005 0.00728211
      vertex 0.00249049 0.005 0.00728211
    endloop
  endfacet
  facet normal -0.999048 0 0.0436193
    outer loop
      vertex 0.00249049 0.005 0.00728211
      vertex 0.00249049 -0.005 0.00728211
      vertex 0.0025 0.005 0.0075
    endloop
  endfacet
  facet normal -0.999048 0 0.0436193
    outer loop
      vertex 0.00249049 -0.005 0.00728211
      vertex 0.0025 -0.005 0.0075
      vertex 0.0025 0.005 0.0075
    endloop
  endfacet
  facet normal -0.999048 0 -0.0436192
    outer loop
      vertex 0.0025 0.005 0.0075
      vertex 0.0025 -0.005 0.0075
      vertex 0.00249049 0.005 0.00771789
    endloop
  endfacet
  facet normal -0.999048 0 -0.0436192
    outer loop
      vertex 0.0025 -0.005 0.0075
      vertex 0.00249049 -0.005 0.00771789
      vertex 0.00249049 0.005 0.00771789
    endloop
  endfacet
  facet normal -0.991445 0 -0.130526
    outer loop
      vertex 0.00249049 0.005 0.00771789
      vertex 0.00249049 -0.005 0.00771789
      vertex 0.00246202 0.005 0.00793412
    endloop
  endfacet
  facet normal -0.991445 0 -0.130526
    outer loop
      vertex 0.00249049 -0.005 0.00771789
      vertex 0.00246202 -0.005 0.00793412
      vertex 0.00246202 0.005 0.00793412
    endloop
  endfacet
  facet normal -0.976296 0 -0.216439
    outer loop
      vertex 0.00246202 0.005 0.00793412
      vertex 0.00246202 -0.005 0.00793412
      vertex 0.00241481 0.005 0.00814705
    endloop
  endfacet
  facet normal -0.976296 0 -0.216439
    outer loop
      vertex 0.00246202 -0.005 0.00793412
      vertex 0.00241481 -0.005 0.00814705
      vertex 0.00241481 0.005 0.00814705
    endloop
  endfacet
  facet normal -0.953717 0 -0.300706
    outer loop
      vertex 0.00241481 0.005 0.00814705
      vertex 0.00241481 -0.005 0.00814705
      vertex 0.00234923 0.005 0.00835505
    endloop
  endfacet
  facet normal -0.953717 0 -0.300706
    outer loop
      vertex 0.00241481 -0.005 0.00814705
      vertex 0.00234923 -0.005 0.00835505
      vertex 0.00234923 0.005 0.00835505
    endloop
  endfacet
  facet normal -0.92388 0 -0.382683
    outer loop
      vertex 0.00234923 0.005 0.00835505
      vertex 0.00234923 -0.005 0.00835505
      vertex 0.00226577 0.005 0.00855655
    endloop
  endfacet
  facet normal -0.92388 0 -0.382683
    outer loop
      vertex 0.00234923 -0.005 0.00835505
      vertex 0.00226577 -0.005 0.00855655
      vertex 0.00226577 0.005 0.00855655
    endloop
  endfacet
  facet normal -0.887011 0 -0.461749
    outer loop
      vertex 0.00226577 0.005 0.00855655
      vertex 0.00226577 -0.005 0.00855655
      vertex 0.00216506 0.005 0.00875
    endloop
  endfacet
  facet normal -0.887011 0 -0.461749
    outer loop
      vertex 0.00226577 -0.005 0.00855655
      vertex 0.00216506 -0.005 0.00875
      vertex 0.00216506 0.005 0.00875
    endloop
  endfacet
  facet normal -0.843391 0 -0.5373
    outer loop
      vertex 0.00216506 0.005 0.00875
      vertex 0.00216506 -0.005 0.00875
      vertex 0.00204788 0.005 0.00893394
    endloop
  endfacet
  facet normal -0.843391 0 -0.5373
    outer loop
      vertex 0.00216506 -0.005 0.00875
      vertex 0.00204788 -0.005 0.00893394
      vertex 0.00204788 0.005 0.00893394
    endloop
  endfacet
  facet normal -0.793354 0 -0.60876
    outer loop
      vertex 0.00204788 0.005 0.00893394
      vertex 0.00204788 -0.005 0.00893394
      vertex 0.00191511 0.005 0.00910697
    endloop
  endfacet
  facet normal -0.793354 0 -0.60876
    outer loop
      vertex 0.00204788 -0.005 0.00893394
      vertex 0.00191511 -0.005 0.00910697
      vertex 0.00191511 0.005 0.00910697
    endloop
  endfacet
  facet normal -0.737276 0 -0.675591
    outer loop
      vertex 0.00191511 0.005 0.00910697
      vertex 0.00191511 -0.005 0.00910697
      vertex 0.00176777 0.005 0.00926777
    endloop
  endfacet
  facet normal -0.737276 0 -0.675591
    outer loop
      vertex 0.00191511 -0.005 0.00910697
      vertex 0.00176777 -0.005 0.00926777
      vertex 0.00176777 0.005 0.00926777
    endloop
  endfacet
  facet normal -0.675591 0 -0.737276
    outer loop
      vertex 0.00176777 0.005 0.00926777
      vertex 0.00176777 -0.005 0.00926777
      vertex 0.00160697 0.005 0.00941511
    endloop
  endfacet
  facet normal -0.675591 0 -0.737276
    outer loop
      vertex 0.00176777 -0.005 0.00926777
      vertex 0.00160697 -0.005 0.00941511
      vertex 0.00160697 0.005 0.00941511
    endloop
  endfacet
  facet normal -0.60876 0 -0.793355
    outer loop
      vertex 0.00160697 0.005 0.00941511
      vertex 0.00160697 -0.005 0.00941511
      vertex 0.00143394 0.005 0.00954788
    endloop
  endfacet
  facet normal -0.60876 0 -0.793355
    outer loop
      vertex 0.00160697 -0.005 0.00941511
      vertex 0.00143394 -0.005 0.00954788
      vertex 0.00143394 0.005 0.00954788
    endloop
  endfacet
  facet normal -0.5373 0 -0.843391
    outer loop
      vertex 0.00143394 0.005 0.00954788
      vertex 0.00143394 -0.005 0.00954788
      vertex 0.00125 0.005 0.00966506
    endloop
  endfacet
  facet normal -0.5373 0 -0.843391
    outer loop
      vertex 0.00143394 -0.005 0.00954788
      vertex 0.00125 -0.005 0.00966506
      vertex 0.00125 0.005 0.00966506
    endloop
  endfacet
  facet normal -0.461748 0 -0.887011
    outer loop
      vertex 0.00125 0.005 0.00966506
      vertex 0.00125 -0.005 0.00966506
      vertex 0.00105655 0.005 0.00976577
    endloop
  endfacet
  facet normal -0.461748 0 -0.887011
    outer loop
      vertex 0.00125 -0.005 0.00966506
      vertex 0.00105655 -0.005 0.00976577
      vertex 0.00105655 0.005 0.00976577
    endloop
  endfacet
  facet normal -0.382684 0 -0.923879
    outer loop
      vertex 0.00105655 0.005 0.00976577
      vertex 0.00105655 -0.005 0.00976577
      vertex 0.00085505 0.005 0.00984923
    endloop
  endfacet
  facet normal -0.382684 0 -0.923879
    outer loop
      vertex 0.00105655 -0.005 0.00976577
      vertex 0.00085505 -0.005 0.00984923
      vertex 0.00085505 0.005 0.00984923
    endloop
  endfacet
  facet normal -0.300705 0 -0.953717
    outer loop
      vertex 0.00085505 0.005 0.00984923
      vertex 0.00085505 -0.005 0.00984923
      vertex 0.000647048 0.005 0.00991481
    endloop
  endfacet
  facet normal -0.300705 0 -0.953717
    outer loop
      vertex 0.00085505 -0.005 0.00984923
      vertex 0.000647048 -0.005 0.00991481
      vertex 0.000647048 0.005 0.00991481
    endloop
  endfacet
  facet normal -0.216441 0 -0.976296
    outer loop
      vertex 0.000647048 0.005 0.00991481
      vertex 0.000647048 -0.005 0.00991481
      vertex 0.00043412 0.005 0.00996202
    endloop
  endfacet
  facet normal -0.216441 0 -0.976296
    outer loop
      vertex 0.000647048 -0.005 0.00991481
      vertex 0.00043412 -0.005 0.00996202
      vertex 0.00043412 0.005 0.00996202
    endloop
  endfacet
  facet normal -0.130524 0 -0.991445
    outer loop
      vertex 0.00043412 0.005 0.00996202
      vertex 0.00043412 -0.005 0.00996202
      vertex 0.000217889 0.005 0.00999049
    endloop
  endfacet
  facet normal -0.130524 0 -0.991445
    outer loop
      vertex 0.00043412 -0.005 0.00996202
      vertex 0.000217889 -0.005 0.00999049
      vertex 0.000217889 0.005 0.00999049
    endloop
  endfacet
  facet normal -0.0436203 0 -0.999048
    outer loop
      vertex 0.000217889 0.005 0.00999049
      vertex 0.000217889 -0.005 0.00999049
      vertex 1.41638e-18 0.005 0.01
    endloop
  endfacet
  facet normal -0.0436203 0 -0.999048
    outer loop
      vertex 0.000217889 -0.005 0.00999049
      vertex 1.41638e-18 -0.005 0.01
      vertex 1.41638e-18 0.005 0.01
    endloop
  endfacet
  facet normal 0.0436203 0 -0.999048
    outer loop
      vertex 1.41638e-18 0.005 0.01
      vertex 1.41638e-18 -0.005 0.01
      vertex -0.000217889 0.005 0.00999049
    endloop
  endfacet
  facet normal 0.0436203 0 -0.999048
    outer loop
      vertex 1.41638e-18 -0.005 0.01
      vertex -0.000217889 -0.005 0.00999049
      vertex -0.000217889 0.005 0.00999049
    endloop
  endfacet
  facet normal 0.130524 0 -0.991445
    outer loop
      vertex -0.000217889 0.005 0.00999049
      vertex -0.000217889 -0.005 0.00999049
      vertex -0.00043412 0.005 0.00996202
    endloop
  endfacet
  facet normal 0.130524 0 -0.991445
    outer loop
      vertex -0.000217889 -0.005 0.00999049
      vertex -0.00043412 -0.005 0.00996202
      vertex -0.00043412 0.005 0.00996202
    endloop
  endfacet
  facet normal 0.216441 0 -0.976296
    outer loop
      vertex -0.00043412 0.005 0.00996202
      vertex -0.00043412 -0.005 0.00996202
      vertex -0.000647048 0.005 0.00991481
    endloop
  endfacet
  facet normal 0.216441 0 -0.976296
    outer loop
      vertex -0.00043412 -0.005 0.00996202
      vertex -0.000647048 -0.005 0.00991481
      vertex -0.000647048 0.005 0.00991481
    endloop
  endfacet
  facet normal 0.300705 0 -0.953717
    outer loop
      vertex -0.000647048 0.005 0.00991481
      vertex -0.000647048 -0.005 0.00991481
      vertex -0.00085505 0.005 0.00984923
    endloop
  endfacet
  facet normal 0.300705 0 -0.953717
    outer loop
      vertex -0.000647048 -0.005 0.00991481
      vertex -0.00085505 -0.005 0.00984923
      vertex -0.00085505 0.005 0.00984923
    endloop
  endfacet
  facet normal 0.382684 0 -0.923879
    outer loop
      vertex -0.00085505 0.005 0.00984923
      vertex -0.00085505 -0.005 0.00984923
      vertex -0.00105655 0.005 0.00976577
    endloop
  endfacet
  facet normal 0.382684 0 -0.923879
    outer loop
      vertex -0.00085505 -0.005 0.00984923
      vertex -0.00105655 -0.005 0.00976577
      vertex -0.00105655 0.005 0.00976577
    endloop
  endfacet
  facet normal 0.461748 0 -0.887011
    outer loop
      vertex -0.00105655 0.005 0.00976577
      vertex -0.00105655 -0.005 0.00976577
      vertex -0.00125 0.005 0.00966506
    endloop
  endfacet
  facet normal 0.461748 0 -0.887011
    outer loop
      vertex -0.00105655 -0.005 0.00976577
      vertex -0.00125 -0.005 0.00966506
      vertex -0.00125 0.005 0.00966506
    endloop
  endfacet
  facet normal 0.5373 0 -0.843391
    outer loop
      vertex -0.00125 0.005 0.00966506
      vertex -0.00125 -0.005 0.00966506
      vertex -0.00143394 0.005 0.00954788
    endloop
  endfacet
  facet normal 0.5373 0 -0.843391
    outer loop
      vertex -0.00125 -0.005 0.00966506
      vertex -0.00143394 -0.005 0.00954788
      vertex -0.00143394 0.005 0.00954788
    endloop
  endfacet
  facet normal 0.60876 0 -0.793355
    outer loop
      vertex -0.00143394 0.005 0.00954788
      vertex -0.00143394 -0.005 0.00954788
      vertex -0.00160697 0.005 0.00941511
    endloop
  endfacet
  facet normal 0.60876 0 -0.793355
    outer loop
      vertex -0.00143394 -0.005 0.00954788
      vertex -0.00160697 -0.005 0.00941511
      vertex -0.00160697 0.005 0.00941511
    endloop
  endfacet
  facet normal 0.675591 0 -0.737276
    outer loop
      vertex -0.00160697 0.005 0.00941511
      vertex -0.00160697 -0.005 0.00941511
      vertex -0.00176777 0.005 0.00926777
    endloop
  endfacet
  facet normal 0.675591 0 -0.737276
    outer loop
      vertex -0.00160697 -0.005 0.00941511
      vertex -0.00176777 -0.005 0.00926777
      vertex -0.00176777 0.005 0.00926777
    endloop
  endfacet
  facet normal 0.737276 0 -0.675591
    outer loop
      vertex -0.00176777 0.005 0.00926777
      vertex -0.00176777 -0.005 0.00926777
      vertex -0.00191511 0.005 0.00910697
    endloop
  endfacet
  facet normal 0.737276 0 -0.675591
    outer loop
      vertex -0.00176777 -0.005 0.00926777
      vertex -0.00191511 -0.005 0.00910697
      vertex -0.00191511 0.005 0.00910697
    endloop
  endfacet
  facet normal 0.793354 0 -0.60876
    outer loop
      vertex -0.00191511 0.005 0.00910697
      vertex -0.00191511 -0.005 0.00910697
      vertex -0.00204788 0.005 0.00893394
    endloop
  endfacet
  facet normal 0.793354 0 -0.60876
    outer loop
      vertex -0.00191511 -0.005 0.00910697
      vertex -0.00204788 -0.005 0.00893394
      vertex -0.00204788 0.005 0.00893394
    endloop
  endfacet
  facet normal 0.843391 0 -0.5373
    outer loop
      vertex -0.00204788 0.005 0.00893394
      vertex -0.00204788 -0.005 0.00893394
      vertex -0.00216506 0.005 0.00875
    endloop
  endfacet
  facet normal 0.843391 0 -0.5373
    outer loop
      vertex -0.00204788 -0.005 0.00893394
      vertex -0.00216506 -0.005 0.00875
      vertex -0.00216506 0.005 0.00875
    endloop
  endfacet
  facet normal 0.887011 0 -0.461749
    outer loop
      vertex -0.00216506 0.005 0.00875
      vertex -0.00216506 -0.005 0.00875
      vertex -0.00226577 0.005 0.00855655
    endloop
  endfacet
  facet normal 0.887011 0 -0.461749
    outer loop
      vertex -0.00216506 -0.005 0.00875
      vertex -0.00226577 -0.005 0.00855655
      vertex -0.00226577 0.005 0.00855655
    endloop
  endfacet
  facet normal 0.92388 0 -0.382683
    outer loop
      vertex -0.00226577 0.005 0.00855655
      vertex -0.00226577 -0.005 0.00855655
      vertex -0.00234923 0.005 0.00835505
    endloop
  endfacet
  facet normal 0.92388 0 -0.382683
    outer loop
      vertex -0.00226577 -0.005 0.00855655
      vertex -0.00234923 -0.005 0.00835505
      vertex -0.00234923 0.005 0.00835505
    endloop
  endfacet
  facet normal 0.953717 0 -0.300706
    outer loop
      vertex -0.00234923 0.005 0.00835505
      vertex -0.00234923 -0.005 0.00835505
      vertex -0.00241481 0.005 0.00814705
    endloop
  endfacet
  facet normal 0.953717 0 -0.300706
    outer loop
      vertex -0.00234923 -0.005 0.00835505
      vertex -0.00241481 -0.005 0.00814705
      vertex -0.00241481 0.005 0.00814705
    endloop
  endfacet
  facet normal 0.976296 0 -0.216439
    outer loop
      vertex -0.00241481 0.005 0.00814705
      vertex -0.00241481 -0.005 0.00814705
      vertex -0.00246202 0.005 0.00793412
    endloop
  endfacet
  facet normal 0.976296 0 -0.216439
    outer loop
      vertex -0.00241481 -0.005 0.00814705
      vertex -0.00246202 -0.005 0.00793412
      vertex -0.00246202 0.005 0.00793412
    endloop
  endfacet
  facet normal 0.991445 0 -0.130526
    outer loop
      vertex -0.00246202 0.005 0.00793412
      vertex -0.00246202 -0.005 0.00793412
      vertex -0.00249049 0.005 0.00771789
    endloop
  endfacet
  facet normal 0.991445 0 -0.130526
    outer loop
      vertex -0.00246202 -0.005 0.00793412
      vertex -0.00249049 -0.005 0.00771789
      vertex -0.00249049 0.005 0.00771789
    endloop
  endfacet
  facet normal 0.999048 0 -0.0436192
    outer loop
      vertex -0.00249049 0.005 0.00771789
      vertex -0.00249049 -0.005 0.00771789
      vertex -0.0025 0.005 0.0075
    endloop
  endfacet
  facet normal 0.999048 0 -0.0436192
    outer loop
      vertex -0.00249049 -0.005 0.00771789
      vertex -0.0025 -0.005 0.0075
      vertex -0.0025 0.005 0.0075
    endloop
  endfacet
  facet normal 0.999048 0 0.0436193
    outer loop
      vertex -0.0025 0.005 0.0075
      vertex -0.0025 -0.005 0.0075
      vertex -0.00249049 0.005 0.00728211
    endloop
  endfacet
  facet normal 0.999048 0 0.0436193
    outer loop
      vertex -0.0025 -0.005 0.0075
      vertex -0.00249049 -0.005 0.00728211
      vertex -0.00249049 0.005 0.00728211
    endloop
  endfacet
  facet normal 0.991445 0 0.130526
    outer loop
      vertex -0.00249049 0.005 0.00728211
      vertex -0.00249049 -0.005 0.00728211
      vertex -0.00246202 0.005 0.00706588
    endloop
  endfacet
  facet normal 0.991445 0 0.130526
    outer loop
      vertex -0.00249049 -0.005 0.00728211
      vertex -0.00246202 -0.005 0.00706588
      vertex -0.00246202 0.005 0.00706588
    endloop
  endfacet
  facet normal 0.976296 0 0.216439
    outer loop
      vertex -0.00246202 0.005 0.00706588
      vertex -0.00246202 -0.005 0.00706588
      vertex -0.00241481 0.005 0.00685295
    endloop
  endfacet
  facet normal 0.976296 0 0.216439
    outer loop
      vertex -0.00246202 -0.005 0.00706588
      vertex -0.00241481 -0.005 0.00685295
      vertex -0.00241481 0.005 0.00685295
    endloop
  endfacet
  facet normal 0.953717 0 0.300706
    outer loop
      vertex -0.00241481 0.005 0.00685295
      vertex -0.00241481 -0.005 0.00685295
      vertex -0.00234923 0.005 0.00664495
    endloop
  endfacet
  facet normal 0.953717 0 0.300706
    outer loop
      vertex -0.00241481 -0.005 0.00685295
      vertex -0.00234923 -0.005 0.00664495
      vertex -0.00234923 0.005 0.00664495
    endloop
  endfacet
  facet normal 0.92388 0 0.382683
    outer loop
      vertex -0.00234923 0.005 0.00664495
      vertex -0.00234923 -0.005 0.00664495
      vertex -0.00226577 0.005 0.00644345
    endloop
  endfacet
  facet normal 0.92388 0 0.382683
    outer loop
      vertex -0.00234923 -0.005 0.00664495
      vertex -0.00226577 -0.005 0.00644345
      vertex -0.00226577 0.005 0.00644345
    endloop
  endfacet
  facet normal 0.887011 0 0.461749
    outer loop
      vertex -0.00226577 0.005 0.00644345
      vertex -0.00226577 -0.005 0.00644345
      vertex -0.00216506 0.005 0.00625
    endloop
  endfacet
  facet normal 0.887011 0 0.461749
    outer loop
      vertex -0.00226577 -0.005 0.00644345
      vertex -0.00216506 -0.005 0.00625
      vertex -0.00216506 0.005 0.00625
    endloop
  endfacet
  facet normal 0.843392 0 0.537299
    outer loop
      vertex -0.00216506 0.005 0.00625
      vertex -0.00216506 -0.005 0.00625
      vertex -0.00204788 0.005 0.00606606
    endloop
  endfacet
  facet normal 0.843392 0 0.537299
    outer loop
      vertex -0.00216506 -0.005 0.00625
      vertex -0.00204788 -0.005 0.00606606
      vertex -0.00204788 0.005 0.00606606
    endloop
  endfacet
  facet normal 0.793353 0 0.608762
    outer loop
      vertex -0.00204788 0.005 0.00606606
      vertex -0.00204788 -0.005 0.00606606
      vertex -0.00191511 0.005 0.00589303
    endloop
  endfacet
  facet normal 0.793353 0 0.608762
    outer loop
      vertex -0.00204788 -0.005 0.00606606
      vertex -0.00191511 -0.005 0.00589303
      vertex -0.00191511 0.005 0.00589303
    endloop
  endfacet
  facet normal 0.737277 0 0.67559
    outer loop
      vertex -0.00191511 0.005 0.00589303
      vertex -0.00191511 -0.005 0.00589303
      vertex -0.00176777 0.005 0.00573223
    endloop
  endfacet
  facet normal 0.737277 0 0.67559
    outer loop
      vertex -0.00191511 -0.005 0.00589303
      vertex -0.00176777 -0.005 0.00573223
      vertex -0.00176777 0.005 0.00573223
    endloop
  endfacet
  facet normal 0.67559 0 0.737277
    outer loop
      vertex -0.00176777 0.005 0.00573223
      vertex -0.00176777 -0.005 0.00573223
      vertex -0.00160697 0.005 0.00558489
    endloop
  endfacet
  facet normal 0.67559 0 0.737277
    outer loop
      vertex -0.00176777 -0.005 0.00573223
      vertex -0.00160697 -0.005 0.00558489
      vertex -0.00160697 0.005 0.00558489
    endloop
  endfacet
  facet normal 0.608762 0 0.793353
    outer loop
      vertex -0.00160697 0.005 0.00558489
      vertex -0.00160697 -0.005 0.00558489
      vertex -0.00143394 0.005 0.00545212
    endloop
  endfacet
  facet normal 0.608762 0 0.793353
    outer loop
      vertex -0.00160697 -0.005 0.00558489
      vertex -0.00143394 -0.005 0.00545212
      vertex -0.00143394 0.005 0.00545212
    endloop
  endfacet
  facet normal 0.537299 0 0.843392
    outer loop
      vertex -0.00143394 0.005 0.00545212
      vertex -0.00143394 -0.005 0.00545212
      vertex -0.00125 0.005 0.00533494
    endloop
  endfacet
  facet normal 0.537299 0 0.843392
    outer loop
      vertex -0.00143394 -0.005 0.00545212
      vertex -0.00125 -0.005 0.00533494
      vertex -0.00125 0.005 0.00533494
    endloop
  endfacet
  facet normal 0.46175 0 0.88701
    outer loop
      vertex -0.00125 0.005 0.00533494
      vertex -0.00125 -0.005 0.00533494
      vertex -0.00105655 0.005 0.00523423
    endloop
  endfacet
  facet normal 0.46175 0 0.88701
    outer loop
      vertex -0.00125 -0.005 0.00533494
      vertex -0.00105655 -0.005 0.00523423
      vertex -0.00105655 0.005 0.00523423
    endloop
  endfacet
  facet normal 0.382683 0 0.92388
    outer loop
      vertex -0.00105655 0.005 0.00523423
      vertex -0.00105655 -0.005 0.00523423
      vertex -0.00085505 0.005 0.00515077
    endloop
  endfacet
  facet normal 0.382683 0 0.92388
    outer loop
      vertex -0.00105655 -0.005 0.00523423
      vertex -0.00085505 -0.005 0.00515077
      vertex -0.00085505 0.005 0.00515077
    endloop
  endfacet
  facet normal 0.300705 0 0.953717
    outer loop
      vertex -0.00085505 0.005 0.00515077
      vertex -0.00085505 -0.005 0.00515077
      vertex -0.000647048 0.005 0.00508519
    endloop
  endfacet
  facet normal 0.300705 0 0.953717
    outer loop
      vertex -0.00085505 -0.005 0.00515077
      vertex -0.000647048 -0.005 0.00508519
      vertex -0.000647048 0.005 0.00508519
    endloop
  endfacet
  facet normal 0.216441 0 0.976296
    outer loop
      vertex -0.000647048 0.005 0.00508519
      vertex -0.000647048 -0.005 0.00508519
      vertex -0.00043412 0.005 0.00503798
    endloop
  endfacet
  facet normal 0.216441 0 0.976296
    outer loop
      vertex -0.000647048 -0.005 0.00508519
      vertex -0.00043412 -0.005 0.00503798
      vertex -0.00043412 0.005 0.00503798
    endloop
  endfacet
  facet normal 0.130526 0 0.991445
    outer loop
      vertex -0.00043412 0.005 0.00503798
      vertex -0.00043412 -0.005 0.00503798
      vertex -0.000217889 0.005 0.00500951
    endloop
  endfacet
  facet normal 0.130526 0 0.991445
    outer loop
      vertex -0.00043412 -0.005 0.00503798
      vertex -0.000217889 -0.005 0.00500951
      vertex -0.000217889 0.005 0.00500951
    endloop
  endfacet
  facet normal 0.0436203 0 0.999048
    outer loop
      vertex -0.000217889 0.005 0.00500951
      vertex -0.000217889 -0.005 0.00500951
      vertex 0 0.005 0.005
    endloop
  endfacet
  facet normal 0.0436203 -2.6549e-18 0.999048
    outer loop
      vertex -0.000217889 -0.005 0.00500951
      vertex -6.12323e-19 -0.005 0.005
      vertex 0 0.005 0.005
    endloop
  endfacet
  facet normal 0 1 0
    outer loop
      vertex -0.000647048 0.005 0.00991481
      vertex -0.00085505 0.005 0.00984923
      vertex -0.005 0.005 0.015
    endloop
  endfacet
  facet normal 0 1 0
    outer loop
      vertex -0.00085505 0.005 0.00984923
      vertex -0.00105655 0.005 0.00976577
      vertex -0.005 0.005 0.015
    endloop
  endfacet
  facet normal 0 1 0
    outer loop
      vertex -0.005 0.005 0.015
      vertex -0.00105655 0.005 0.00976577
      vertex -0.00125 0.005 0.00966506
    endloop
  endfacet
  facet normal 0 1 0
    outer loop
      vertex 0.000217889 0.005 0.00999049
      vertex 1.41638e-18 0.005 0.01
      vertex 0.00199896 0.005 0.015
    endloop
  endfacet
  facet normal 0 1 0
    outer loop
      vertex 1.41638e-18 0.005 0.01
      vertex -0.000217889 0.005 0.00999049
      vertex 0.00199896 0.005 0.015
    endloop
  endfacet
  facet normal 0 1 0
    outer loop
      vertex 0.00199896 0.005 0.015
      vertex -0.000217889 0.005 0.00999049
      vertex -0.005 0.005 0.015
    endloop
  endfacet
  facet normal 0 1 0
    outer loop
      vertex -0.000217889 0.005 0.00999049
      vertex -0.00043412 0.005 0.00996202
      vertex -0.005 0.005 0.015
    endloop
  endfacet
  facet normal 0 1 0
    outer loop
      vertex -0.005 0.005 0.015
      vertex -0.00043412 0.005 0.00996202
      vertex -0.000647048 0.005 0.00991481
    endloop
  endfacet
  facet normal 0 1 0
    outer loop
      vertex -0.00125 0.005 0.00966506
      vertex -0.00143394 0.005 0.00954788
      vertex -0.005 0.005 0.015
    endloop
  endfacet
  facet normal 0 1 0
    outer loop
      vertex -0.00143394 0.005 0.00954788
      vertex -0.00160697 0.005 0.00941511
      vertex -0.005 0.005 0.015
    endloop
  endfacet
  facet normal 0 1 0
    outer loop
      vertex -0.005 0.005 0.015
      vertex -0.00160697 0.005 0.00941511
      vertex -0.00176777 0.005 0.00926777
    endloop
  endfacet
  facet normal 0 1 0
    outer loop
      vertex -0.00234923 0.005 0.00664495
      vertex -0.00226577 0.005 0.00644345
      vertex -0.005 0.005 0.00300104
    endloop
  endfacet
  facet normal 0 1 0
    outer loop
      vertex -0.00226577 0.005 0.00644345
      vertex -0.00216506 0.005 0.00625
      vertex -0.005 0.005 0.00300104
    endloop
  endfacet
  facet normal 0 1 0
    outer loop
      vertex -0.00471883 0.005 0.00173274
      vertex -0.00160697 0.005 0.00558489
      vertex -0.00459794 0.005 0.00150052
    endloop
  endfacet
  facet normal 0 1 0
    outer loop
      vertex -0.00160697 0.005 0.00558489
      vertex -0.00143394 0.005 0.00545212
      vertex -0.00459794 0.005 0.00150052
    endloop
  endfacet
  facet normal 0 1 0
    outer loop
      vertex -0.00459794 0.005 0.00150052
      vertex -0.00143394 0.005 0.00545212
      vertex -0.00445727 0.005 0.00127971
    endloop
  endfacet
  facet normal 0 1 0
    outer loop
      vertex 0.00234923 0.005 0.00835505
      vertex 0.00226577 0.005 0.00855655
      vertex 0.005 0.005 0.011999
    endloop
  endfacet
  facet normal 0 1 0
    outer loop
      vertex 0.00226577 0.005 0.00855655
      vertex 0.00216506 0.005 0.00875
      vertex 0.005 0.005 0.011999
    endloop
  endfacet
  facet normal 0 1 0
    outer loop
      vertex -0.00176777 0.005 0.00926777
      vertex -0.00191511 0.005 0.00910697
      vertex -0.005 0.005 0.015
    endloop
  endfacet
  facet normal 0 1 0
    outer loop
      vertex -0.00191511 0.005 0.00910697
      vertex -0.00204788 0.005 0.00893394
      vertex -0.005 0.005 0.015
    endloop
  endfacet
  facet normal 0 1 0
    outer loop
      vertex -0.005 0.005 0.015
      vertex -0.00204788 0.005 0.00893394
      vertex -0.00216506 0.005 0.00875
    endloop
  endfacet
  facet normal 0 1 0
    outer loop
      vertex -0.00216506 0.005 0.00875
      vertex -0.00226577 0.005 0.00855655
      vertex -0.005 0.005 0.015
    endloop
  endfacet
  facet normal 0 1 0
    outer loop
      vertex -0.00226577 0.005 0.00855655
      vertex -0.00234923 0.005 0.00835505
      vertex -0.005 0.005 0.015
    endloop
  endfacet
  facet normal 0 1 0
    outer loop
      vertex -0.005 0.005 0.015
      vertex -0.00234923 0.005 0.00835505
      vertex -0.00241481 0.005 0.00814705
    endloop
  endfacet
  facet normal 0 1 0
    outer loop
      vertex -0.00216506 0.005 0.00625
      vertex -0.00204788 0.005 0.00606606
      vertex -0.005 0.005 0.00300104
    endloop
  endfacet
  facet normal 0 1 0
    outer loop
      vertex -0.00204788 0.005 0.00606606
      vertex -0.00191511 0.005 0.00589303
      vertex -0.005 0.005 0.00300104
    endloop
  endfacet
  facet normal 0 1 0
    outer loop
      vertex -0.005 0.005 0.00300104
      vertex -0.00191511 0.005 0.00589303
      vertex -0.00498858 0.005 0.00273948
    endloop
  endfacet
  facet normal 0 1 0
    outer loop
      vertex -0.00191511 0.005 0.00589303
      vertex -0.00176777 0.005 0.00573223
      vertex -0.00498858 0.005 0.00273948
    endloop
  endfacet
  facet normal 0 1 0
    outer loop
      vertex -0.00471883 0.005 0.00173274
      vertex -0.00481902 0.005 0.00197462
      vertex -0.00160697 0.005 0.00558489
    endloop
  endfacet
  facet normal 0 1 0
    outer loop
      vertex -0.00481902 0.005 0.00197462
      vertex -0.00489774 0.005 0.00222431
      vertex -0.00160697 0.005 0.00558489
    endloop
  endfacet
  facet normal 0 1 0
    outer loop
      vertex -0.00160697 0.005 0.00558489
      vertex -0.00489774 0.005 0.00222431
      vertex -0.00176777 0.005 0.00573223
    endloop
  endfacet
  facet normal 0 1 0
    outer loop
      vertex -0.00489774 0.005 0.00222431
      vertex -0.00495441 0.005 0.00247991
      vertex -0.00176777 0.005 0.00573223
    endloop
  endfacet
  facet normal 0 1 0
    outer loop
      vertex -0.00176777 0.005 0.00573223
      vertex -0.00495441 0.005 0.00247991
      vertex -0.00498858 0.005 0.00273948
    endloop
  endfacet
  facet normal 0 1 0
    outer loop
      vertex -0.00445727 0.005 0.00127971
      vertex -0.00143394 0.005 0.00545212
      vertex -0.00429789 0.005 0.00107201
    endloop
  endfacet
  facet normal 0 1 0
    outer loop
      vertex -0.00143394 0.005 0.00545212
      vertex -0.00125 0.005 0.00533494
      vertex -0.00429789 0.005 0.00107201
    endloop
  endfacet
  facet normal 0 1 0
    outer loop
      vertex -0.00429789 0.005 0.00107201
      vertex -0.00125 0.005 0.00533494
      vertex -0.00412102 0.005 0.000878984
    endloop
  endfacet
  facet normal 0 1 0
    outer loop
      vertex -0.00326726 0.005 0.000281174
      vertex -0.00105655 0.005 0.00523423
      vertex -0.00302538 0.005 0.000180985
    endloop
  endfacet
  facet normal 0 1 0
    outer loop
      vertex -0.00105655 0.005 0.00523423
      vertex -0.00085505 0.005 0.00515077
      vertex -0.00302538 0.005 0.000180985
    endloop
  endfacet
  facet normal 0 1 0
    outer loop
      vertex -0.00302538 0.005 0.000180985
      vertex -0.00085505 0.005 0.00515077
      vertex -0.00277569 0.005 0.000102258
    endloop
  endfacet
  facet normal 0 1 0
    outer loop
      vertex -0.00085505 0.005 0.00515077
      vertex -0.00252009 0.005 4.55925e-5
      vertex -0.00277569 0.005 0.000102258
    endloop
  endfacet
  facet normal 0 1 0
    outer loop
      vertex -0.00252009 0.005 4.55925e-5
      vertex -0.00085505 0.005 0.00515077
      vertex -0.00226052 0.005 1.14199e-5
    endloop
  endfacet
  facet normal 0 1 0
    outer loop
      vertex -0.00085505 0.005 0.00515077
      vertex -0.000647048 0.005 0.00508519
      vertex -0.00226052 0.005 1.14199e-5
    endloop
  endfacet
  facet normal 0 1 0
    outer loop
      vertex -0.00226052 0.005 1.14199e-5
      vertex -0.000647048 0.005 0.00508519
      vertex -0.00199896 0.005 0
    endloop
  endfacet
  facet normal 0 1 0
    outer loop
      vertex -0.000647048 0.005 0.00508519
      vertex -0.00043412 0.005 0.00503798
      vertex -0.00199896 0.005 0
    endloop
  endfacet
  facet normal 0 1 0
    outer loop
      vertex -0.00199896 0.005 0
      vertex -0.00043412 0.005 0.00503798
      vertex -0.000217889 0.005 0.00500951
    endloop
  endfacet
  facet normal 0 1 0
    outer loop
      vertex -0.000217889 0.005 0.00500951
      vertex 0 0.005 0.005
      vertex -0.00199896 0.005 0
    endloop
  endfacet
  facet normal 0 1 0
    outer loop
      vertex 0 0.005 0.005
      vertex 0.000217889 0.005 0.00500951
      vertex -0.00199896 0.005 0
    endloop
  endfacet
  facet normal 0 1 0
    outer loop
      vertex -0.00199896 0.005 0
      vertex 0.000217889 0.005 0.00500951
      vertex 0.005 0.005 0
    endloop
  endfacet
  facet normal 0 1 0
    outer loop
      vertex 0.000217889 0.005 0.00500951
      vertex 0.00043412 0.005 0.00503798
      vertex 0.005 0.005 0
    endloop
  endfacet
  facet normal 0 1 0
    outer loop
      vertex 0.005 0.005 0
      vertex 0.00043412 0.005 0.00503798
      vertex 0.000647048 0.005 0.00508519
    endloop
  endfacet
  facet normal 0 1 0
    outer loop
      vertex 0.000647048 0.005 0.00508519
      vertex 0.00085505 0.005 0.00515077
      vertex 0.005 0.005 0
    endloop
  endfacet
  facet normal 0 1 0
    outer loop
      vertex 0.00085505 0.005 0.00515077
      vertex 0.00105655 0.005 0.00523423
      vertex 0.005 0.005 0
    endloop
  endfacet
  facet normal 0 1 0
    outer loop
      vertex 0.005 0.005 0
      vertex 0.00105655 0.005 0.00523423
      vertex 0.00125 0.005 0.00533494
    endloop
  endfacet
  facet normal 0 1 0
    outer loop
      vertex 0.00471883 0.005 0.0132673
      vertex 0.00481902 0.005 0.0130254
      vertex 0.00160697 0.005 0.00941511
    endloop
  endfacet
  facet normal 0 1 0
    outer loop
      vertex 0.00481902 0.005 0.0130254
      vertex 0.00489774 0.005 0.0127757
      vertex 0.00160697 0.005 0.00941511
    endloop
  endfacet
  facet normal 0 1 0
    outer loop
      vertex 0.00160697 0.005 0.00941511
      vertex 0.00489774 0.005 0.0127757
      vertex 0.00176777 0.005 0.00926777
    endloop
  endfacet
  facet normal 0 1 0
    outer loop
      vertex 0.00471883 0.005 0.0132673
      vertex 0.00160697 0.005 0.00941511
      vertex 0.00459794 0.005 0.0134995
    endloop
  endfacet
  facet normal 0 1 0
    outer loop
      vertex 0.00160697 0.005 0.00941511
      vertex 0.00143394 0.005 0.00954788
      vertex 0.00459794 0.005 0.0134995
    endloop
  endfacet
  facet normal 0 1 0
    outer loop
      vertex 0.00459794 0.005 0.0134995
      vertex 0.00143394 0.005 0.00954788
      vertex 0.00445727 0.005 0.0137203
    endloop
  endfacet
  facet normal 0 1 0
    outer loop
      vertex -0.00249049 0.005 0.00728211
      vertex -0.00246202 0.005 0.00706588
      vertex -0.005 0.005 0.00300104
    endloop
  endfacet
  facet normal 0 1 0
    outer loop
      vertex -0.00246202 0.005 0.00706588
      vertex -0.00241481 0.005 0.00685295
      vertex -0.005 0.005 0.00300104
    endloop
  endfacet
  facet normal 0 1 0
    outer loop
      vertex -0.005 0.005 0.00300104
      vertex -0.00241481 0.005 0.00685295
      vertex -0.00234923 0.005 0.00664495
    endloop
  endfacet
  facet normal 0 1 0
    outer loop
      vertex -0.00326726 0.005 0.000281174
      vertex -0.00349948 0.005 0.000402063
      vertex -0.00105655 0.005 0.00523423
    endloop
  endfacet
  facet normal 0 1 0
    outer loop
      vertex -0.00349948 0.005 0.000402063
      vertex -0.00372029 0.005 0.000542732
      vertex -0.00105655 0.005 0.00523423
    endloop
  endfacet
  facet normal 0 1 0
    outer loop
      vertex -0.00105655 0.005 0.00523423
      vertex -0.00372029 0.005 0.000542732
      vertex -0.00125 0.005 0.00533494
    endloop
  endfacet
  facet normal 0 1 0
    outer loop
      vertex -0.00372029 0.005 0.000542732
      vertex -0.00392799 0.005 0.00070211
      vertex -0.00125 0.005 0.00533494
    endloop
  endfacet
  facet normal 0 1 0
    outer loop
      vertex -0.00125 0.005 0.00533494
      vertex -0.00392799 0.005 0.00070211
      vertex -0.00412102 0.005 0.000878984
    endloop
  endfacet
  facet normal 0 1 0
    outer loop
      vertex 0.00216506 0.005 0.00875
      vertex 0.00204788 0.005 0.00893394
      vertex 0.005 0.005 0.011999
    endloop
  endfacet
  facet normal 0 1 0
    outer loop
      vertex 0.00204788 0.005 0.00893394
      vertex 0.00191511 0.005 0.00910697
      vertex 0.005 0.005 0.011999
    endloop
  endfacet
  facet normal 0 1 0
    outer loop
      vertex 0.005 0.005 0.011999
      vertex 0.00191511 0.005 0.00910697
      vertex 0.00498858 0.005 0.0122605
    endloop
  endfacet
  facet normal 0 1 0
    outer loop
      vertex 0.00191511 0.005 0.00910697
      vertex 0.00176777 0.005 0.00926777
      vertex 0.00498858 0.005 0.0122605
    endloop
  endfacet
  facet normal 0 1 0
    outer loop
      vertex 0.00498858 0.005 0.0122605
      vertex 0.00176777 0.005 0.00926777
      vertex 0.00495441 0.005 0.0125201
    endloop
  endfacet
  facet normal 0 1 0
    outer loop
      vertex 0.00176777 0.005 0.00926777
      vertex 0.00489774 0.005 0.0127757
      vertex 0.00495441 0.005 0.0125201
    endloop
  endfacet
  facet normal 0 1 0
    outer loop
      vertex 0.00445727 0.005 0.0137203
      vertex 0.00143394 0.005 0.00954788
      vertex 0.00429789 0.005 0.013928
    endloop
  endfacet
  facet normal 0 1 0
    outer loop
      vertex 0.00143394 0.005 0.00954788
      vertex 0.00125 0.005 0.00966506
      vertex 0.00429789 0.005 0.013928
    endloop
  endfacet
  facet normal 0 1 0
    outer loop
      vertex 0.00429789 0.005 0.013928
      vertex 0.00125 0.005 0.00966506
      vertex 0.00412102 0.005 0.014121
    endloop
  endfacet
  facet normal 0 1 0
    outer loop
      vertex 0.00326726 0.005 0.0147188
      vertex 0.00105655 0.005 0.00976577
      vertex 0.00302538 0.005 0.014819
    endloop
  endfacet
  facet normal 0 1 0
    outer loop
      vertex 0.00105655 0.005 0.00976577
      vertex 0.00085505 0.005 0.00984923
      vertex 0.00302538 0.005 0.014819
    endloop
  endfacet
  facet normal 0 1 0
    outer loop
      vertex 0.00302538 0.005 0.014819
      vertex 0.00085505 0.005 0.00984923
      vertex 0.00277569 0.005 0.0148977
    endloop
  endfacet
  facet normal 0 1 0
    outer loop
      vertex 0.00085505 0.005 0.00984923
      vertex 0.00252009 0.005 0.0149544
      vertex 0.00277569 0.005 0.0148977
    endloop
  endfacet
  facet normal 0 1 0
    outer loop
      vertex 0.00252009 0.005 0.0149544
      vertex 0.00085505 0.005 0.00984923
      vertex 0.00226052 0.005 0.0149886
    endloop
  endfacet
  facet normal 0 1 0
    outer loop
      vertex 0.00085505 0.005 0.00984923
      vertex 0.000647048 0.005 0.00991481
      vertex 0.00226052 0.005 0.0149886
    endloop
  endfacet
  facet normal 0 1 0
    outer loop
      vertex 0.00226052 0.005 0.0149886
      vertex 0.000647048 0.005 0.00991481
      vertex 0.00199896 0.005 0.015
    endloop
  endfacet
  facet normal 0 1 0
    outer loop
      vertex 0.000647048 0.005 0.00991481
      vertex 0.00043412 0.005 0.00996202
      vertex 0.00199896 0.005 0.015
    endloop
  endfacet
  facet normal 0 1 0
    outer loop
      vertex 0.00199896 0.005 0.015
      vertex 0.00043412 0.005 0.00996202
      vertex 0.000217889 0.005 0.00999049
    endloop
  endfacet
  facet normal 0 1 0
    outer loop
      vertex 0.00125 0.005 0.00533494
      vertex 0.00143394 0.005 0.00545212
      vertex 0.005 0.005 0
    endloop
  endfacet
  facet normal 0 1 0
    outer loop
      vertex 0.00143394 0.005 0.00545212
      vertex 0.00160697 0.005 0.00558489
      vertex 0.005 0.005 0
    endloop
  endfacet
  facet normal 0 1 0
    outer loop
      vertex 0.005 0.005 0
      vertex 0.00160697 0.005 0.00558489
      vertex 0.00176777 0.005 0.00573223
    endloop
  endfacet
  facet normal 0 1 0
    outer loop
      vertex 0.00326726 0.005 0.0147188
      vertex 0.00349948 0.005 0.0145979
      vertex 0.00105655 0.005 0.00976577
    endloop
  endfacet
  facet normal 0 1 0
    outer loop
      vertex 0.00349948 0.005 0.0145979
      vertex 0.00372029 0.005 0.0144573
      vertex 0.00105655 0.005 0.00976577
    endloop
  endfacet
  facet normal 0 1 0
    outer loop
      vertex 0.00105655 0.005 0.00976577
      vertex 0.00372029 0.005 0.0144573
      vertex 0.00125 0.005 0.00966506
    endloop
  endfacet
  facet normal 0 1 0
    outer loop
      vertex 0.00372029 0.005 0.0144573
      vertex 0.00392799 0.005 0.0142979
      vertex 0.00125 0.005 0.00966506
    endloop
  endfacet
  facet normal 0 1 0
    outer loop
      vertex 0.00125 0.005 0.00966506
      vertex 0.00392799 0.005 0.0142979
      vertex 0.00412102 0.005 0.014121
    endloop
  endfacet
  facet normal 0 1 0
    outer loop
      vertex 0.00176777 0.005 0.00573223
      vertex 0.00191511 0.005 0.00589303
      vertex 0.005 0.005 0
    endloop
  endfacet
  facet normal 0 1 0
    outer loop
      vertex 0.00191511 0.005 0.00589303
      vertex 0.00204788 0.005 0.00606606
      vertex 0.005 0.005 0
    endloop
  endfacet
  facet normal 0 1 0
    outer loop
      vertex 0.005 0.005 0
      vertex 0.00204788 0.005 0.00606606
      vertex 0.00216506 0.005 0.00625
    endloop
  endfacet
  facet normal 0 1 0
    outer loop
      vertex -0.00241481 0.005 0.00814705
      vertex -0.00246202 0.005 0.00793412
      vertex -0.005 0.005 0.015
    endloop
  endfacet
  facet normal 0 1 0
    outer loop
      vertex -0.00246202 0.005 0.00793412
      vertex -0.00249049 0.005 0.00771789
      vertex -0.005 0.005 0.015
    endloop
  endfacet
  facet normal 0 1 0
    outer loop
      vertex -0.005 0.005 0.015
      vertex -0.00249049 0.005 0.00771789
      vertex -0.005 0.005 0.00300104
    endloop
  endfacet
  facet normal 0 1 0
    outer loop
      vertex -0.00249049 0.005 0.00771789
      vertex -0.0025 0.005 0.0075
      vertex -0.005 0.005 0.00300104
    endloop
  endfacet
  facet normal 0 1 0
    outer loop
      vertex -0.005 0.005 0.00300104
      vertex -0.0025 0.005 0.0075
      vertex -0.00249049 0.005 0.00728211
    endloop
  endfacet
  facet normal 0 1 0
    outer loop
      vertex 0.00216506 0.005 0.00625
      vertex 0.00226577 0.005 0.00644345
      vertex 0.005 0.005 0
    endloop
  endfacet
  facet normal 0 1 0
    outer loop
      vertex 0.00226577 0.005 0.00644345
      vertex 0.00234923 0.005 0.00664495
      vertex 0.005 0.005 0
    endloop
  endfacet
  facet normal 0 1 0
    outer loop
      vertex 0.005 0.005 0
      vertex 0.00234923 0.005 0.00664495
      vertex 0.00241481 0.005 0.00685295
    endloop
  endfacet
  facet normal 0 1 0
    outer loop
      vertex 0.00249049 0.005 0.00771789
      vertex 0.00246202 0.005 0.00793412
      vertex 0.005 0.005 0.011999
    endloop
  endfacet
  facet normal 0 1 0
    outer loop
      vertex 0.00246202 0.005 0.00793412
      vertex 0.00241481 0.005 0.00814705
      vertex 0.005 0.005 0.011999
    endloop
  endfacet
  facet normal 0 1 0
    outer loop
      vertex 0.005 0.005 0.011999
      vertex 0.00241481 0.005 0.00814705
      vertex 0.00234923 0.005 0.00835505
    endloop
  endfacet
  facet normal 0 1 0
    outer loop
      vertex 0.00241481 0.005 0.00685295
      vertex 0.00246202 0.005 0.00706588
      vertex 0.005 0.005 0
    endloop
  endfacet
  facet normal 0 1 0
    outer loop
      vertex 0.00246202 0.005 0.00706588
      vertex 0.00249049 0.005 0.00728211
      vertex 0.005 0.005 0
    endloop
  endfacet
  facet normal 0 1 0
    outer loop
      vertex 0.005 0.005 0
      vertex 0.00249049 0.005 0.00728211
      vertex 0.005 0.005 0.011999
    endloop
  endfacet
  facet normal 0 1 0
    outer loop
      vertex 0.00249049 0.005 0.00728211
      vertex 0.0025 0.005 0.0075
      vertex 0.005 0.005 0.011999
    endloop
  endfacet
  facet normal 0 1 0
    outer loop
      vertex 0.005 0.005 0.011999
      vertex 0.0025 0.005 0.0075
      vertex 0.00249049 0.005 0.00771789
    endloop
  endfacet
  facet normal 0 0 1
    outer loop
      vertex 0 -0.0025 0.0175
      vertex 0 0.0025 0.0175
      vertex -0.005 -0.0025 0.0175
    endloop
  endfacet
  facet normal 0 0 1
    outer loop
      vertex 0 0.0025 0.0175
      vertex -0.005 0.0025 0.0175
      vertex -0.005 -0.0025 0.0175
    endloop
  endfacet
  facet normal 0 -1 0
    outer loop
      vertex -0.00199896 -0.005 0
      vertex -6.12323e-19 -0.005 0.005
      vertex -0.000217889 -0.005 0.00500951
    endloop
  endfacet
  facet normal 0 -1 0
    outer loop
      vertex -0.00105655 -0.005 0.00976577
      vertex -0.00085505 -0.005 0.00984923
      vertex -0.005 -0.005 0.015
    endloop
  endfacet
  facet normal 0 -1 0
    outer loop
      vertex 0.00125 -0.005 0.00533494
      vertex 0.00105655 -0.005 0.00523423
      vertex 0.005 -0.005 0
    endloop
  endfacet
  facet normal 0 -1 0
    outer loop
      vertex 0.00105655 -0.005 0.00523423
      vertex 0.00085505 -0.005 0.00515077
      vertex 0.005 -0.005 0
    endloop
  endfacet
  facet normal 0 -1 0
    outer loop
      vertex -0.00105655 -0.005 0.00976577
      vertex -0.005 -0.005 0.015
      vertex -0.00125 -0.005 0.00966506
    endloop
  endfacet
  facet normal 0 -1 0
    outer loop
      vertex -0.00481902 -0.005 0.00197462
      vertex -0.00471883 -0.005 0.00173274
      vertex -0.00160697 -0.005 0.00558489
    endloop
  endfacet
  facet normal 0 -1 0
    outer loop
      vertex -0.00471883 -0.005 0.00173274
      vertex -0.00459794 -0.005 0.00150052
      vertex -0.00160697 -0.005 0.00558489
    endloop
  endfacet
  facet normal 0 -1 0
    outer loop
      vertex -0.00160697 -0.005 0.00558489
      vertex -0.00459794 -0.005 0.00150052
      vertex -0.00143394 -0.005 0.00545212
    endloop
  endfacet
  facet normal 0 -1 0
    outer loop
      vertex 0.00481902 -0.005 0.0130254
      vertex 0.00471883 -0.005 0.0132673
      vertex 0.00160697 -0.005 0.00941511
    endloop
  endfacet
  facet normal 0 -1 0
    outer loop
      vertex 0.00471883 -0.005 0.0132673
      vertex 0.00459794 -0.005 0.0134995
      vertex 0.00160697 -0.005 0.00941511
    endloop
  endfacet
  facet normal 0 -1 0
    outer loop
      vertex 0.00160697 -0.005 0.00941511
      vertex 0.00459794 -0.005 0.0134995
      vertex 0.00143394 -0.005 0.00954788
    endloop
  endfacet
  facet normal 0 -1 0
    outer loop
      vertex 0.00216506 -0.005 0.00875
      vertex 0.00226577 -0.005 0.00855655
      vertex 0.005 -0.005 0.011999
    endloop
  endfacet
  facet normal 0 -1 0
    outer loop
      vertex 0.00085505 -0.005 0.00515077
      vertex 0.000647048 -0.005 0.00508519
      vertex 0.005 -0.005 0
    endloop
  endfacet
  facet normal 0 -1 0
    outer loop
      vertex 0.000647048 -0.005 0.00508519
      vertex 0.00043412 -0.005 0.00503798
      vertex 0.005 -0.005 0
    endloop
  endfacet
  facet normal 0 -1 0
    outer loop
      vertex 0.005 -0.005 0
      vertex 0.00043412 -0.005 0.00503798
      vertex -0.00199896 -0.005 0
    endloop
  endfacet
  facet normal 0 -1 0
    outer loop
      vertex 0.00043412 -0.005 0.00503798
      vertex 0.000217889 -0.005 0.00500951
      vertex -0.00199896 -0.005 0
    endloop
  endfacet
  facet normal 0 -1 0
    outer loop
      vertex -0.00199896 -0.005 0
      vertex 0.000217889 -0.005 0.00500951
      vertex -6.12323e-19 -0.005 0.005
    endloop
  endfacet
  facet normal 0 -1 0
    outer loop
      vertex -0.00459794 -0.005 0.00150052
      vertex -0.00445727 -0.005 0.00127971
      vertex -0.00143394 -0.005 0.00545212
    endloop
  endfacet
  facet normal 0 -1 0
    outer loop
      vertex -0.00445727 -0.005 0.00127971
      vertex -0.00429789 -0.005 0.00107201
      vertex -0.00143394 -0.005 0.00545212
    endloop
  endfacet
  facet normal 0 -1 0
    outer loop
      vertex -0.00143394 -0.005 0.00545212
      vertex -0.00429789 -0.005 0.00107201
      vertex -0.00125 -0.005 0.00533494
    endloop
  endfacet
  facet normal 0 -1 0
    outer loop
      vertex -0.00176777 -0.005 0.00573223
      vertex -0.00191511 -0.005 0.00589303
      vertex -0.005 -0.005 0.00300104
    endloop
  endfacet
  facet normal 0 -1 0
    outer loop
      vertex -0.00191511 -0.005 0.00589303
      vertex -0.00204788 -0.005 0.00606606
      vertex -0.005 -0.005 0.00300104
    endloop
  endfacet
  facet normal 0 -1 0
    outer loop
      vertex -0.00204788 -0.005 0.00606606
      vertex -0.00216506 -0.005 0.00625
      vertex -0.005 -0.005 0.00300104
    endloop
  endfacet
  facet normal 0 -1 0
    outer loop
      vertex -0.005 -0.005 0.00300104
      vertex -0.00216506 -0.005 0.00625
      vertex -0.00226577 -0.005 0.00644345
    endloop
  endfacet
  facet normal 0 -1 0
    outer loop
      vertex -0.00176777 -0.005 0.00926777
      vertex -0.00160697 -0.005 0.00941511
      vertex -0.005 -0.005 0.015
    endloop
  endfacet
  facet normal 0 -1 0
    outer loop
      vertex -0.00160697 -0.005 0.00941511
      vertex -0.00143394 -0.005 0.00954788
      vertex -0.005 -0.005 0.015
    endloop
  endfacet
  facet normal 0 -1 0
    outer loop
      vertex -0.005 -0.005 0.015
      vertex -0.00143394 -0.005 0.00954788
      vertex -0.00125 -0.005 0.00966506
    endloop
  endfacet
  facet normal 0 -1 0
    outer loop
      vertex 1.41638e-18 -0.005 0.01
      vertex 0.000217889 -0.005 0.00999049
      vertex 0.00199896 -0.005 0.015
    endloop
  endfacet
  facet normal 0 -1 0
    outer loop
      vertex 0.00459794 -0.005 0.0134995
      vertex 0.00445727 -0.005 0.0137203
      vertex 0.00143394 -0.005 0.00954788
    endloop
  endfacet
  facet normal 0 -1 0
    outer loop
      vertex 0.00445727 -0.005 0.0137203
      vertex 0.00429789 -0.005 0.013928
      vertex 0.00143394 -0.005 0.00954788
    endloop
  endfacet
  facet normal 0 -1 0
    outer loop
      vertex 0.00143394 -0.005 0.00954788
      vertex 0.00429789 -0.005 0.013928
      vertex 0.00125 -0.005 0.00966506
    endloop
  endfacet
  facet normal 0 -1 0
    outer loop
      vertex -0.005 -0.005 0.00300104
      vertex -0.00498858 -0.005 0.00273948
      vertex -0.00176777 -0.005 0.00573223
    endloop
  endfacet
  facet normal 0 -1 0
    outer loop
      vertex -0.00498858 -0.005 0.00273948
      vertex -0.00495441 -0.005 0.00247991
      vertex -0.00176777 -0.005 0.00573223
    endloop
  endfacet
  facet normal 0 -1 0
    outer loop
      vertex -0.00176777 -0.005 0.00573223
      vertex -0.00495441 -0.005 0.00247991
      vertex -0.00160697 -0.005 0.00558489
    endloop
  endfacet
  facet normal 0 -1 0
    outer loop
      vertex -0.00495441 -0.005 0.00247991
      vertex -0.00489774 -0.005 0.00222431
      vertex -0.00160697 -0.005 0.00558489
    endloop
  endfacet
  facet normal 0 -1 0
    outer loop
      vertex -0.00160697 -0.005 0.00558489
      vertex -0.00489774 -0.005 0.00222431
      vertex -0.00481902 -0.005 0.00197462
    endloop
  endfacet
  facet normal 0 -1 0
    outer loop
      vertex -0.00226577 -0.005 0.00644345
      vertex -0.00234923 -0.005 0.00664495
      vertex -0.005 -0.005 0.00300104
    endloop
  endfacet
  facet normal 0 -1 0
    outer loop
      vertex -0.00234923 -0.005 0.00664495
      vertex -0.00241481 -0.005 0.00685295
      vertex -0.005 -0.005 0.00300104
    endloop
  endfacet
  facet normal 0 -1 0
    outer loop
      vertex -0.005 -0.005 0.00300104
      vertex -0.00241481 -0.005 0.00685295
      vertex -0.00246202 -0.005 0.00706588
    endloop
  endfacet
  facet normal 0 -1 0
    outer loop
      vertex -0.00246202 -0.005 0.00793412
      vertex -0.00241481 -0.005 0.00814705
      vertex -0.005 -0.005 0.015
    endloop
  endfacet
  facet normal 0 -1 0
    outer loop
      vertex -0.00216506 -0.005 0.00875
      vertex -0.00204788 -0.005 0.00893394
      vertex -0.005 -0.005 0.015
    endloop
  endfacet
  facet normal 0 -1 0
    outer loop
      vertex -0.00204788 -0.005 0.00893394
      vertex -0.00191511 -0.005 0.00910697
      vertex -0.005 -0.005 0.015
    endloop
  endfacet
  facet normal 0 -1 0
    outer loop
      vertex -0.005 -0.005 0.015
      vertex -0.00191511 -0.005 0.00910697
      vertex -0.00176777 -0.005 0.00926777
    endloop
  endfacet
  facet normal 0 -1 0
    outer loop
      vertex -0.00085505 -0.005 0.00984923
      vertex -0.000647048 -0.005 0.00991481
      vertex -0.005 -0.005 0.015
    endloop
  endfacet
  facet normal 0 -1 0
    outer loop
      vertex -0.000647048 -0.005 0.00991481
      vertex -0.00043412 -0.005 0.00996202
      vertex -0.005 -0.005 0.015
    endloop
  endfacet
  facet normal 0 -1 0
    outer loop
      vertex -0.005 -0.005 0.015
      vertex -0.00043412 -0.005 0.00996202
      vertex 0.00199896 -0.005 0.015
    endloop
  endfacet
  facet normal 0 -1 0
    outer loop
      vertex -0.00043412 -0.005 0.00996202
      vertex -0.000217889 -0.005 0.00999049
      vertex 0.00199896 -0.005 0.015
    endloop
  endfacet
  facet normal 0 -1 0
    outer loop
      vertex 0.00199896 -0.005 0.015
      vertex -0.000217889 -0.005 0.00999049
      vertex 1.41638e-18 -0.005 0.01
    endloop
  endfacet
  facet normal 0 -1 0
    outer loop
      vertex 0.00176777 -0.005 0.00926777
      vertex 0.00191511 -0.005 0.00910697
      vertex 0.005 -0.005 0.011999
    endloop
  endfacet
  facet normal 0 -1 0
    outer loop
      vertex 0.00191511 -0.005 0.00910697
      vertex 0.00204788 -0.005 0.00893394
      vertex 0.005 -0.005 0.011999
    endloop
  endfacet
  facet normal 0 -1 0
    outer loop
      vertex 0.005 -0.005 0.011999
      vertex 0.00204788 -0.005 0.00893394
      vertex 0.00216506 -0.005 0.00875
    endloop
  endfacet
  facet normal 0 -1 0
    outer loop
      vertex 0.00226577 -0.005 0.00644345
      vertex 0.00216506 -0.005 0.00625
      vertex 0.005 -0.005 0
    endloop
  endfacet
  facet normal 0 -1 0
    outer loop
      vertex -0.000217889 -0.005 0.00500951
      vertex -0.00043412 -0.005 0.00503798
      vertex -0.00199896 -0.005 0
    endloop
  endfacet
  facet normal 0 -1 0
    outer loop
      vertex -0.00043412 -0.005 0.00503798
      vertex -0.000647048 -0.005 0.00508519
      vertex -0.00199896 -0.005 0
    endloop
  endfacet
  facet normal 0 -1 0
    outer loop
      vertex -0.00199896 -0.005 0
      vertex -0.000647048 -0.005 0.00508519
      vertex -0.00226052 -0.005 1.14199e-5
    endloop
  endfacet
  facet normal 0 -1 0
    outer loop
      vertex -0.000647048 -0.005 0.00508519
      vertex -0.00085505 -0.005 0.00515077
      vertex -0.00226052 -0.005 1.14199e-5
    endloop
  endfacet
  facet normal 0 -1 0
    outer loop
      vertex -0.00226052 -0.005 1.14199e-5
      vertex -0.00085505 -0.005 0.00515077
      vertex -0.00252009 -0.005 4.55925e-5
    endloop
  endfacet
  facet normal 0 -1 0
    outer loop
      vertex -0.00349948 -0.005 0.000402063
      vertex -0.00326726 -0.005 0.000281174
      vertex -0.00105655 -0.005 0.00523423
    endloop
  endfacet
  facet normal 0 -1 0
    outer loop
      vertex -0.00326726 -0.005 0.000281174
      vertex -0.00302538 -0.005 0.000180985
      vertex -0.00105655 -0.005 0.00523423
    endloop
  endfacet
  facet normal 0 -1 0
    outer loop
      vertex -0.00105655 -0.005 0.00523423
      vertex -0.00302538 -0.005 0.000180985
      vertex -0.00085505 -0.005 0.00515077
    endloop
  endfacet
  facet normal 0 -1 0
    outer loop
      vertex -0.00302538 -0.005 0.000180985
      vertex -0.00277569 -0.005 0.000102258
      vertex -0.00085505 -0.005 0.00515077
    endloop
  endfacet
  facet normal 0 -1 0
    outer loop
      vertex -0.00085505 -0.005 0.00515077
      vertex -0.00277569 -0.005 0.000102258
      vertex -0.00252009 -0.005 4.55925e-5
    endloop
  endfacet
  facet normal 0 -1 0
    outer loop
      vertex -0.00429789 -0.005 0.00107201
      vertex -0.00412102 -0.005 0.000878984
      vertex -0.00125 -0.005 0.00533494
    endloop
  endfacet
  facet normal 0 -1 0
    outer loop
      vertex -0.00412102 -0.005 0.000878984
      vertex -0.00392799 -0.005 0.00070211
      vertex -0.00125 -0.005 0.00533494
    endloop
  endfacet
  facet normal 0 -1 0
    outer loop
      vertex -0.00125 -0.005 0.00533494
      vertex -0.00392799 -0.005 0.00070211
      vertex -0.00105655 -0.005 0.00523423
    endloop
  endfacet
  facet normal 0 -1 0
    outer loop
      vertex -0.00392799 -0.005 0.00070211
      vertex -0.00372029 -0.005 0.000542732
      vertex -0.00105655 -0.005 0.00523423
    endloop
  endfacet
  facet normal 0 -1 0
    outer loop
      vertex -0.00105655 -0.005 0.00523423
      vertex -0.00372029 -0.005 0.000542732
      vertex -0.00349948 -0.005 0.000402063
    endloop
  endfacet
  facet normal 0 -1 0
    outer loop
      vertex -0.00241481 -0.005 0.00814705
      vertex -0.00234923 -0.005 0.00835505
      vertex -0.005 -0.005 0.015
    endloop
  endfacet
  facet normal 0 -1 0
    outer loop
      vertex -0.00234923 -0.005 0.00835505
      vertex -0.00226577 -0.005 0.00855655
      vertex -0.005 -0.005 0.015
    endloop
  endfacet
  facet normal 0 -1 0
    outer loop
      vertex -0.005 -0.005 0.015
      vertex -0.00226577 -0.005 0.00855655
      vertex -0.00216506 -0.005 0.00875
    endloop
  endfacet
  facet normal 0 -1 0
    outer loop
      vertex 0.000217889 -0.005 0.00999049
      vertex 0.00043412 -0.005 0.00996202
      vertex 0.00199896 -0.005 0.015
    endloop
  endfacet
  facet normal 0 -1 0
    outer loop
      vertex 0.00043412 -0.005 0.00996202
      vertex 0.000647048 -0.005 0.00991481
      vertex 0.00199896 -0.005 0.015
    endloop
  endfacet
  facet normal 0 -1 0
    outer loop
      vertex 0.00199896 -0.005 0.015
      vertex 0.000647048 -0.005 0.00991481
      vertex 0.00226052 -0.005 0.0149886
    endloop
  endfacet
  facet normal 0 -1 0
    outer loop
      vertex 0.000647048 -0.005 0.00991481
      vertex 0.00085505 -0.005 0.00984923
      vertex 0.00226052 -0.005 0.0149886
    endloop
  endfacet
  facet normal 0 -1 0
    outer loop
      vertex 0.00226052 -0.005 0.0149886
      vertex 0.00085505 -0.005 0.00984923
      vertex 0.00252009 -0.005 0.0149544
    endloop
  endfacet
  facet normal 0 -1 0
    outer loop
      vertex 0.00349948 -0.005 0.0145979
      vertex 0.00326726 -0.005 0.0147188
      vertex 0.00105655 -0.005 0.00976577
    endloop
  endfacet
  facet normal 0 -1 0
    outer loop
      vertex 0.00326726 -0.005 0.0147188
      vertex 0.00302538 -0.005 0.014819
      vertex 0.00105655 -0.005 0.00976577
    endloop
  endfacet
  facet normal 0 -1 0
    outer loop
      vertex 0.00105655 -0.005 0.00976577
      vertex 0.00302538 -0.005 0.014819
      vertex 0.00085505 -0.005 0.00984923
    endloop
  endfacet
  facet normal 0 -1 0
    outer loop
      vertex 0.00302538 -0.005 0.014819
      vertex 0.00277569 -0.005 0.0148977
      vertex 0.00085505 -0.005 0.00984923
    endloop
  endfacet
  facet normal 0 -1 0
    outer loop
      vertex 0.00085505 -0.005 0.00984923
      vertex 0.00277569 -0.005 0.0148977
      vertex 0.00252009 -0.005 0.0149544
    endloop
  endfacet
  facet normal 0 -1 0
    outer loop
      vertex 0.00429789 -0.005 0.013928
      vertex 0.00412102 -0.005 0.014121
      vertex 0.00125 -0.005 0.00966506
    endloop
  endfacet
  facet normal 0 -1 0
    outer loop
      vertex 0.00412102 -0.005 0.014121
      vertex 0.00392799 -0.005 0.0142979
      vertex 0.00125 -0.005 0.00966506
    endloop
  endfacet
  facet normal 0 -1 0
    outer loop
      vertex 0.00125 -0.005 0.00966506
      vertex 0.00392799 -0.005 0.0142979
      vertex 0.00105655 -0.005 0.00976577
    endloop
  endfacet
  facet normal 0 -1 0
    outer loop
      vertex 0.00392799 -0.005 0.0142979
      vertex 0.00372029 -0.005 0.0144573
      vertex 0.00105655 -0.005 0.00976577
    endloop
  endfacet
  facet normal 0 -1 0
    outer loop
      vertex 0.00105655 -0.005 0.00976577
      vertex 0.00372029 -0.005 0.0144573
      vertex 0.00349948 -0.005 0.0145979
    endloop
  endfacet
  facet normal 0 -1 0
    outer loop
      vertex 0.005 -0.005 0.011999
      vertex 0.00498858 -0.005 0.0122605
      vertex 0.00176777 -0.005 0.00926777
    endloop
  endfacet
  facet normal 0 -1 0
    outer loop
      vertex 0.00498858 -0.005 0.0122605
      vertex 0.00495441 -0.005 0.0125201
      vertex 0.00176777 -0.005 0.00926777
    endloop
  endfacet
  facet normal 0 -1 0
    outer loop
      vertex 0.00176777 -0.005 0.00926777
      vertex 0.00495441 -0.005 0.0125201
      vertex 0.00160697 -0.005 0.00941511
    endloop
  endfacet
  facet normal 0 -1 0
    outer loop
      vertex 0.00495441 -0.005 0.0125201
      vertex 0.00489774 -0.005 0.0127757
      vertex 0.00160697 -0.005 0.00941511
    endloop
  endfacet
  facet normal 0 -1 0
    outer loop
      vertex 0.00160697 -0.005 0.00941511
      vertex 0.00489774 -0.005 0.0127757
      vertex 0.00481902 -0.005 0.0130254
    endloop
  endfacet
  facet normal 0 -1 0
    outer loop
      vertex 0.00246202 -0.005 0.00706588
      vertex 0.00241481 -0.005 0.00685295
      vertex 0.005 -0.005 0
    endloop
  endfacet
  facet normal 0 -1 0
    outer loop
      vertex 0.00241481 -0.005 0.00685295
      vertex 0.00234923 -0.005 0.00664495
      vertex 0.005 -0.005 0
    endloop
  endfacet
  facet normal 0 -1 0
    outer loop
      vertex 0.005 -0.005 0
      vertex 0.00234923 -0.005 0.00664495
      vertex 0.00226577 -0.005 0.00644345
    endloop
  endfacet
  facet normal 0 -1 0
    outer loop
      vertex 0.00176777 -0.005 0.00573223
      vertex 0.00160697 -0.005 0.00558489
      vertex 0.005 -0.005 0
    endloop
  endfacet
  facet normal 0 -1 0
    outer loop
      vertex 0.00160697 -0.005 0.00558489
      vertex 0.00143394 -0.005 0.00545212
      vertex 0.005 -0.005 0
    endloop
  endfacet
  facet normal 0 -1 0
    outer loop
      vertex 0.005 -0.005 0
      vertex 0.00143394 -0.005 0.00545212
      vertex 0.00125 -0.005 0.00533494
    endloop
  endfacet
  facet normal 0 -1 0
    outer loop
      vertex -0.00246202 -0.005 0.00706588
      vertex -0.00249049 -0.005 0.00728211
      vertex -0.005 -0.005 0.00300104
    endloop
  endfacet
  facet normal 0 -1 0
    outer loop
      vertex -0.00249049 -0.005 0.00728211
      vertex -0.0025 -0.005 0.0075
      vertex -0.005 -0.005 0.00300104
    endloop
  endfacet
  facet normal 0 -1 0
    outer loop
      vertex -0.005 -0.005 0.00300104
      vertex -0.0025 -0.005 0.0075
      vertex -0.005 -0.005 0.015
    endloop
  endfacet
  facet normal 0 -1 0
    outer loop
      vertex -0.0025 -0.005 0.0075
      vertex -0.00249049 -0.005 0.00771789
      vertex -0.005 -0.005 0.015
    endloop
  endfacet
  facet normal 0 -1 0
    outer loop
      vertex -0.005 -0.005 0.015
      vertex -0.00249049 -0.005 0.00771789
      vertex -0.00246202 -0.005 0.00793412
    endloop
  endfacet
  facet normal 0 -1 0
    outer loop
      vertex 0.00226577 -0.005 0.00855655
      vertex 0.00234923 -0.005 0.00835505
      vertex 0.005 -0.005 0.011999
    endloop
  endfacet
  facet normal 0 -1 0
    outer loop
      vertex 0.00234923 -0.005 0.00835505
      vertex 0.00241481 -0.005 0.00814705
      vertex 0.005 -0.005 0.011999
    endloop
  endfacet
  facet normal 0 -1 0
    outer loop
      vertex 0.005 -0.005 0.011999
      vertex 0.00241481 -0.005 0.00814705
      vertex 0.00246202 -0.005 0.00793412
    endloop
  endfacet
  facet normal 0 -1 0
    outer loop
      vertex 0.00216506 -0.005 0.00625
      vertex 0.00204788 -0.005 0.00606606
      vertex 0.005 -0.005 0
    endloop
  endfacet
  facet normal 0 -1 0
    outer loop
      vertex 0.00204788 -0.005 0.00606606
      vertex 0.00191511 -0.005 0.00589303
      vertex 0.005 -0.005 0
    endloop
  endfacet
  facet normal 0 -1 0
    outer loop
      vertex 0.005 -0.005 0
      vertex 0.00191511 -0.005 0.00589303
      vertex 0.00176777 -0.005 0.00573223
    endloop
  endfacet
  facet normal 0 -1 0
    outer loop
      vertex 0.00246202 -0.005 0.00793412
      vertex 0.00249049 -0.005 0.00771789
      vertex 0.005 -0.005 0.011999
    endloop
  endfacet
  facet normal 0 -1 0
    outer loop
      vertex 0.00249049 -0.005 0.00771789
      vertex 0.0025 -0.005 0.0075
      vertex 0.005 -0.005 0.011999
    endloop
  endfacet
  facet normal 0 -1 0
    outer loop
      vertex 0.005 -0.005 0.011999
      vertex 0.0025 -0.005 0.0075
      vertex 0.005 -0.005 0
    endloop
  endfacet
  facet normal 0 -1 0
    outer loop
      vertex 0.0025 -0.005 0.0075
      vertex 0.00249049 -0.005 0.00728211
      vertex 0.005 -0.005 0
    endloop
  endfacet
  facet normal 0 -1 0
    outer loop
      vertex 0.005 -0.005 0
      vertex 0.00249049 -0.005 0.00728211
      vertex 0.00246202 -0.005 0.00706588
    endloop
  endfacet
  facet normal 1 0 0
    outer loop
      vertex 0.005 -0.005 0.011999
      vertex 0.005 -0.005 0
      vertex 0.005 0.005 0.011999
    endloop
  endfacet
  facet normal 1 0 0
    outer loop
      vertex 0.005 -0.005 0
      vertex 0.005 0.005 0
      vertex 0.005 0.005 0.011999
    endloop
  endfacet
  facet normal 0 1 0
    outer loop
      vertex -0.005 0.0025 0.0175
      vertex 0 0.0025 0.0175
      vertex -0.005 0.0025 0.015
    endloop
  endfacet
  facet normal 0 1 0
    outer loop
      vertex 0 0.0025 0.0175
      vertex 0 0.0025 0.015
      vertex -0.005 0.0025 0.015
    endloop
  endfacet
  facet normal 0 0 1
    outer loop
      vertex -0.005 -0.0025 0.015
      vertex -0.005 -0.005 0.015
      vertex 0 -0.0025 0.015
    endloop
  endfacet
  facet normal 0 0 1
    outer loop
      vertex -0.005 -0.005 0.015
      vertex 0.00199896 -0.005 0.015
      vertex 0 -0.0025 0.015
    endloop
  endfacet
  facet normal 0 0 1
    outer loop
      vertex 0 -0.0025 0.015
      vertex 0.00199896 -0.005 0.015
      vertex 0 0.0025 0.015
    endloop
  endfacet
  facet normal 0 0 1
    outer loop
      vertex 0.00199896 -0.005 0.015
      vertex 0.00199896 0.005 0.015
      vertex 0 0.0025 0.015
    endloop
  endfacet
  facet normal 0 0 1
    outer loop
      vertex 0 0.0025 0.015
      vertex 0.00199896 0.005 0.015
      vertex -0.005 0.0025 0.015
    endloop
  endfacet
  facet normal 0 0 1
    outer loop
      vertex 0.00199896 0.005 0.015
      vertex -0.005 0.005 0.015
      vertex -0.005 0.0025 0.015
    endloop
  endfacet
  facet normal 0 0 -1
    outer loop
      vertex -0.00199896 0.005 0
      vertex 0.005 0.005 0
      vertex -0.00199896 -0.005 0
    endloop
  endfacet
  facet normal 0 0 -1
    outer loop
      vertex 0.005 0.005 0
      vertex 0.005 -0.005 0
      vertex -0.00199896 -0.005 0
    endloop
  endfacet
endsolid Mesh
