<?xml version="1.0" encoding="UTF-8"?>
<!-- Generator: Blender, SVG Export for Grease Pencil - v1.0 -->
<!DOCTYPE svg PUBLIC "-//W3C//DTD SVG 1.1//EN" "http://www.w3.org/Graphics/SVG/1.1/DTD/svg11.dtd">
<svg version="1.0" x="0px" y="0px" xmlns="http://www.w3.org/2000/svg" width="1920px" height="1080px" viewBox="0 0 1920 1080">
	<g id="blender_frame_1">
		<g id="blender_object_GPencil">
			<!--Layer: Block_0-->
			<g id="Block_0">
				<polyline stroke="#000000" stroke-opacity="1" fill="none" stroke-linecap="round" stroke-width="8.00341797" points="602.454163,750.077148 635.104980,776.156738 667.755676,802.236206 700.406555,828.315796 733.057190,854.395386 765.707825,880.474854 798.358704,906.554443" />
				<polyline stroke="#000000" stroke-opacity="1" fill="none" stroke-linecap="round" stroke-width="8.00354004" points="785.421509,912.304199 841.276917,896.697632 897.132385,881.090881 952.987793,865.484253 1008.843262,849.877625 1064.698730,834.270935 1120.554077,818.664307 1176.409546,803.057617" />
				<polyline stroke="#000000" stroke-opacity="1" fill="none" stroke-linecap="round" stroke-width="8.00354004" points="602.864685,757.059082 654.202393,744.532715 705.540161,732.006287 756.877930,719.479858 808.215637,706.953491 859.553284,694.427124 910.890930,681.900757 962.228638,669.374329" />
				<polyline stroke="#000000" stroke-opacity="1" fill="none" stroke-linecap="round" stroke-width="8.00341797" points="920.542480,660.749512 958.532349,682.927368 996.522217,705.105347 1034.512085,727.283264 1072.501953,749.461060 1110.491943,771.639038 1148.481812,793.816772 1186.471680,815.994751" />
				<polyline stroke="#000000" stroke-opacity="1" fill="none" stroke-linecap="round" stroke-width="8.00366211" points="608.614624,769.996216 607.177185,736.729370 605.739685,703.462524 604.302185,670.195740 602.864746,636.928955 601.427429,603.662048 599.989929,570.395264 598.552429,537.128418" />
				<polyline stroke="#000000" stroke-opacity="1" fill="none" stroke-linecap="round" stroke-width="8.00341797" points="801.233704,915.179138 800.823120,880.269531 800.412231,845.359863 800.001465,810.450256 799.590942,775.540649 799.180115,740.630981 798.769409,705.721375 798.358704,670.811768" />
				<polyline stroke="#000000" stroke-opacity="1" fill="none" stroke-linecap="round" stroke-width="8.00354004" points="587.052856,550.065552 617.855530,569.984497 648.658020,589.903564 679.460693,609.822510 710.263245,629.741638 741.065796,649.660583 771.868591,669.579651 802.671082,689.498657" />
				<polyline stroke="#000000" stroke-opacity="1" fill="none" stroke-linecap="round" stroke-width="8.00341797" points="794.046509,688.061218 850.107178,674.508057 906.167847,660.954956 962.228638,647.401794 1018.289429,633.848633 1074.350220,620.295410 1130.410889,606.742310 1186.471558,593.189209" />
				<polyline stroke="#000000" stroke-opacity="1" fill="none" stroke-linecap="round" stroke-width="8.00341797" points="1170.659668,811.682373 1171.686401,779.853027 1172.713135,748.023682 1173.739990,716.194214 1174.766724,684.364868 1175.793579,652.535522 1176.820190,620.706177 1177.846924,588.876831" />
				<polyline stroke="#000000" stroke-opacity="1" fill="none" stroke-linecap="round" stroke-width="8.00354004" points="942.104309,680.873962 941.898987,650.892700 941.693604,620.911499 941.488281,590.930359 941.282837,560.949097 941.077576,530.967896 940.872253,500.986694 940.666931,471.005493" />
				<polyline stroke="#000000" stroke-opacity="1" fill="none" stroke-linecap="round" stroke-width="8.00341797" points="585.615479,558.690308 637.774414,548.217346 689.933594,537.744507 742.092834,527.271606 794.251587,516.798767 846.410889,506.325867 898.569946,495.852905 950.729065,485.380005" />
				<polyline stroke="#000000" stroke-opacity="1" fill="none" stroke-linecap="round" stroke-width="8.00366211" points="926.292297,483.942627 963.255371,501.602722 1000.218567,519.262939 1037.181641,536.923035 1074.144897,554.583313 1111.107910,572.243408 1148.071045,589.903564 1185.034180,607.563721" />
			</g>
			<!--Layer: Block_1-->
			<g id="Block_1">
				<polyline stroke="#000000" stroke-opacity="1" fill="none" stroke-linecap="round" stroke-width="8.00354004" points="710.673950,831.806702 759.958191,818.869629 809.242371,805.932556 858.526611,792.995483 907.810791,780.058350 957.094910,767.121216 1006.379028,754.184143 1055.663208,741.247070" />
				<polyline stroke="#000000" stroke-opacity="1" fill="none" stroke-linecap="round" stroke-width="8.00354004" points="788.296631,712.497925 818.893799,733.238403 849.491089,753.978760 880.088440,774.719238 910.685730,795.459656 941.282837,816.200073 971.880127,836.940552 1002.477356,857.680908" />
				<polyline stroke="#000000" stroke-opacity="1" fill="none" stroke-linecap="round" stroke-width="8.00354004" points="993.852661,856.243469 994.057983,826.262268 994.263489,796.281067 994.468689,766.299927 994.674133,736.318604 994.879395,706.337402 995.084839,676.356201 995.290161,646.375000" />
				<polyline stroke="#000000" stroke-opacity="1" fill="none" stroke-linecap="round" stroke-width="8.00354004" points="786.859192,713.935486 786.243042,686.418457 785.627075,658.901367 785.010925,631.384399 784.394897,603.867432 783.778809,576.350464 783.162781,548.833435 782.546692,521.316467" />
				<polyline stroke="#000000" stroke-opacity="1" fill="none" stroke-linecap="round" stroke-width="8.00354004" points="786.859131,522.753906 816.429688,540.003235 846.000122,557.252808 875.570740,574.502319 905.141113,591.751709 934.711670,609.001221 964.282043,626.250610 993.852661,643.500122" />
				<polyline stroke="#000000" stroke-opacity="1" fill="none" stroke-linecap="round" stroke-width="8.00341797" points="704.924133,834.681641 704.102661,804.905762 703.281311,775.129883 702.459961,745.354126 701.638489,715.578247 700.817078,685.802368 699.995728,656.026489 699.174377,626.250610" />
				<polyline stroke="#000000" stroke-opacity="1" fill="none" stroke-linecap="round" stroke-width="8.00354004" points="693.424500,630.562988 747.226440,618.652710 801.028442,606.742310 854.830261,594.831970 908.632080,582.921631 962.433960,571.011353 1016.235840,559.101074 1070.037842,547.190674" />
				<polyline stroke="#000000" stroke-opacity="1" fill="none" stroke-linecap="round" stroke-width="8.00354004" points="1059.975586,548.628052 1059.359619,575.323669 1058.743652,602.019165 1058.127441,628.714844 1057.511475,655.410461 1056.895386,682.106079 1056.279419,708.801636 1055.663208,735.497253" />
			</g>
			<!--Layer: Block_2-->
			<g id="Block_2">
				<polyline stroke="#000000" stroke-opacity="1" fill="none" stroke-linecap="round" stroke-width="8.00366211" points="773.922119,718.247803 770.151428,717.166870 767.261353,717.475342 753.308289,722.342163 721.239136,737.411255 709.884705,744.611206 694.341431,758.516235 687.370056,772.473267 685.712952,780.845093 687.916199,794.918213 694.679260,812.333740 697.738953,816.850098 710.619995,831.048584 719.261292,837.565125 729.915710,840.997437 750.565430,850.815552 767.676941,855.266785 779.566101,856.314758 788.123840,858.537964 798.256958,859.331299 809.139832,862.552795 829.683777,865.850098 844.205383,866.423035 863.306519,868.865845 891.769897,867.761353 908.862671,868.910461 930.112549,865.328003 957.883179,864.724670 984.151855,861.620850 1002.919250,857.475342 1015.960205,853.231384 1050.848633,835.915100 1064.821411,824.663696 1073.626221,813.603943 1081.221436,797.953125 1084.848999,786.290161 1085.657471,770.149048 1083.571655,763.670166 1077.331299,756.171631 1063.329346,745.442017 1058.654541,740.647705 1051.788086,736.546875 1003.001648,714.246887 988.515015,709.247437 962.369141,703.048462 951.056824,701.423584 936.508240,700.878967 919.450500,698.531006 874.587219,698.132446 850.264099,699.683350 828.379333,703.681702 802.364136,710.095093 779.382874,714.146851 759.466187,720.926941 739.922852,731.804932 717.861206,752.746826" />
			</g>
			<!--Layer: Block_3-->
			<g id="Block_3">
				<polyline stroke="#000000" stroke-opacity="1" fill="none" stroke-linecap="round" stroke-width="8.00366211" points="780.991943,521.241699 779.752869,520.186890 777.491821,520.090210 770.123962,521.345032 739.517151,531.178467 722.835266,538.720459 707.568054,547.039978 692.459961,557.724609 682.474854,569.470276 679.234863,576.945557 678.916260,579.730896 679.446777,588.992310 680.839355,595.694824 683.045166,600.646851 688.144897,607.236084 701.041565,617.620117 705.309570,622.069458 732.495483,633.298828 754.643860,638.828125 764.105103,642.328979 782.072693,645.764038 835.927368,650.494080 855.022583,651.339600 879.882324,650.615540 897.511047,647.579956 931.658569,646.632568 954.826233,644.664062 988.992249,637.959656 1003.428406,633.033569 1012.105286,633.849976 1017.546875,632.667053 1031.017578,624.636841 1046.279907,617.209351 1068.115967,603.267639 1070.576416,599.686523 1073.958496,589.921875 1078.026367,584.475098 1079.283081,580.605957 1079.439331,576.184875 1076.985352,568.207581 1072.831909,560.708191 1061.134399,548.786560 1052.710449,542.777832 1030.788330,530.849304 1022.746094,528.007996 963.690063,512.842468 926.540649,508.807617 909.789001,508.633789 891.240662,509.999207 879.407898,511.757324 841.480164,512.678833 822.475220,515.076294 809.618469,515.333923 791.636414,517.266663 766.241943,521.982300 742.901550,529.269470 739.497681,530.848145 735.267334,534.328552 732.534424,534.517761" />
			</g>
			<!--Layer: Block_4-->
			<g id="Block_4">
				<polyline stroke="#000000" stroke-opacity="1" fill="none" stroke-linecap="round" stroke-width="8.00354004" points="599.892456,589.414795 597.637817,535.945129 595.382996,482.475647 593.128418,429.006042 590.873596,375.536621 588.618958,322.066895 586.364136,268.597412 584.109436,215.127563" />
				<polyline stroke="#000000" stroke-opacity="1" fill="none" stroke-linecap="round" stroke-width="8.00354004" points="796.055054,706.661377 794.444641,647.071777 792.833923,587.482239 791.223511,527.892639 789.612732,468.303101 788.002258,408.713318 786.391602,349.124084 784.781311,289.534241" />
				<polyline stroke="#000000" stroke-opacity="1" fill="none" stroke-linecap="round" stroke-width="8.00354004" points="577.345276,212.872925 607.945251,225.757324 638.545349,238.641479 669.145447,251.525940 699.745117,264.409729 730.345459,277.294250 760.945557,290.178650 791.545593,303.062866" />
				<polyline stroke="#000000" stroke-opacity="1" fill="none" stroke-linecap="round" stroke-width="8.00341797" points="1177.106079,605.197998 1177.750122,550.762207 1178.394653,496.326294 1179.038940,441.890381 1179.682983,387.454468 1180.327148,333.018616 1180.971680,278.582581 1181.615601,224.146973" />
				<polyline stroke="#000000" stroke-opacity="1" fill="none" stroke-linecap="round" stroke-width="8.00354004" points="780.271790,303.062683 840.183594,293.721558 900.095215,284.380432 960.006836,275.039490 1019.918640,265.698425 1079.830322,256.357300 1139.741821,247.016541 1199.653442,237.675232" />
				<polyline stroke="#000000" stroke-opacity="1" fill="none" stroke-linecap="round" stroke-width="8.00354004" points="940.358398,492.460938 940.358398,445.111389 940.358398,397.761902 940.358398,350.412354 940.358398,303.062744 940.358398,255.713196 940.358398,208.363464 940.358398,161.014038" />
				<polyline stroke="#000000" stroke-opacity="1" fill="none" stroke-linecap="round" stroke-width="8.00354004" points="575.090515,221.892212 627.915771,214.805664 680.741211,207.719116 733.566650,200.632996 786.391846,193.546753 839.217285,186.460449 892.042542,179.374084 944.867859,172.287720" />
				<polyline stroke="#000000" stroke-opacity="1" fill="none" stroke-linecap="round" stroke-width="8.00366211" points="935.848877,167.778198 971.280579,178.407654 1006.712158,189.037170 1042.143799,199.666931 1077.575562,210.296204 1113.007446,220.925720 1148.438721,231.555481 1183.870239,242.184814" />
			</g>
			<!--Layer: Block_5-->
			<g id="Block_5">
				<polyline stroke="#000000" stroke-opacity="1" fill="none" stroke-linecap="round" stroke-width="8.00366211" points="694.591492,648.038086 693.625366,592.957886 692.659119,537.877747 691.692871,482.797729 690.726501,427.717651 689.760193,372.637512 688.793884,317.557617 687.827454,262.477356" />
				<polyline stroke="#000000" stroke-opacity="1" fill="none" stroke-linecap="round" stroke-width="8.00341797" points="588.618835,555.593628 601.825134,513.397766 615.031616,471.201782 628.237732,429.006042 641.444336,386.810181 654.650513,344.614441 667.856995,302.418518 681.063110,260.222595" />
				<polyline stroke="#000000" stroke-opacity="1" fill="none" stroke-linecap="round" stroke-width="8.00341797" points="685.572754,260.222595 700.711914,320.778259 715.850708,381.334290 730.989685,441.890503 746.128662,502.446472 761.267517,563.002197 776.406799,623.557983 791.545593,684.113953" />
				<polyline stroke="#000000" stroke-opacity="1" fill="none" stroke-linecap="round" stroke-width="8.00354004" points="676.553772,257.967896 732.278076,250.237427 788.002380,242.506653 843.726685,234.776489 899.451111,227.045715 955.175232,219.315369 1010.899414,211.584595 1066.623901,203.854187" />
				<polyline stroke="#000000" stroke-opacity="1" fill="none" stroke-linecap="round" stroke-width="8.00354004" points="1062.114380,208.363586 1061.148071,256.357361 1060.181641,304.351074 1059.215454,352.344849 1058.248901,400.338745 1057.282959,448.332458 1056.316406,496.326233 1055.350098,544.320129" />
				<polyline stroke="#000000" stroke-opacity="1" fill="none" stroke-linecap="round" stroke-width="8.00341797" points="935.848877,481.187256 953.564880,442.212402 971.280579,403.237549 988.996216,364.262695 1006.712036,325.288147 1024.427979,286.313171 1042.143799,247.338501 1059.859619,208.363708" />
				<polyline stroke="#000000" stroke-opacity="1" fill="none" stroke-linecap="round" stroke-width="8.00354004" points="1064.369019,208.363525 1080.152466,264.732361 1095.935303,321.100586 1111.718872,377.469177 1127.502075,433.837708 1143.285156,490.206238 1159.068359,546.574951 1174.851562,602.943420" />
			</g>
		</g>
	</g>
</svg>
