<?xml version="1.0" encoding="UTF-8"?>
<!-- Generator: Blender, SVG Export for Grease Pencil - v1.0 -->
<!DOCTYPE svg PUBLIC "-//W3C//DTD SVG 1.1//EN" "http://www.w3.org/Graphics/SVG/1.1/DTD/svg11.dtd">
<svg version="1.0" x="0px" y="0px" xmlns="http://www.w3.org/2000/svg" width="1920px" height="1080px" viewBox="0 0 1920 1080">
	<g id="blender_frame_1">
		<g id="blender_object_GPencil">
			<!--Layer: Block_0-->
			<g id="Block_0">
				<polyline stroke="#000000" stroke-opacity="1" fill="none" stroke-linecap="round" stroke-width="8.00366211" points="760.984009,558.690308 795.893799,579.225342 830.803406,599.760376 865.713074,620.295532 900.622681,640.830566 935.532349,661.365723 970.442017,681.900818 1005.351807,702.435791" />
				<polyline stroke="#000000" stroke-opacity="1" fill="none" stroke-linecap="round" stroke-width="8.00341797" points="978.040039,698.123413 1061.823242,677.382996 1145.606323,656.642578 1229.389526,635.902161 1313.172729,615.161621 1396.955933,594.421143 1480.739258,573.680725 1564.522339,552.940369" />
				<polyline stroke="#000000" stroke-opacity="1" fill="none" stroke-linecap="round" stroke-width="8.00366211" points="755.234253,563.002625 834.499695,546.779968 913.765320,530.557190 993.030762,514.334473 1072.296021,498.111816 1151.561523,481.889038 1230.827026,465.666382 1310.092529,449.443542" />
				<polyline stroke="#000000" stroke-opacity="1" fill="none" stroke-linecap="round" stroke-width="8.00366211" points="1285.655762,448.006104 1326.725952,464.023499 1367.796143,480.040833 1408.866333,496.058289 1449.936523,512.075623 1491.006836,528.093018 1532.076904,544.110229 1573.146973,560.127686" />
				<polyline stroke="#000000" stroke-opacity="1" fill="none" stroke-linecap="round" stroke-width="8.00354004" points="766.733887,567.314941 766.528564,551.297607 766.323120,535.280212 766.117859,519.262817 765.912415,503.245605 765.707092,487.228149 765.501831,471.210754 765.296448,455.193481" />
				<polyline stroke="#000000" stroke-opacity="1" fill="none" stroke-linecap="round" stroke-width="8.00366211" points="745.172058,472.442993 827.517822,456.836121 909.863403,441.229736 992.209290,425.622925 1074.555054,410.016357 1156.900757,394.409607 1239.246338,378.802979 1321.592041,363.196411" />
				<polyline stroke="#000000" stroke-opacity="1" fill="none" stroke-linecap="round" stroke-width="8.00366211" points="1298.592896,459.505737 1299.208984,444.309814 1299.825073,429.113831 1300.441040,413.917908 1301.057129,398.721985 1301.672974,383.526062 1302.289062,368.330017 1302.905273,353.134155" />
				<polyline stroke="#000000" stroke-opacity="1" fill="none" stroke-linecap="round" stroke-width="8.00366211" points="1555.897461,573.064819 1557.540405,553.145752 1559.183228,533.226807 1560.826294,513.307739 1562.468750,493.388611 1564.111450,473.469604 1565.754395,453.550659 1567.397217,433.631592" />
				<polyline stroke="#000000" stroke-opacity="1" fill="none" stroke-linecap="round" stroke-width="8.00378418" points="1274.156128,354.571594 1318.511841,369.972717 1362.867676,385.374207 1407.223389,400.775513 1451.579346,416.176697 1495.935059,431.578064 1540.290894,446.979431 1584.646729,462.380737" />
				<polyline stroke="#000000" stroke-opacity="1" fill="none" stroke-linecap="round" stroke-width="8.00354004" points="995.289551,699.560913 995.084167,678.204468 994.878845,656.847900 994.673401,635.491455 994.468018,614.135010 994.262817,592.778442 994.057495,571.421997 993.852051,550.065491" />
				<polyline stroke="#000000" stroke-opacity="1" fill="none" stroke-linecap="round" stroke-width="8.00366211" points="1586.084229,449.443542 1498.810059,469.157227 1411.535767,488.871033 1324.261719,508.584656 1236.987549,528.298279 1149.713379,548.011902 1062.439209,567.725708 975.165161,587.439331" />
				<polyline stroke="#000000" stroke-opacity="1" fill="none" stroke-linecap="round" stroke-width="8.00366211" points="755.234314,459.505798 791.786743,478.603333 828.339233,497.701050 864.891602,516.798767 901.444214,535.896362 937.996643,554.993896 974.549072,574.091614 1011.101562,593.189209" />
			</g>
			<!--Layer: Block_1-->
			<g id="Block_1">
				<polyline stroke="#000000" stroke-opacity="1" fill="none" stroke-linecap="round" stroke-width="8.00366211" points="864.481323,524.191467 947.648438,507.147278 1030.815552,490.103333 1113.982422,473.059204 1197.149536,456.015076 1280.316406,438.971008 1363.483521,421.926880 1446.650635,404.882812" />
				<polyline stroke="#000000" stroke-opacity="1" fill="none" stroke-linecap="round" stroke-width="8.00378418" points="1011.101746,416.382507 1047.448730,431.578369 1083.795776,446.774292 1120.143066,461.970337 1156.490234,477.166199 1192.837158,492.362244 1229.184204,507.558105 1265.531250,522.754089" />
			</g>
			<!--Layer: Block_2-->
			<g id="Block_2">
				<polyline stroke="#000000" stroke-opacity="1" fill="none" stroke-linecap="round" stroke-width="8.00390625" points="1068.599976,466.693359 1070.348999,473.294312 1071.952271,476.169495 1078.613403,483.235718 1085.557495,488.222595 1095.436279,491.546753 1118.623169,496.414307 1144.877075,498.190369 1153.253418,498.147461 1176.520630,495.588318 1185.497559,493.784546 1198.514038,488.484741 1204.118164,485.169556 1206.809448,481.339966 1208.687866,476.739258 1209.075562,470.956970 1207.299805,464.495972 1204.485352,458.758789 1199.680664,454.952637 1193.962402,452.048828 1177.992554,450.769775 1169.399658,448.581970 1153.770874,446.961182 1114.764038,445.309998 1098.447510,448.352783 1082.191650,455.813782 1072.232666,463.104553 1068.600098,476.755493" />
			</g>
			<!--Layer: Block_3-->
			<g id="Block_3">
				<polyline stroke="#000000" stroke-opacity="1" fill="none" stroke-linecap="round" stroke-width="8.00366211" points="1140.472656,462.381104 1140.062012,479.219727 1139.651245,496.058533 1139.240601,512.897217 1138.829834,529.735962 1138.419067,546.574768 1138.008545,563.413452 1137.597778,580.252197" />
				<polyline stroke="#000000" stroke-opacity="1" fill="none" stroke-linecap="round" stroke-width="8.00378418" points="1013.976746,512.691895 1049.707886,529.735901 1085.438721,546.780029 1121.169678,563.824219 1156.900757,580.868408 1192.631836,597.912354 1228.362671,614.956543 1264.093750,632.000732" />
				<polyline stroke="#000000" stroke-opacity="1" fill="none" stroke-linecap="round" stroke-width="8.00378418" points="1114.598511,598.939148 1123.652710,597.919983 1135.884766,599.944702 1150.384277,600.203613 1173.488525,597.481567 1186.780273,594.451660 1201.767456,587.623474 1207.067505,583.285889 1210.056152,577.361206 1210.482422,571.587708 1209.678467,568.361877 1205.073608,562.376343 1201.159546,559.840820 1195.416626,556.965332 1182.567871,552.566162 1159.447021,547.656616 1144.790771,547.073914 1131.193604,545.165405 1094.031738,550.307983 1075.000488,559.306763 1069.765747,564.846436 1068.232666,571.027893 1070.695312,578.293701 1073.169434,582.163818 1081.102051,587.125122 1101.215820,597.193909 1109.656982,599.533752 1137.597778,600.376587" />
			</g>
			<!--Layer: Block_4-->
			<g id="Block_4">
				<polyline stroke="#000000" stroke-opacity="1" fill="none" stroke-linecap="round" stroke-width="8.00378418" points="993.203796,602.286926 992.655151,529.303528 992.106262,456.320251 991.557739,383.336670 991.008911,310.353394 990.460083,237.369934 989.911438,164.386536 989.362671,91.403137" />
				<polyline stroke="#000000" stroke-opacity="1" fill="none" stroke-linecap="round" stroke-width="8.00341797" points="765.290894,488.330444 763.278809,423.395264 761.266785,358.460327 759.254578,293.525146 757.242493,228.590027 755.230347,163.655029 753.218445,98.719666 751.206421,33.784790" />
				<polyline stroke="#000000" stroke-opacity="1" fill="none" stroke-linecap="round" stroke-width="8.00341797" points="737.121765,36.345459 774.802368,46.588989 812.483154,56.831970 850.163696,67.075439 887.844360,77.318604 925.525085,87.561951 963.205627,97.805237 1000.886292,108.048462" />
				<polyline stroke="#000000" stroke-opacity="1" fill="none" stroke-linecap="round" stroke-width="8.00366211" points="984.240845,105.487671 996.862305,103.841431 1009.483337,102.195251 1022.104431,100.548828 1034.725708,98.902832 1047.347046,97.256470 1059.968140,95.610291 1072.589355,93.963928" />
				<polyline stroke="#000000" stroke-opacity="1" fill="none" stroke-linecap="round" stroke-width="8.00354004" points="1072.589355,99.085815 1032.896606,89.025208 993.203796,78.964905 953.511169,68.904541 913.818420,58.844116 874.125732,48.783569 834.433044,38.723511 794.740356,28.663086" />
				<polyline stroke="#000000" stroke-opacity="1" fill="none" stroke-linecap="round" stroke-width="8.00366211" points="742.243469,42.747559 756.693848,41.649902 771.144226,40.552734 785.594360,39.455200 800.044800,38.357666 814.495178,37.260010 828.945435,36.162720 843.395752,35.065186" />
				<polyline stroke="#000000" stroke-opacity="1" fill="none" stroke-linecap="round" stroke-width="8.00366211" points="819.067993,28.662964 819.616699,90.122986 820.165527,151.582336 820.714233,213.042114 821.263062,274.501892 821.811768,335.961609 822.360535,397.421265 822.909363,458.880920" />
				<polyline stroke="#000000" stroke-opacity="1" fill="none" stroke-linecap="round" stroke-width="8.00366211" points="819.067993,453.759399 853.639099,470.221680 888.210144,486.684204 922.781250,503.146606 957.352417,519.608948 991.923523,536.071472 1026.494507,552.533875 1061.065552,568.996216" />
				<polyline stroke="#000000" stroke-opacity="1" fill="none" stroke-linecap="round" stroke-width="8.00366211" points="1062.296143,86.316772 1061.418091,156.117310 1060.540283,225.918152 1059.662231,295.718689 1058.784180,365.519348 1057.906128,435.320007 1057.028320,505.120605 1056.150269,574.921204" />
			</g>
			<!--Layer: Block_5-->
			<g id="Block_5">
				<polyline stroke="#000000" stroke-opacity="1" fill="none" stroke-linecap="round" stroke-width="8.00366211" points="731.950806,104.754456 771.241028,116.827026 810.531372,128.899475 849.821533,140.971741 889.111755,153.044312 928.402100,165.116699 967.692383,177.189026 1006.982544,189.261719" />
				<polyline stroke="#000000" stroke-opacity="1" fill="none" stroke-linecap="round" stroke-width="8.00366211" points="874.844482,69.414978 875.722351,135.264893 876.600464,201.114563 877.478394,266.964233 878.356384,332.813904 879.234253,398.663696 880.112427,464.513367 880.990295,530.363037" />
				<polyline stroke="#000000" stroke-opacity="1" fill="none" stroke-linecap="round" stroke-width="8.00366211" points="830.286194,101.681702 830.505554,114.192993 830.725342,126.704651 830.944641,139.216003 831.164124,151.727356 831.383728,164.238892 831.603149,176.750427 831.822693,189.261719" />
				<polyline stroke="#000000" stroke-opacity="1" fill="none" stroke-linecap="round" stroke-width="8.00341797" points="833.359192,186.188721 846.309509,190.798035 859.260071,195.407654 872.210327,200.017212 885.160950,204.626648 898.111206,209.236145 911.061646,213.845459 924.012024,218.455017" />
				<polyline stroke="#000000" stroke-opacity="1" fill="none" stroke-linecap="round" stroke-width="8.00366211" points="830.286255,106.291199 844.992737,110.461487 859.699097,114.632019 874.405334,118.802551 889.111694,122.972961 903.818237,127.143555 918.524414,131.313843 933.231018,135.484497" />
				<polyline stroke="#000000" stroke-opacity="1" fill="none" stroke-linecap="round" stroke-width="8.00354004" points="920.939148,129.338257 921.158630,142.508484 921.378052,155.678406 921.597656,168.848206 921.816956,182.018188 922.036560,195.188232 922.256042,208.358215 922.475525,221.527893" />
			</g>
			<!--Layer: Block_6-->
			<g id="Block_6">
				<polyline stroke="#000000" stroke-opacity="1" fill="none" stroke-linecap="round" stroke-width="8.00354004" points="936.303955,507.315613 935.865051,444.319397 935.425964,381.323242 934.986938,318.327148 934.548035,255.330811 934.109009,192.334595 933.669922,129.338501 933.230957,66.342285" />
				<polyline stroke="#000000" stroke-opacity="1" fill="none" stroke-linecap="round" stroke-width="8.00341797" points="874.844482,70.951721 884.063171,70.073608 893.282288,69.195740 902.501343,68.317688 911.720093,67.439819 920.939148,66.561768 930.157959,65.683777 939.377014,64.805969" />
				<polyline stroke="#000000" stroke-opacity="1" fill="none" stroke-linecap="round" stroke-width="8.0032959" points="924.012024,130.874939 929.280090,129.996948 934.547974,129.118835 939.816101,128.240845 945.083862,127.363037 950.351807,126.484985 955.619690,125.606934 960.887817,124.729065" />
				<polyline stroke="#000000" stroke-opacity="1" fill="none" stroke-linecap="round" stroke-width="8.00341797" points="925.548523,215.382080 930.377502,214.503845 935.206482,213.625916 940.035522,212.748047 944.864380,211.870117 949.693359,210.992188 954.522461,210.114014 959.351257,209.236145" />
				<polyline stroke="#000000" stroke-opacity="1" fill="none" stroke-linecap="round" stroke-width="8.00341797" points="960.887817,124.729065 961.107422,136.581909 961.326721,148.434937 961.546448,160.287903 961.765808,172.140625 961.985352,183.993652 962.204956,195.846680 962.424316,207.699524" />
				<polyline stroke="#000000" stroke-opacity="1" fill="none" stroke-linecap="round" stroke-width="8.0032959" points="833.359253,184.652161 839.944092,183.335144 846.529053,182.018188 853.114136,180.701111 859.698975,179.384094 866.284119,178.067200 872.868896,176.750122 879.453857,175.433105" />
				<polyline stroke="#000000" stroke-opacity="1" fill="none" stroke-linecap="round" stroke-width="8.00366211" points="879.453857,173.896667 892.184814,178.286682 904.915710,182.676697 917.646606,187.066956 930.377502,191.456787 943.108459,195.846558 955.839355,200.236755 968.570251,204.626526" />
				<polyline stroke="#000000" stroke-opacity="1" fill="none" stroke-linecap="round" stroke-width="8.00390625" points="827.213318,103.218140 833.578735,102.339966 839.944092,101.462158 846.309448,100.584045 852.675049,99.706116 859.040466,98.828003 865.405945,97.950134 871.771484,97.072205" />
				<polyline stroke="#000000" stroke-opacity="1" fill="none" stroke-linecap="round" stroke-width="8.00378418" points="868.698486,97.072205 881.868408,100.803772 895.038330,104.535095 908.208130,108.266418 921.378052,111.998047 934.547974,115.729370 947.717834,119.460999 960.887695,123.192566" />
			</g>
		</g>
	</g>
</svg>
