<?xml version="1.0" encoding="UTF-8"?>
<!-- Generator: Blender, SVG Export for Grease Pencil - v1.0 -->
<!DOCTYPE svg PUBLIC "-//W3C//DTD SVG 1.1//EN" "http://www.w3.org/Graphics/SVG/1.1/DTD/svg11.dtd">
<svg version="1.0" x="0px" y="0px" xmlns="http://www.w3.org/2000/svg" width="1920px" height="1080px" viewBox="0 0 1920 1080">
	<g id="blender_frame_1">
		<g id="blender_object_GPencil">
			<!--Layer: Block_0-->
			<g id="Block_0">
				<polyline stroke="#000000" stroke-opacity="1" fill="none" stroke-linecap="round" stroke-width="8.00354004" points="525.241211,509.816772 574.114746,541.440796 622.988159,573.064819 671.861755,604.688843 720.735229,636.312805 769.608765,667.936890 818.482239,699.560913 867.355835,731.184937" />
				<polyline stroke="#000000" stroke-opacity="1" fill="none" stroke-linecap="round" stroke-width="8.00354004" points="850.106262,729.747498 923.005981,711.265869 995.905701,692.784302 1068.805176,674.302734 1141.704712,655.821167 1214.604370,637.339600 1287.503906,618.858032 1360.403442,600.376465" />
				<polyline stroke="#000000" stroke-opacity="1" fill="none" stroke-linecap="round" stroke-width="8.00354004" points="520.928711,519.878967 585.614441,507.147217 650.299805,494.415466 714.985535,481.683716 779.670959,468.952026 844.356506,456.220154 909.042175,443.488525 973.727661,430.756653" />
				<polyline stroke="#000000" stroke-opacity="1" fill="none" stroke-linecap="round" stroke-width="8.00366211" points="959.353149,427.881775 1016.235229,453.345215 1073.117554,478.808655 1129.999756,504.272278 1186.881958,529.735779 1243.764282,555.199219 1300.646484,580.662720 1357.528564,606.126282" />
				<polyline stroke="#000000" stroke-opacity="1" fill="none" stroke-linecap="round" stroke-width="8.00378418" points="512.304199,61.330627 515.384338,127.248047 518.464478,193.165771 521.544739,259.083374 524.625000,325.001099 527.705383,390.918579 530.785645,456.836304 533.865845,522.753906" />
				<polyline stroke="#000000" stroke-opacity="1" fill="none" stroke-linecap="round" stroke-width="8.00366211" points="973.727661,28.269287 973.111694,86.588806 972.495667,144.908142 971.879517,203.227966 971.263489,261.547729 970.647461,319.867371 970.031311,378.186829 969.415283,436.506531" />
				<polyline stroke="#000000" stroke-opacity="1" fill="none" stroke-linecap="round" stroke-width="8.00378418" points="503.679321,69.955383 571.855835,64.000061 640.032349,58.044922 708.209045,52.089722 776.385376,46.134766 844.561829,40.179321 912.738586,34.224243 980.914856,28.269287" />
				<polyline stroke="#000000" stroke-opacity="1" fill="none" stroke-linecap="round" stroke-width="8.00366211" points="861.605957,742.684570 861.605957,658.901428 861.605957,575.118286 861.605957,491.335083 861.605957,407.552002 861.605957,323.768921 861.605957,239.985718 861.605957,156.202698" />
				<polyline stroke="#000000" stroke-opacity="1" fill="none" stroke-linecap="round" stroke-width="8.00366211" points="512.304199,67.080322 563.436584,83.713745 614.569031,100.347290 665.701355,116.980591 716.833618,133.613892 767.966003,150.247375 819.098511,166.880859 870.230713,183.514343" />
				<polyline stroke="#000000" stroke-opacity="1" fill="none" stroke-linecap="round" stroke-width="8.00366211" points="1351.778809,613.313599 1355.269775,540.619324 1358.760742,467.925049 1362.251587,395.230896 1365.742554,322.536865 1369.233521,249.842590 1372.724609,177.148499 1376.215576,104.454285" />
				<polyline stroke="#000000" stroke-opacity="1" fill="none" stroke-linecap="round" stroke-width="8.00354004" points="850.106323,180.639465 926.291626,170.782532 1002.476685,160.925598 1078.662109,151.068909 1154.847290,141.212097 1231.032471,131.355225 1307.217529,121.498413 1383.402954,111.641357" />
				<polyline stroke="#000000" stroke-opacity="1" fill="none" stroke-linecap="round" stroke-width="8.00366211" points="965.102905,28.269165 1024.654785,41.411621 1084.206543,54.553955 1143.758301,67.696472 1203.310059,80.838867 1262.861816,93.981567 1322.413574,107.123718 1381.965332,120.266296" />
			</g>
			<!--Layer: Block_1-->
			<g id="Block_1">
				<polyline stroke="#000000" stroke-opacity="1" fill="none" stroke-linecap="round" stroke-width="8.00354004" points="827.106689,713.935364 900.006165,695.453857 972.905945,676.972290 1045.805542,658.490601 1118.705200,640.009033 1191.604736,621.527344 1264.504272,603.045837 1337.404053,584.564209" />
				<polyline stroke="#000000" stroke-opacity="1" fill="none" stroke-linecap="round" stroke-width="8.00354004" points="548.239685,494.004578 600.193542,527.271423 652.147400,560.538208 704.101440,593.805115 756.055115,627.071838 808.008911,660.338745 859.962708,693.605713 911.916565,726.872498" />
				<polyline stroke="#000000" stroke-opacity="1" fill="none" stroke-linecap="round" stroke-width="8.00354004" points="901.854370,429.318848 963.048950,457.041260 1024.243530,484.763733 1085.438232,512.486145 1146.633057,540.208435 1207.827637,567.930847 1269.022095,595.653137 1330.216797,623.375610" />
				<polyline stroke="#000000" stroke-opacity="1" fill="none" stroke-linecap="round" stroke-width="8.00354004" points="555.427124,548.627930 628.942810,533.637390 702.458618,518.646729 775.974182,503.656006 849.489807,488.665405 923.005676,473.674805 996.521057,458.684143 1070.036987,443.693481" />
				<polyline stroke="#000000" stroke-opacity="1" fill="none" stroke-linecap="round" stroke-width="8.00354004" points="1278.468262,644.937378 1281.548706,564.029053 1284.628784,483.120850 1287.708984,402.212524 1290.789429,321.304260 1293.869751,240.395996 1296.949829,159.487671 1300.030029,78.579651" />
				<polyline stroke="#000000" stroke-opacity="1" fill="none" stroke-linecap="round" stroke-width="8.00354004" points="875.980225,752.746765 876.185608,664.651123 876.390869,576.555664 876.596252,488.460022 876.801575,400.364441 877.007019,312.268921 877.212341,224.173340 877.417725,136.077759" />
				<polyline stroke="#000000" stroke-opacity="1" fill="none" stroke-linecap="round" stroke-width="8.00341797" points="620.112793,604.688599 617.032532,523.575073 613.952148,442.461487 610.872070,361.347839 607.791809,280.234131 604.711548,199.120422 601.631104,118.006958 598.550781,36.893188" />
				<polyline stroke="#000000" stroke-opacity="1" fill="none" stroke-linecap="round" stroke-width="8.00366211" points="979.477173,494.004456 980.298401,419.872803 981.119934,345.741028 981.941284,271.609436 982.762878,197.477661 983.583984,123.346008 984.405579,49.214233 985.226990,-24.917480" />
				<polyline stroke="#000000" stroke-opacity="1" fill="none" stroke-linecap="round" stroke-width="8.00366211" points="808.419678,167.701965 884.194275,157.844971 959.968689,147.988159 1035.743530,138.131287 1111.517822,128.274475 1187.292480,118.417664 1263.067017,108.560791 1338.841431,98.704041" />
				<polyline stroke="#000000" stroke-opacity="1" fill="none" stroke-linecap="round" stroke-width="8.00390625" points="949.290588,184.951416 889.738708,166.264404 830.186890,147.577515 770.635071,128.890503 711.083313,110.203613 651.531311,91.516663 591.979736,72.829834 532.427612,54.142822" />
				<polyline stroke="#000000" stroke-opacity="1" fill="none" stroke-linecap="round" stroke-width="8.00341797" points="535.302856,81.454468 613.746765,74.267029 692.190979,67.079773 770.635071,59.892517 849.079163,52.705444 927.523193,45.517944 1005.967346,38.330688 1084.411499,31.143555" />
				<polyline stroke="#000000" stroke-opacity="1" fill="none" stroke-linecap="round" stroke-width="8.00390625" points="880.292664,19.643799 953.808228,36.071899 1027.324097,52.499878 1100.839722,68.927979 1174.355225,85.356079 1247.870972,101.784119 1321.386719,118.212219 1394.902344,134.640320" />
			</g>
			<!--Layer: Block_2-->
			<g id="Block_2">
				<polyline stroke="#000000" stroke-opacity="1" fill="none" stroke-linecap="round" stroke-width="8.00366211" points="815.606934,25.393921 804.928772,43.464478 794.250610,61.535339 783.572205,79.606262 772.893799,97.677185 762.215759,115.747986 751.537537,133.818848 740.859131,151.889832" />
				<polyline stroke="#000000" stroke-opacity="1" fill="none" stroke-linecap="round" stroke-width="8.00390625" points="1094.473755,169.139221 1101.866333,150.041626 1109.259033,130.943848 1116.651611,111.846191 1124.044312,92.748657 1131.436890,73.650818 1138.829468,54.553467 1146.222168,35.455933" />
				<polyline stroke="#000000" stroke-opacity="1" fill="none" stroke-linecap="round" stroke-width="8.00366211" points="742.296509,121.703247 796.509277,122.729980 850.722168,123.756714 904.934814,124.783386 959.147461,125.810242 1013.360046,126.836975 1067.572754,127.863708 1121.785400,128.890381" />
				<polyline stroke="#000000" stroke-opacity="1" fill="none" stroke-linecap="round" stroke-width="8.00366211" points="783.982910,52.705322 837.579590,56.401550 891.176025,60.097900 944.772888,63.794312 998.369385,67.490417 1051.965942,71.186890 1105.562622,74.883179 1159.159180,78.579651" />
				<polyline stroke="#000000" stroke-opacity="1" fill="none" stroke-linecap="round" stroke-width="8.00354004" points="1108.848389,126.015564 1108.642944,200.147400 1108.437500,274.278809 1108.232178,348.410706 1108.026855,422.542358 1107.821533,496.674072 1107.616211,570.805725 1107.410889,644.937378" />
				<polyline stroke="#000000" stroke-opacity="1" fill="none" stroke-linecap="round" stroke-width="8.00341797" points="759.546143,124.578186 760.778259,198.093933 762.010376,271.609314 763.242432,345.125122 764.474731,418.640747 765.706604,492.156311 766.938782,565.672058 768.170898,639.187683" />
				<polyline stroke="#000000" stroke-opacity="1" fill="none" stroke-linecap="round" stroke-width="8.00341797" points="796.919922,51.267822 798.357483,116.774902 799.794922,182.281738 801.232483,247.788757 802.669800,313.295837 804.107361,378.802612 805.544739,444.309570 806.982300,509.816589" />
				<polyline stroke="#000000" stroke-opacity="1" fill="none" stroke-linecap="round" stroke-width="8.00341797" points="1133.285034,77.141846 1132.463867,142.238342 1131.642090,207.334534 1130.820923,272.430908 1129.999512,337.527039 1129.177856,402.623352 1128.356689,467.719604 1127.535156,532.815796" />
				<polyline stroke="#000000" stroke-opacity="1" fill="none" stroke-linecap="round" stroke-width="8.00366211" points="760.983704,637.750244 811.089172,639.598389 861.194946,641.446533 911.300598,643.294678 961.406250,645.142822 1011.511902,646.990967 1061.617432,648.839172 1111.723267,650.687256" />
				<polyline stroke="#000000" stroke-opacity="1" fill="none" stroke-linecap="round" stroke-width="8.00354004" points="762.420959,637.750244 768.376404,617.215088 774.331482,596.680054 780.286560,576.144836 786.241638,555.609741 792.196960,535.074707 798.152039,514.539612 804.107300,494.004456" />
				<polyline stroke="#000000" stroke-opacity="1" fill="none" stroke-linecap="round" stroke-width="8.00354004" points="789.732727,496.879333 838.195557,501.602417 886.658264,506.325623 935.121399,511.048645 983.584106,515.771667 1032.046997,520.494873 1080.509766,525.217834 1128.972534,529.940796" />
				<polyline stroke="#000000" stroke-opacity="1" fill="none" stroke-linecap="round" stroke-width="8.00354004" points="1130.410034,529.940796 1127.535156,546.984985 1124.660400,564.029175 1121.785400,581.073242 1118.910645,598.117432 1116.035645,615.161560 1113.160645,632.205688 1110.285645,649.249756" />
			</g>
		</g>
	</g>
</svg>
