<?xml version="1.0" encoding="UTF-8"?>
<!-- Generator: Blender, SVG Export for Grease Pencil - v1.0 -->
<!DOCTYPE svg PUBLIC "-//W3C//DTD SVG 1.1//EN" "http://www.w3.org/Graphics/SVG/1.1/DTD/svg11.dtd">
<svg version="1.0" x="0px" y="0px" xmlns="http://www.w3.org/2000/svg" width="1920px" height="1080px" viewBox="0 0 1920 1080">
	<g id="blender_frame_1">
		<g id="blender_object_GPencil">
			<!--Layer: Block_0-->
			<g id="Block_0">
				<polyline stroke="#000000" stroke-opacity="1" fill="none" stroke-linecap="round" stroke-width="8.00366211" points="923.416626,709.623169 949.701721,702.846497 975.986450,696.069946 1002.271484,689.293396 1028.556274,682.516724 1054.841309,675.740234 1081.126099,668.963623 1107.411133,662.187073" />
				<polyline stroke="#000000" stroke-opacity="1" fill="none" stroke-linecap="round" stroke-width="8.00354004" points="923.416687,483.942566 923.622070,515.977295 923.827393,548.011902 924.032715,580.046753 924.238037,612.081482 924.443481,644.116211 924.648804,676.151001 924.854126,708.185669" />
				<polyline stroke="#000000" stroke-opacity="1" fill="none" stroke-linecap="round" stroke-width="8.00378418" points="1107.411133,450.881104 1106.589722,481.067688 1105.768433,511.254150 1104.947021,541.440735 1104.125610,571.627319 1103.304199,601.813965 1102.482666,632.000488 1101.661255,662.187073" />
				<polyline stroke="#000000" stroke-opacity="1" fill="none" stroke-linecap="round" stroke-width="8.00354004" points="921.979187,712.497986 866.739685,677.588379 811.500366,642.678711 756.260864,607.769165 701.021606,572.859497 645.782104,537.949768 590.542725,503.040100 535.303528,468.130554" />
				<polyline stroke="#000000" stroke-opacity="1" fill="none" stroke-linecap="round" stroke-width="8.00366211" points="1110.286011,657.874634 1051.760986,626.455994 993.236023,595.037354 934.710999,563.618713 876.185974,532.200012 817.660889,500.781250 759.135864,469.362610 700.610901,437.943970" />
				<polyline stroke="#000000" stroke-opacity="1" fill="none" stroke-linecap="round" stroke-width="8.00366211" points="529.553467,481.067688 557.686768,475.933838 585.819763,470.800049 613.952881,465.666260 642.085876,460.532532 670.218872,455.398865 698.351929,450.265015 726.485046,445.131226" />
				<polyline stroke="#000000" stroke-opacity="1" fill="none" stroke-linecap="round" stroke-width="8.00366211" points="553.990417,491.129944 552.552673,462.586060 551.115295,434.042297 549.677795,405.498657 548.240540,376.954712 546.803040,348.411072 545.365479,319.867310 543.928162,291.323608" />
				<polyline stroke="#000000" stroke-opacity="1" fill="none" stroke-linecap="round" stroke-width="8.00354004" points="717.860352,459.505737 717.038940,432.399475 716.217529,405.293213 715.396179,378.186890 714.574707,351.080505 713.753357,323.974304 712.932007,296.867920 712.110535,269.761597" />
				<polyline stroke="#000000" stroke-opacity="1" fill="none" stroke-linecap="round" stroke-width="8.00366211" points="919.104370,509.816772 946.621216,504.066956 974.138489,498.317078 1001.655457,492.567261 1029.172363,486.817383 1056.689331,481.067688 1084.206543,475.317810 1111.723511,469.567993" />
				<polyline stroke="#000000" stroke-opacity="1" fill="none" stroke-linecap="round" stroke-width="8.00354004" points="920.541870,509.816772 867.561279,482.505188 814.580750,455.193481 761.600159,427.881775 708.619690,400.570190 655.638977,373.258484 602.658447,345.946838 549.677917,318.635010" />
				<polyline stroke="#000000" stroke-opacity="1" fill="none" stroke-linecap="round" stroke-width="8.00366211" points="542.490662,315.760193 566.721985,312.269165 590.953491,308.778320 615.184814,305.287415 639.416382,301.796387 663.647705,298.305359 687.879150,294.814514 712.110535,291.323547" />
				<polyline stroke="#000000" stroke-opacity="1" fill="none" stroke-linecap="round" stroke-width="8.00341797" points="712.110474,292.760986 768.171326,317.813782 824.232178,342.866516 880.292908,367.919434 936.353760,392.972229 992.414673,418.025024 1048.475586,443.077698 1104.536255,468.130493" />
			</g>
			<!--Layer: Block_1-->
			<g id="Block_1">
				<polyline stroke="#000000" stroke-opacity="1" fill="none" stroke-linecap="round" stroke-width="8.00366211" points="1009.664062,494.004700 1010.922668,492.472290 1009.055908,492.157227 1002.032776,494.642700 985.734802,502.436646 972.938354,511.531921 962.830811,520.153259 947.090881,538.450439 934.457825,562.509766 927.383667,581.309814 925.363831,590.064575 925.165039,596.048950 926.679626,609.315125 930.806580,626.732361 935.366028,641.578430 936.692261,651.033081 938.588318,655.605652 942.469910,660.348633 962.175659,678.720825 971.962158,684.041504 980.674438,686.111023 1002.572571,687.930847 1021.395630,687.603149 1034.809814,683.773560 1056.597290,673.072632 1062.201660,669.033569 1066.787109,663.960815 1073.679565,655.122681 1079.249512,645.561646 1084.752808,638.126099 1095.603638,616.235352 1101.166504,594.891968 1103.015991,570.866821 1101.783569,557.155518 1097.144653,538.085815 1083.798096,510.319336 1074.379028,499.077637 1059.025146,490.677063 1041.971436,486.168945 1034.125366,485.690552 1009.354736,491.291504 978.542297,505.980957 968.259094,512.878174 957.915710,524.191345" />
			</g>
			<!--Layer: Block_2-->
			<g id="Block_2">
				<polyline stroke="#000000" stroke-opacity="1" fill="none" stroke-linecap="round" stroke-width="8.00378418" points="618.675842,305.698120 614.216309,306.212402 609.017395,308.469666 589.393005,318.786255 580.585388,327.230469 570.508057,340.073547 563.742920,352.796936 557.488953,377.056213 556.281006,386.666565 556.947510,397.695557 558.553833,406.770752 562.411743,416.900452 569.608521,431.627991 575.556274,438.623535 595.438171,453.241028 611.354370,458.886780 618.425964,460.440125 626.645325,460.838928 648.737305,459.412964 662.104248,457.290161 669.691223,453.182068 677.080811,447.520264 690.238586,434.793518 697.892761,424.042542 708.924316,402.051575 710.333984,393.997131 710.510376,374.872925 704.762329,351.188232 694.392456,327.887573 689.934998,319.293518 676.207153,303.580078 672.064026,301.228210 663.462585,299.039856 648.864868,298.689331 631.129761,301.608032 616.769043,306.903076 599.113525,315.565796 591.933044,321.660156 588.483459,328.505615 584.176819,343.071899" />
			</g>
			<!--Layer: Block_3-->
			<g id="Block_3">
				<polyline stroke="#000000" stroke-opacity="1" fill="none" stroke-linecap="round" stroke-width="8.00354004" points="626.615723,301.173645 684.391907,328.233521 742.168030,355.293213 799.944214,382.352722 857.720459,409.412537 915.496460,436.472351 973.272766,463.531921 1031.048828,490.591492" />
				<polyline stroke="#000000" stroke-opacity="1" fill="none" stroke-linecap="round" stroke-width="8.00378418" points="547.264954,387.350464 601.872009,417.701172 656.478882,448.051697 711.085938,478.402527 765.692932,508.753296 820.299927,539.104004 874.906921,569.454712 929.513916,599.805420" />
				<polyline stroke="#000000" stroke-opacity="1" fill="none" stroke-linecap="round" stroke-width="8.00354004" points="712.792358,372.845276 768.862000,400.270752 824.931763,427.696106 881.001465,455.121399 937.071106,482.546814 993.140808,509.972168 1049.210449,537.397583 1105.280273,564.822937" />
				<polyline stroke="#000000" stroke-opacity="1" fill="none" stroke-linecap="round" stroke-width="8.00354004" points="644.533569,460.728455 699.140625,492.054321 753.747559,523.380249 808.354553,554.705994 862.961670,586.031860 917.568542,617.357666 972.175598,648.683594 1026.782593,680.009399" />
			</g>
			<!--Layer: Block_4-->
			<g id="Block_4">
				<polyline stroke="#000000" stroke-opacity="1" fill="none" stroke-linecap="round" stroke-width="8.00354004" points="1025.929321,485.472229 1025.685669,513.750854 1025.441772,542.029297 1025.197876,570.307983 1024.954346,598.586609 1024.710449,626.865234 1024.466797,655.143799 1024.222900,683.422363" />
				<polyline stroke="#000000" stroke-opacity="1" fill="none" stroke-linecap="round" stroke-width="8.00341797" points="556.113525,393.072632 578.177368,389.947021 600.240906,386.821289 622.304504,383.695679 644.368286,380.569946 666.431702,377.444214 688.495239,374.318604 710.558838,371.192993" />
				<polyline stroke="#000000" stroke-opacity="1" fill="none" stroke-linecap="round" stroke-width="8.00378418" points="635.266907,304.910278 637.013489,327.157654 638.760254,349.405090 640.506958,371.652588 642.253723,393.900024 644.000366,416.147461 645.747192,438.394836 647.493591,460.642334" />
				<polyline stroke="#000000" stroke-opacity="1" fill="none" stroke-linecap="round" stroke-width="8.00341797" points="641.058411,382.132629 696.033813,410.263916 751.008789,438.394836 805.984009,466.526001 860.959106,494.656982 915.934265,522.788086 970.909424,550.919067 1025.884521,579.050232" />
			</g>
			<!--Layer: Block_5-->
			<g id="Block_5">
				<polyline stroke="#000000" stroke-opacity="1" fill="none" stroke-linecap="round" stroke-width="8.00341797" points="990.896545,526.103271 985.903137,529.035156 977.555664,539.779724 968.681702,556.118164 961.356812,574.443909 958.524963,585.360168 958.117737,590.359131 958.898682,603.892883 961.675171,616.250000 980.283142,651.991455 986.186462,658.639404 993.588623,662.239380 1002.632446,664.193787 1012.622314,665.126099 1031.547119,661.175415 1039.193237,656.156982 1058.274170,638.857422 1062.583008,632.719482 1071.748535,614.309143 1075.841797,589.532593 1076.223877,569.293335 1077.764160,557.097412 1076.871216,548.736084 1075.051636,545.072998 1068.335815,538.045044 1062.384521,529.457886 1054.213867,522.889404 1043.165527,517.390564 1023.249451,514.514160 1016.261353,515.297913 991.497009,524.846741 986.643677,529.882507 985.397522,534.351807" />
			</g>
			<!--Layer: Block_6-->
			<g id="Block_6">
				<polyline stroke="#000000" stroke-opacity="1" fill="none" stroke-linecap="round" stroke-width="8.00390625" points="607.797119,330.887695 602.468933,334.796570 592.666382,345.521545 584.384277,361.984985 579.098511,382.819763 578.584961,389.103943 584.094360,411.826355 585.734985,415.703918 595.260071,427.706055 603.160400,435.811096 617.848999,443.166992 629.604980,445.156738 634.835022,445.099365 652.682373,439.618042 664.202881,434.061218 670.657104,428.251526 676.990662,420.106445 682.421753,410.027283 688.138611,401.740723 690.737549,394.520081 692.070435,380.371094 690.369873,362.894043 682.127625,338.064575 679.897949,334.138062 674.070068,329.387146 658.431885,321.517700 652.861206,320.214417 640.897644,319.991211 621.569763,322.642212 616.443054,324.389282 604.544434,331.099304 599.637207,335.662048 598.631836,339.136108" />
			</g>
			<!--Layer: Block_7-->
			<g id="Block_7">
				<polyline stroke="#000000" stroke-opacity="1" fill="none" stroke-linecap="round" stroke-width="8.00366211" points="1096.844604,601.439941 1148.504150,589.561951 1200.163818,577.684021 1251.823242,565.806152 1303.482788,553.928223 1355.142334,542.050354 1406.801880,530.172424 1458.461426,518.294434" />
				<polyline stroke="#000000" stroke-opacity="1" fill="none" stroke-linecap="round" stroke-width="8.00366211" points="1102.123657,520.934082 1153.028931,509.810303 1203.934448,498.686462 1254.839722,487.562744 1305.745239,476.438904 1356.650635,465.315186 1407.555908,454.191406 1458.461426,443.067749" />
				<polyline stroke="#000000" stroke-opacity="1" fill="none" stroke-linecap="round" stroke-width="8.00378418" points="1458.461426,443.067749 1457.707275,454.002808 1456.953003,464.938049 1456.198975,475.873413 1455.444824,486.808594 1454.690674,497.743774 1453.936401,508.679077 1453.182251,519.614319" />
				<polyline stroke="#000000" stroke-opacity="1" fill="none" stroke-linecap="round" stroke-width="8.00390625" points="1457.141602,440.428223 1395.866577,418.369080 1334.591675,396.310059 1273.316406,374.251099 1212.041626,352.192261 1150.766479,330.133179 1089.491455,308.074219 1028.216675,286.015198" />
				<polyline stroke="#000000" stroke-opacity="1" fill="none" stroke-linecap="round" stroke-width="8.00378418" points="1032.175781,287.334961 1031.987183,296.384705 1031.798950,305.434570 1031.610229,314.484558 1031.421753,323.534363 1031.233154,332.584167 1031.044556,341.634033 1030.856079,350.683960" />
				<polyline stroke="#000000" stroke-opacity="1" fill="none" stroke-linecap="round" stroke-width="8.00390625" points="1033.495728,346.724548 1093.073853,370.291748 1152.651978,393.859070 1212.230103,417.426453 1271.808228,440.993774 1331.386597,464.561035 1390.964600,488.128418 1450.542847,511.695557" />
				<polyline stroke="#000000" stroke-opacity="1" fill="none" stroke-linecap="round" stroke-width="8.00366211" points="1102.123657,520.934082 1047.447388,495.104248 992.771423,469.274475 938.095032,443.444702 883.418945,417.614868 828.742859,391.785339 774.066772,365.955444 719.390503,340.125732" />
				<polyline stroke="#000000" stroke-opacity="1" fill="none" stroke-linecap="round" stroke-width="8.00366211" points="720.710266,338.806030 764.828369,331.453003 808.946350,324.099915 853.064270,316.746948 897.182434,309.393921 941.300171,302.041077 985.418335,294.687988 1029.536255,287.334961" />
				<polyline stroke="#000000" stroke-opacity="1" fill="none" stroke-linecap="round" stroke-width="8.00378418" points="728.628662,338.806030 728.817566,347.290222 729.006042,355.774353 729.194580,364.258545 729.382996,372.742798 729.571472,381.227051 729.760193,389.711243 729.948669,398.195435" />
				<polyline stroke="#000000" stroke-opacity="1" fill="none" stroke-linecap="round" stroke-width="8.00366211" points="728.628662,396.875671 771.238586,389.899780 813.848267,382.923828 856.458008,375.947937 899.067688,368.972107 941.677368,361.996094 984.287109,355.020142 1026.896729,348.044312" />
				<polyline stroke="#000000" stroke-opacity="1" fill="none" stroke-linecap="round" stroke-width="8.00366211" points="728.628906,395.555908 781.985291,423.836914 835.341797,452.117371 888.698120,480.398193 942.054443,508.679138 995.410889,536.959717 1048.767090,565.240479 1102.123657,593.521240" />
			</g>
			<!--Layer: Block_8-->
			<g id="Block_8">
				<polyline stroke="#000000" stroke-opacity="1" fill="none" stroke-linecap="round" stroke-width="8.00378418" points="909.437256,307.131592 987.115173,326.739319 1064.792969,346.347534 1142.470947,365.955444 1220.148682,385.563538 1297.826538,405.171387 1375.504272,424.779541 1453.182373,444.387390" />
				<polyline stroke="#000000" stroke-opacity="1" fill="none" stroke-linecap="round" stroke-width="8.00366211" points="908.117554,308.451233 908.306091,316.369934 908.494690,324.288452 908.683228,332.207031 908.871826,340.125671 909.060364,348.044250 909.248718,355.962952 909.437256,363.881470" />
				<polyline stroke="#000000" stroke-opacity="1" fill="none" stroke-linecap="round" stroke-width="8.00402832" points="912.076843,363.881531 989.000488,385.186462 1065.924194,406.491211 1142.848022,427.796082 1219.771606,449.100769 1296.695312,470.405762 1373.619141,491.710632 1450.542725,513.015381" />
			</g>
			<!--Layer: Block_9-->
			<g id="Block_9">
				<polyline stroke="#000000" stroke-opacity="1" fill="none" stroke-linecap="round" stroke-width="8.00366211" points="1362.118164,465.503723 1361.364136,476.250427 1360.609985,486.997131 1359.855713,497.743835 1359.101562,508.490417 1358.347534,519.237122 1357.593262,529.983887 1356.839111,540.730530" />
				<polyline stroke="#000000" stroke-opacity="1" fill="none" stroke-linecap="round" stroke-width="8.00378418" points="1331.763550,415.352478 1335.722778,421.951416 1339.682007,428.550110 1343.641479,435.148987 1347.600708,441.747925 1351.560059,448.346802 1355.519409,454.945496 1359.478638,461.544373" />
				<polyline stroke="#000000" stroke-opacity="1" fill="none" stroke-linecap="round" stroke-width="8.00378418" points="1333.083374,420.631653 1332.706299,428.738708 1332.329102,436.845886 1331.952026,444.953003 1331.575073,453.060242 1331.197754,461.167358 1330.820679,469.274597 1330.443604,477.381592" />
				<polyline stroke="#000000" stroke-opacity="1" fill="none" stroke-linecap="round" stroke-width="8.00366211" points="1329.124146,478.701355 1332.894775,485.677368 1336.665527,492.653259 1340.436401,499.629150 1344.207153,506.605164 1347.977783,513.580994 1351.748413,520.556885 1355.519409,527.532898" />
			</g>
			<!--Layer: Block_10-->
			<g id="Block_10">
				<polyline stroke="#000000" stroke-opacity="1" fill="none" stroke-linecap="round" stroke-width="8.00378418" points="909.437256,307.131592 967.884155,330.887268 1026.331055,354.643188 1084.778076,378.398987 1143.225098,402.154846 1201.671997,425.910583 1260.118774,449.666504 1318.565796,473.422424" />
				<polyline stroke="#000000" stroke-opacity="1" fill="none" stroke-linecap="round" stroke-width="8.00366211" points="1313.286743,476.061829 1312.721191,486.242920 1312.155518,496.423950 1311.589722,506.605225 1311.024292,516.786194 1310.458740,526.967224 1309.892944,537.148254 1309.327515,547.329468" />
				<polyline stroke="#000000" stroke-opacity="1" fill="none" stroke-linecap="round" stroke-width="8.00378418" points="905.478027,365.201355 962.982239,390.842468 1020.486572,416.483826 1077.990601,442.124878 1135.494873,467.766235 1192.999268,493.407410 1250.503418,519.048645 1308.007690,544.689819" />
			</g>
			<!--Layer: Block_11-->
			<g id="Block_11">
				<polyline stroke="#000000" stroke-opacity="1" fill="none" stroke-linecap="round" stroke-width="8.00366211" points="1251.257568,502.457275 1247.741089,501.407227 1235.515015,501.299927 1211.230957,506.977478 1204.410156,510.894409 1201.722290,514.220215 1200.482422,518.664734 1201.395020,522.897461 1205.005615,526.961853 1212.134521,530.425964 1243.617554,537.199036 1253.245483,537.980042 1280.500000,537.670105 1292.664673,533.997864 1299.566772,531.001709 1303.149170,528.645203 1305.440552,525.005920 1305.994995,521.743408 1305.080078,516.666626 1303.661255,514.087463 1300.281860,510.796753 1297.663696,509.136963 1286.998169,505.329346 1278.353516,503.224426 1262.151855,501.495544 1248.777588,501.310730 1244.436035,502.986755 1236.740112,510.375854" />
			</g>
			<!--Layer: Block_12-->
			<g id="Block_12">
				<polyline stroke="#000000" stroke-opacity="1" fill="none" stroke-linecap="round" stroke-width="8.00366211" points="1256.536621,519.614319 1256.725098,510.187256 1256.913818,500.760437 1257.102295,491.333435 1257.290771,481.906616 1257.479370,472.479553 1257.667969,463.052673 1257.856567,453.625732" />
				<polyline stroke="#000000" stroke-opacity="1" fill="none" stroke-linecap="round" stroke-width="8.00354004" points="1289.530884,437.788574 1285.072144,434.632568 1268.710571,431.577942 1245.399292,431.244629 1236.646606,432.385193 1219.109253,436.623108 1215.025024,438.477966 1209.094849,444.425354 1208.354004,452.632141 1210.597656,456.082642 1216.939941,459.549255 1241.380737,464.790710 1259.127930,466.839844 1268.017944,469.827576 1273.291626,470.441223 1282.793579,469.544373 1293.952515,466.667542 1303.428467,462.276794 1308.571411,457.520874 1309.750000,454.746094 1310.227905,449.580200 1309.498047,446.654663 1306.677490,443.704468 1300.357300,440.183289 1288.585693,436.125854 1281.731445,434.500183 1276.333252,435.149048" />
			</g>
		</g>
	</g>
</svg>
