<?xml version="1.0" encoding="UTF-8"?>
<!-- Generator: Blender, SVG Export for Grease Pencil - v1.0 -->
<!DOCTYPE svg PUBLIC "-//W3C//DTD SVG 1.1//EN" "http://www.w3.org/Graphics/SVG/1.1/DTD/svg11.dtd">
<svg version="1.0" x="0px" y="0px" xmlns="http://www.w3.org/2000/svg" width="1920px" height="1080px" viewBox="0 0 1920 1080">
	<g id="blender_frame_1">
		<g id="blender_object_GPencil">
			<!--Layer: Block_0-->
			<g id="Block_0">
				<polyline stroke="#000000" stroke-opacity="1" fill="none" stroke-linecap="round" stroke-width="8.00354004" points="578.426941,544.315674 632.228882,579.225342 686.030823,614.135010 739.833069,649.044617 793.634949,683.954285 847.436890,718.863892 901.238647,753.773560 955.040771,788.683228" />
				<polyline stroke="#000000" stroke-opacity="1" fill="none" stroke-linecap="round" stroke-width="8.00354004" points="929.166382,785.808289 1019.521057,761.576904 1109.875366,737.345459 1200.229736,713.114014 1290.584106,688.882690 1380.938599,664.651245 1471.292969,640.419800 1561.647461,616.188477" />
				<polyline stroke="#000000" stroke-opacity="1" fill="none" stroke-linecap="round" stroke-width="8.00354004" points="569.802368,555.815369 651.326538,538.976562 732.851013,522.137756 814.375427,505.299011 895.899719,488.460266 977.424072,471.621521 1058.948242,454.782654 1140.472778,437.943970" />
				<polyline stroke="#000000" stroke-opacity="1" fill="none" stroke-linecap="round" stroke-width="8.00378418" points="1108.848633,433.631592 1174.150269,461.353943 1239.451782,489.076294 1304.753296,516.798767 1370.054932,544.521118 1435.356567,572.243408 1500.658203,599.965759 1565.959839,627.688110" />
				<polyline stroke="#000000" stroke-opacity="1" fill="none" stroke-linecap="round" stroke-width="8.00354004" points="585.614380,555.815369 583.355408,508.995361 581.096558,462.175354 578.837891,415.355347 576.578979,368.535400 574.319946,321.715393 572.061218,274.895447 569.802368,228.075378" />
				<polyline stroke="#000000" stroke-opacity="1" fill="none" stroke-linecap="round" stroke-width="8.00354004" points="946.415955,798.745361 947.031982,741.657837 947.648132,684.570190 948.264099,627.482727 948.880188,570.395264 949.496399,513.307739 950.112366,456.220154 950.728333,399.132629" />
				<polyline stroke="#000000" stroke-opacity="1" fill="none" stroke-linecap="round" stroke-width="8.00354004" points="556.865295,251.074951 614.363647,276.743591 671.861755,302.412537 729.360107,328.081238 786.858276,353.750122 844.356506,379.418945 901.854736,405.087891 959.353149,430.756714" />
				<polyline stroke="#000000" stroke-opacity="1" fill="none" stroke-linecap="round" stroke-width="8.00341797" points="939.228760,430.756714 1032.252686,413.507202 1125.276733,396.257751 1218.300659,379.008362 1311.324707,361.758728 1404.348511,344.509460 1497.372437,327.260071 1590.396484,310.010376" />
				<polyline stroke="#000000" stroke-opacity="1" fill="none" stroke-linecap="round" stroke-width="8.00378418" points="1550.147827,627.688110 1553.228027,580.046753 1556.308350,532.405334 1559.388672,484.763916 1562.468750,437.122498 1565.549194,389.481201 1568.629517,341.839783 1571.709595,294.198303" />
				<polyline stroke="#000000" stroke-opacity="1" fill="none" stroke-linecap="round" stroke-width="8.00366211" points="1123.223145,453.756104 1124.044556,411.659058 1124.865967,369.562134 1125.687378,327.465027 1126.508789,285.368164 1127.330200,243.271423 1128.151733,201.174561 1128.972900,159.077515" />
				<polyline stroke="#000000" stroke-opacity="1" fill="none" stroke-linecap="round" stroke-width="8.00366211" points="561.177612,258.262085 643.934204,247.173035 726.690430,236.084045 809.447021,224.995300 892.203491,213.906189 974.959961,202.817322 1057.716309,191.728210 1140.472778,180.639465" />
				<polyline stroke="#000000" stroke-opacity="1" fill="none" stroke-linecap="round" stroke-width="8.00390625" points="1114.598389,174.889648 1181.337402,195.013794 1248.076416,215.138184 1314.815552,235.262756 1381.554688,255.387207 1448.293701,275.511475 1515.032715,295.635803 1581.771851,315.760132" />
			</g>
			<!--Layer: Block_1-->
			<g id="Block_1">
				<polyline stroke="#000000" stroke-opacity="1" fill="none" stroke-linecap="round" stroke-width="8.00366211" points="722.172791,238.137817 719.092468,249.842590 716.012207,261.547668 712.932007,273.252686 709.851746,284.957581 706.771301,296.662598 703.691162,308.367615 700.610962,320.072693" />
				<polyline stroke="#000000" stroke-opacity="1" fill="none" stroke-linecap="round" stroke-width="8.00378418" points="703.485840,314.322876 704.718018,360.937500 705.950195,407.552002 707.182068,454.166809 708.414246,500.781372 709.646301,547.395996 710.878357,594.010620 712.110474,640.625183" />
				<polyline stroke="#000000" stroke-opacity="1" fill="none" stroke-linecap="round" stroke-width="8.00366211" points="709.235596,637.750366 713.342651,621.322266 717.449707,604.894165 721.556641,588.466125 725.663757,572.038025 729.770752,555.610046 733.877808,539.181946 737.984680,522.753845" />
				<polyline stroke="#000000" stroke-opacity="1" fill="none" stroke-linecap="round" stroke-width="8.00390625" points="720.735291,239.575134 722.378052,281.055908 724.020874,322.536682 725.663757,364.017700 727.306458,405.498535 728.949402,446.979370 730.592102,488.460266 732.234924,529.941162" />
			</g>
			<!--Layer: Block_2-->
			<g id="Block_2">
				<polyline stroke="#000000" stroke-opacity="1" fill="none" stroke-linecap="round" stroke-width="8.00354004" points="1015.413879,196.451538 1015.413879,234.441223 1015.413879,272.431213 1015.413879,310.421082 1015.413879,348.411072 1015.413879,386.400940 1015.413879,424.390747 1015.413879,462.380737" />
				<polyline stroke="#000000" stroke-opacity="1" fill="none" stroke-linecap="round" stroke-width="8.00366211" points="1019.726257,463.818176 1049.912964,467.719788 1080.099609,471.621460 1110.286011,475.523071 1140.472778,479.424805 1170.659302,483.326477 1200.845825,487.228149 1231.032471,491.129700" />
				<polyline stroke="#000000" stroke-opacity="1" fill="none" stroke-linecap="round" stroke-width="8.00341797" points="1226.720093,486.817383 1228.362915,448.416809 1230.005737,410.016174 1231.648438,371.615662 1233.291260,333.215027 1234.934204,294.814514 1236.576782,256.413818 1238.219727,218.013123" />
				<polyline stroke="#000000" stroke-opacity="1" fill="none" stroke-linecap="round" stroke-width="8.00390625" points="1012.538940,200.763855 1044.984497,202.817261 1077.430054,204.870728 1109.875488,206.924316 1142.320801,208.977844 1174.766235,211.031372 1207.211670,213.084839 1239.657104,215.138428" />
			</g>
			<!--Layer: Block_3-->
			<g id="Block_3">
				<polyline stroke="#000000" stroke-opacity="1" fill="none" stroke-linecap="round" stroke-width="8.00366211" points="835.731812,368.946106 875.364502,373.053101 914.997314,377.160217 954.630005,381.267090 994.262817,385.374207 1033.895508,389.481079 1073.528320,393.588135 1113.160889,397.695129" />
				<polyline stroke="#000000" stroke-opacity="1" fill="none" stroke-linecap="round" stroke-width="8.00378418" points="832.856995,371.820923 833.883789,420.489197 834.910339,469.157104 835.937134,517.825439 836.963928,566.493591 837.990723,615.161743 839.017456,663.829895 840.044189,712.498047" />
				<polyline stroke="#000000" stroke-opacity="1" fill="none" stroke-linecap="round" stroke-width="8.00341797" points="840.044189,712.498047 877.418030,716.194275 914.791870,719.890625 952.165894,723.587036 989.539734,727.283264 1026.913452,730.979614 1064.287476,734.675903 1101.661377,738.372192" />
				<polyline stroke="#000000" stroke-opacity="1" fill="none" stroke-linecap="round" stroke-width="8.00366211" points="1107.411133,402.007568 1106.589600,449.648926 1105.768433,497.290283 1104.947021,544.931763 1104.125610,592.573181 1103.304199,640.214478 1102.482666,687.855957 1101.661255,735.497314" />
			</g>
			<!--Layer: Block_4-->
			<g id="Block_4">
				<polyline stroke="#000000" stroke-opacity="1" fill="none" stroke-linecap="round" stroke-width="8.00390625" points="1387.715088,351.696716 1385.867065,395.436218 1384.018921,439.176086 1382.170654,482.915771 1380.322388,526.655457 1378.474243,570.395325 1376.626221,614.135010 1374.778076,657.874634" />
				<polyline stroke="#000000" stroke-opacity="1" fill="none" stroke-linecap="round" stroke-width="8.00366211" points="1377.652954,663.624512 1382.170654,649.865967 1386.688477,636.107422 1391.206055,622.348938 1395.723999,608.590454 1400.241577,594.832031 1404.759277,581.073486 1409.277100,567.314941" />
				<polyline stroke="#000000" stroke-opacity="1" fill="none" stroke-linecap="round" stroke-width="8.00390625" points="1422.214111,269.761719 1420.160522,312.063904 1418.107178,354.366089 1416.053589,396.668457 1414.000000,438.970642 1411.946655,481.273010 1409.893066,523.575195 1407.839478,565.877563" />
				<polyline stroke="#000000" stroke-opacity="1" fill="none" stroke-linecap="round" stroke-width="8.00378418" points="1381.965332,354.571533 1387.920288,342.250549 1393.875732,329.929321 1399.830933,317.608337 1405.786011,305.287415 1411.741089,292.966309 1417.696411,280.645264 1423.651611,268.324219" />
			</g>
			<!--Layer: Block_5-->
			<g id="Block_5">
				<polyline stroke="#000000" stroke-opacity="1" fill="none" stroke-linecap="round" stroke-width="8.00366211" points="792.608093,356.009033 876.596741,342.250610 960.585266,328.491882 1044.573730,314.733582 1128.562378,300.974792 1212.550903,287.216370 1296.539429,273.457947 1380.527954,259.699280" />
				<polyline stroke="#000000" stroke-opacity="1" fill="none" stroke-linecap="round" stroke-width="8.00366211" points="792.608093,356.009033 793.224243,402.828979 793.840271,449.648865 794.456421,496.468994 795.072327,543.288879 795.688232,590.108948 796.304382,636.928955 796.920471,683.748901" />
				<polyline stroke="#000000" stroke-opacity="1" fill="none" stroke-linecap="round" stroke-width="8.00341797" points="794.045532,683.748901 876.391296,664.445801 958.737061,645.142944 1041.082764,625.839966 1123.428467,606.536865 1205.774170,587.234009 1288.120117,567.931091 1370.465698,548.628052" />
				<polyline stroke="#000000" stroke-opacity="1" fill="none" stroke-linecap="round" stroke-width="8.00366211" points="1380.527954,259.699280 1379.090332,300.564453 1377.652954,341.429016 1376.215454,382.293884 1374.778076,423.158752 1373.340698,464.023499 1371.903076,504.888245 1370.465698,545.753174" />
				<polyline stroke="#000000" stroke-opacity="1" fill="none" stroke-linecap="round" stroke-width="8.00354004" points="857.293640,219.450806 914.791870,241.012451 972.290283,262.574402 1029.788452,284.136047 1087.286621,305.698120 1144.785156,327.259949 1202.283325,348.821655 1259.781494,370.383484" />
				<polyline stroke="#000000" stroke-opacity="1" fill="none" stroke-linecap="round" stroke-width="8.00390625" points="1256.906616,367.508667 1255.263916,414.944580 1253.620972,462.380737 1251.978149,509.816711 1250.335205,557.252808 1248.692505,604.688843 1247.049805,652.124756 1245.406982,699.560913" />
				<polyline stroke="#000000" stroke-opacity="1" fill="none" stroke-linecap="round" stroke-width="8.00366211" points="860.168579,223.763062 860.373901,262.779663 860.579285,301.796326 860.784607,340.813232 860.989990,379.829773 861.195374,418.846436 861.400696,457.862976 861.605957,496.879700" />
				<polyline stroke="#000000" stroke-opacity="1" fill="none" stroke-linecap="round" stroke-width="8.00354004" points="857.293640,494.004700 912.533081,523.369812 967.772461,552.735046 1023.011963,582.100220 1078.251343,611.465332 1133.490723,640.830566 1188.730225,670.195740 1243.969482,699.560913" />
			</g>
			<!--Layer: Block_6-->
			<g id="Block_6">
				<polyline stroke="#000000" stroke-opacity="1" fill="none" stroke-linecap="round" stroke-width="8.00354004" points="1085.849243,276.948914 1077.104248,273.263977 1062.980957,272.820190 1050.217163,275.067261 1024.092407,276.968201 993.381409,282.912537 977.110168,290.359192 970.376221,294.406311 964.831604,303.954834 963.181580,316.362366 964.438843,319.000793 966.604248,320.869080 976.140198,326.260437 996.074280,332.190491 1005.733765,333.311829 1030.933594,338.298584 1059.930298,341.644775 1073.679443,344.055786 1097.315308,344.495361 1151.815430,341.511963 1185.464111,335.670898 1199.753662,330.367859 1210.216064,325.198853 1214.023560,320.354248 1216.927368,314.628601 1217.712158,307.096863 1216.501343,302.164429 1213.497437,296.650513 1209.584961,294.111511 1197.468750,291.140869 1179.769531,285.122375 1131.068726,274.539307 1075.449829,273.246582 1067.718628,274.313965 1031.827393,284.536133 1019.726257,287.011108" />
			</g>
			<!--Layer: Block_7-->
			<g id="Block_7">
				<polyline stroke="#000000" stroke-opacity="1" fill="none" stroke-linecap="round" stroke-width="8.00366211" points="1088.775146,313.470581 1088.573975,356.600830 1088.372925,399.731018 1088.171875,442.861389 1087.970825,485.991638 1087.769775,529.121948 1087.568726,572.252136 1087.367554,615.382446" />
				<polyline stroke="#000000" stroke-opacity="1" fill="none" stroke-linecap="round" stroke-width="8.00366211" points="1066.254883,571.749451 1066.876587,571.429810 1040.304199,571.820923 1023.898865,574.061768 999.162109,580.997437 978.543091,588.951965 969.320068,595.138062 961.647156,606.214233 958.891052,615.523315 962.478699,631.171448 967.623352,635.528198 979.968140,640.623657 989.370117,645.796570 1018.608887,651.378357 1028.131836,654.054077 1033.687866,656.542603 1050.376099,658.098755 1063.356567,657.683411 1078.034302,660.195740 1106.910034,661.764160 1166.806274,657.543945 1174.828491,655.425476 1197.945312,647.465393 1206.738403,643.627319 1215.979248,636.514404 1221.765869,629.598511 1222.971436,623.278748 1222.959595,615.068237 1220.827393,609.340820 1215.358398,600.173523 1211.771606,596.948547 1178.692383,580.752441 1157.728516,576.447510 1147.009644,575.087646 1138.119873,572.756775 1097.877686,568.298828 1081.121948,568.302124 1061.168945,570.517273 1054.063965,572.381165 1045.142212,576.675781" />
			</g>
		</g>
	</g>
</svg>
