<?xml version="1.0" encoding="UTF-8"?>
<!-- Generator: Blender, SVG Export for Grease Pencil - v1.0 -->
<!DOCTYPE svg PUBLIC "-//W3C//DTD SVG 1.1//EN" "http://www.w3.org/Graphics/SVG/1.1/DTD/svg11.dtd">
<svg version="1.0" x="0px" y="0px" xmlns="http://www.w3.org/2000/svg" width="1920px" height="1080px" viewBox="0 0 1920 1080">
	<g id="blender_frame_1">
		<g id="blender_object_GPencil">
			<!--Layer: Block_0-->
			<g id="Block_0">
				<polyline stroke="#000000" stroke-opacity="1" fill="none" stroke-linecap="round" stroke-width="8.00354004" points="841.481689,729.747498 929.577148,707.569519 1017.672852,685.391724 1105.768433,663.213806 1193.863770,641.035828 1281.959351,618.858032 1370.054932,596.680115 1458.150513,574.502197" />
				<polyline stroke="#000000" stroke-opacity="1" fill="none" stroke-linecap="round" stroke-width="8.00366211" points="633.050415,580.252075 666.522583,602.429932 699.994934,624.607849 733.466980,646.785767 766.939270,668.963623 800.411438,691.141602 833.883606,713.319458 867.355835,735.497314" />
				<polyline stroke="#000000" stroke-opacity="1" fill="none" stroke-linecap="round" stroke-width="8.00366211" points="630.175598,593.189209 712.521179,575.734375 794.866821,558.279602 877.212830,540.824707 959.558411,523.369934 1041.904175,505.915161 1124.250000,488.460205 1206.595459,471.005493" />
				<polyline stroke="#000000" stroke-opacity="1" fill="none" stroke-linecap="round" stroke-width="8.00378418" points="1179.283936,463.818298 1222.407593,481.888916 1265.531494,499.959900 1308.655151,518.030701 1351.778809,536.101624 1394.902466,554.172546 1438.026123,572.243347 1481.150024,590.314270" />
				<polyline stroke="#000000" stroke-opacity="1" fill="none" stroke-linecap="round" stroke-width="8.00366211" points="858.730957,741.247192 858.320496,708.801697 857.909668,676.356201 857.498901,643.910889 857.088440,611.465515 856.677551,579.019958 856.266907,546.574524 855.856201,514.129089" />
				<polyline stroke="#000000" stroke-opacity="1" fill="none" stroke-linecap="round" stroke-width="8.00354004" points="648.862549,604.688843 647.835632,576.555786 646.809204,548.422607 645.782104,520.289612 644.755493,492.156616 643.728760,464.023621 642.701843,435.890503 641.675049,407.757446" />
				<polyline stroke="#000000" stroke-opacity="1" fill="none" stroke-linecap="round" stroke-width="8.00354004" points="630.175537,406.319946 663.236877,424.390808 696.298462,442.461609 729.360107,460.532532 762.421631,478.603394 795.482910,496.674377 828.544495,514.745239 861.605957,532.816040" />
				<polyline stroke="#000000" stroke-opacity="1" fill="none" stroke-linecap="round" stroke-width="8.00366211" points="841.481689,531.378601 932.862732,512.691772 1024.244019,494.004700 1115.625244,475.317871 1207.006470,456.630920 1298.387451,437.943909 1389.768677,419.256897 1481.149902,400.570068" />
				<polyline stroke="#000000" stroke-opacity="1" fill="none" stroke-linecap="round" stroke-width="8.00378418" points="1448.088257,588.876831 1449.936523,560.332947 1451.784912,531.789246 1453.632935,503.245544 1455.480835,474.701660 1457.329102,446.158020 1459.177368,417.614136 1461.025391,389.070435" />
				<polyline stroke="#000000" stroke-opacity="1" fill="none" stroke-linecap="round" stroke-width="8.00366211" points="1196.533569,479.630066 1197.149536,455.604065 1197.765625,431.578064 1198.381592,407.552063 1198.997559,383.525940 1199.613770,359.499939 1200.229736,335.473938 1200.845825,311.447998" />
				<polyline stroke="#000000" stroke-opacity="1" fill="none" stroke-linecap="round" stroke-width="8.00354004" points="633.050415,414.944641 713.547913,400.775452 794.045532,386.606201 874.543274,372.437073 955.040710,358.267822 1035.538452,344.098572 1116.035889,329.929382 1196.533447,315.760193" />
				<polyline stroke="#000000" stroke-opacity="1" fill="none" stroke-linecap="round" stroke-width="8.00366211" points="1187.908691,317.197632 1227.746826,329.929321 1267.584961,342.661255 1307.422974,355.392944 1347.261108,368.124634 1387.099121,380.856506 1426.937256,393.588257 1466.775269,406.319824" />
			</g>
			<!--Layer: Block_1-->
			<g id="Block_1">
				<polyline stroke="#000000" stroke-opacity="1" fill="none" stroke-linecap="round" stroke-width="8.00341797" points="750.921814,471.005493 835.937134,455.193359 920.952576,439.381470 1005.967834,423.569275 1090.983154,407.757446 1175.998413,391.945435 1261.013672,376.133362 1346.028931,360.321289" />
				<polyline stroke="#000000" stroke-opacity="1" fill="none" stroke-linecap="round" stroke-width="8.00341797" points="753.796814,471.005493 754.002197,498.522400 754.207520,526.039429 754.412781,553.556458 754.618286,581.073364 754.823547,608.590576 755.028931,636.107483 755.234070,663.624512" />
				<polyline stroke="#000000" stroke-opacity="1" fill="none" stroke-linecap="round" stroke-width="8.00366211" points="1327.341797,363.196350 1326.315308,385.990173 1325.288574,408.784119 1324.261841,431.578064 1323.234985,454.371887 1322.208252,477.165955 1321.181519,499.959961 1320.154785,522.753845" />
				<polyline stroke="#000000" stroke-opacity="1" fill="none" stroke-linecap="round" stroke-width="8.00341797" points="750.921814,659.312134 832.856934,639.803833 914.791748,620.295532 996.726929,600.787109 1078.662109,581.278809 1160.597046,561.770508 1242.531982,542.262146 1324.467041,522.753906" />
				<polyline stroke="#000000" stroke-opacity="1" fill="none" stroke-linecap="round" stroke-width="8.00366211" points="743.734558,393.382935 776.590637,409.605530 809.447021,425.828064 842.303040,442.050964 875.159302,458.273743 908.015381,474.496399 940.871521,490.719116 973.727661,506.941895" />
				<polyline stroke="#000000" stroke-opacity="1" fill="none" stroke-linecap="round" stroke-width="8.00366211" points="972.290161,508.379333 972.495605,534.458862 972.700867,560.538391 972.906433,586.617981 973.111633,612.697510 973.316895,638.777100 973.522461,664.856628 973.727661,690.936218" />
				<polyline stroke="#000000" stroke-opacity="1" fill="none" stroke-linecap="round" stroke-width="8.00354004" points="762.421509,568.752441 792.197510,587.028687 821.973450,605.304871 851.749207,623.581055 881.525085,641.857422 911.301025,660.133545 941.076965,678.409790 970.852783,696.685974" />
				<polyline stroke="#000000" stroke-opacity="1" fill="none" stroke-linecap="round" stroke-width="8.00366211" points="758.109192,561.565247 757.903748,537.949768 757.698547,514.334473 757.493103,490.719116 757.287781,467.103821 757.082336,443.488281 756.877014,419.873047 756.671692,396.257751" />
				<polyline stroke="#000000" stroke-opacity="1" fill="none" stroke-linecap="round" stroke-width="8.00378418" points="1110.286133,334.447266 1147.043823,348.205750 1183.801758,361.964050 1220.559570,375.722656 1257.317383,389.481201 1294.075195,403.239563 1330.832886,416.998230 1367.590698,430.756592" />
				<polyline stroke="#000000" stroke-opacity="1" fill="none" stroke-linecap="round" stroke-width="8.00354004" points="1366.153320,422.131958 1364.715942,447.800842 1363.278442,473.469604 1361.840942,499.138550 1360.403442,524.807434 1358.965942,550.476196 1357.528564,576.144958 1356.091064,601.813904" />
				<polyline stroke="#000000" stroke-opacity="1" fill="none" stroke-linecap="round" stroke-width="8.00366211" points="1108.848633,333.009644 1108.848511,355.803772 1108.848755,378.597595 1108.848633,401.391663 1108.848633,424.185486 1108.848511,446.979309 1108.848633,469.773438 1108.848633,492.567261" />
				<polyline stroke="#000000" stroke-opacity="1" fill="none" stroke-linecap="round" stroke-width="8.00354004" points="1104.536255,494.004700 1140.472778,509.611450 1176.409180,525.218018 1212.345581,540.824707 1248.281982,556.431396 1284.218262,572.038086 1320.154785,587.644653 1356.091064,603.251343" />
			</g>
			<!--Layer: Block_2-->
			<g id="Block_2">
				<polyline stroke="#000000" stroke-opacity="1" fill="none" stroke-linecap="round" stroke-width="8.0032959" points="802.670288,439.381348 799.868896,441.556641 797.274475,446.695007 796.661133,450.099792 797.974792,454.448792 801.793884,458.975220 808.602661,462.890198 813.645142,464.310547 832.001343,467.222290 845.104309,466.781250 863.066040,468.077393 886.272583,467.671875 900.755798,463.672363 915.657532,456.815125 919.887085,452.423950 921.234863,447.588928 919.750244,439.338806 915.038696,435.547791 907.927368,431.902405 899.219543,429.832397 879.229309,428.261169 856.031982,428.032166 834.050293,429.759766 813.646606,435.286438 802.209351,442.403748 795.482971,453.756104" />
			</g>
			<!--Layer: Block_3-->
			<g id="Block_3">
				<polyline stroke="#000000" stroke-opacity="1" fill="none" stroke-linecap="round" stroke-width="8.00354004" points="860.186829,450.664246 860.297424,476.535645 860.407898,502.407227 860.518555,528.278809 860.629089,554.150391 860.739624,580.021973 860.850220,605.893555 860.960693,631.765076" />
				<polyline stroke="#000000" stroke-opacity="1" fill="none" stroke-linecap="round" stroke-width="8.00366211" points="813.750610,619.382202 809.535706,622.434326 806.434998,628.623047 806.959290,634.350830 810.219482,642.092896 816.071350,647.997925 834.658997,652.994507 862.939209,656.468811 881.421082,656.500488 899.623657,654.967896 912.216492,651.801025 922.583130,647.346863 927.000366,644.144043 930.218689,637.969666 929.899292,628.609619 927.923096,623.638855 925.188538,620.539856 916.148010,613.606445 898.960327,608.879639 888.911194,608.476929 882.021790,607.239868 849.374084,606.231079 835.957581,607.904297 816.673828,614.958313 810.284302,622.215454 808.082153,626.331787 808.333008,628.669312" />
			</g>
			<!--Layer: Block_4-->
			<g id="Block_4">
				<polyline stroke="#000000" stroke-opacity="1" fill="none" stroke-linecap="round" stroke-width="8.00354004" points="1237.093872,380.236267 1235.988281,403.675415 1234.882568,427.114563 1233.776978,450.553833 1232.671265,473.992920 1231.565796,497.432129 1230.460083,520.871277 1229.354492,544.310425" />
				<polyline stroke="#000000" stroke-opacity="1" fill="none" stroke-linecap="round" stroke-width="8.00366211" points="1236.319824,364.757629 1213.198242,364.062683 1194.276611,367.196960 1185.592041,371.282410 1180.147339,375.825562 1177.386353,380.787781 1177.381470,384.447021 1180.038818,388.539185 1183.511353,391.423523 1194.773682,395.966064 1207.538086,399.320007 1225.497925,401.100769 1264.858398,401.054016 1275.705811,400.292664 1287.484009,398.139709 1290.916016,396.849609 1294.613647,394.153320 1299.917358,385.837646 1300.014526,381.029602 1298.140869,378.384399 1294.579956,376.161682 1260.595581,365.291016 1251.218750,363.462769 1238.736328,363.291443 1224.710815,367.079346" />
			</g>
			<!--Layer: Block_5-->
			<g id="Block_5">
				<polyline stroke="#000000" stroke-opacity="1" fill="none" stroke-linecap="round" stroke-width="8.00354004" points="1216.214966,523.792358 1210.104492,523.242920 1198.527466,524.635132 1188.344727,526.590576 1180.094604,529.536316 1172.009766,534.191711 1169.364746,536.608643 1165.947998,543.331665 1165.416382,546.893555 1166.332397,549.778748 1171.563110,555.997559 1176.326050,559.607605 1182.201172,562.377991 1194.102783,563.785461 1218.776611,569.429810 1230.060913,570.287903 1255.944824,568.933350 1276.452881,565.504089 1285.371582,560.722778 1293.175903,551.541443 1293.220093,544.477478 1289.741699,540.319214 1285.224609,536.752258 1274.907227,531.330627 1258.571289,526.279724 1245.372559,523.987427 1224.622192,522.482422 1189.913818,525.141174" />
			</g>
			<!--Layer: Block_6-->
			<g id="Block_6">
				<polyline stroke="#000000" stroke-opacity="1" fill="none" stroke-linecap="round" stroke-width="8.00366211" points="835.696350,377.708435 870.277161,392.837463 904.857971,407.966553 939.438782,423.095764 974.019592,438.224976 1008.600403,453.354065 1043.181396,468.483032 1077.762207,483.612244" />
				<polyline stroke="#000000" stroke-opacity="1" fill="none" stroke-linecap="round" stroke-width="8.00354004" points="1030.999512,347.450134 1065.383789,361.400391 1099.768188,375.350586 1134.152588,389.300842 1168.536865,403.251099 1202.921265,417.201233 1237.305542,431.151550 1271.689941,445.101685" />
				<polyline stroke="#000000" stroke-opacity="1" fill="none" stroke-linecap="round" stroke-width="8.00354004" points="1068.134644,489.113770 1067.545166,443.726440 1066.955811,398.338989 1066.366333,352.951721 1065.776855,307.564270 1065.187378,262.176941 1064.597900,216.789917 1064.008545,171.402283" />
				<polyline stroke="#000000" stroke-opacity="1" fill="none" stroke-linecap="round" stroke-width="8.00366211" points="1263.437744,445.101685 1264.223755,401.875671 1265.009766,358.649597 1265.795532,315.423523 1266.581665,272.197571 1267.367310,228.971497 1268.153320,185.745483 1268.939331,142.519409" />
				<polyline stroke="#000000" stroke-opacity="1" fill="none" stroke-linecap="round" stroke-width="8.00366211" points="837.071716,379.083679 836.482178,340.573364 835.892822,302.062866 835.303284,263.552368 834.713867,225.041809 834.124390,186.531433 833.534912,148.020996 832.945435,109.510376" />
				<polyline stroke="#000000" stroke-opacity="1" fill="none" stroke-linecap="round" stroke-width="8.00354004" points="824.693298,106.759705 858.684692,116.583801 892.676147,126.407898 926.667358,136.231812 960.658936,146.056152 994.650330,155.880310 1028.641602,165.704285 1062.633057,175.528503" />
				<polyline stroke="#000000" stroke-opacity="1" fill="none" stroke-linecap="round" stroke-width="8.00366211" points="1062.633179,176.903870 1092.891357,173.170776 1123.149658,169.437500 1153.407837,165.704407 1183.666016,161.971375 1213.924316,158.238220 1244.182373,154.504761 1274.440796,150.771606" />
				<polyline stroke="#000000" stroke-opacity="1" fill="none" stroke-linecap="round" stroke-width="8.00378418" points="1030.999512,346.074829 1030.999512,309.529114 1030.999512,272.983459 1030.999512,236.437683 1030.999512,199.892090 1030.999512,163.346558 1030.999512,126.800964 1030.999512,90.255188" />
				<polyline stroke="#000000" stroke-opacity="1" fill="none" stroke-linecap="round" stroke-width="8.00378418" points="821.942505,116.387451 852.593750,113.243591 883.244812,110.100037 913.896179,106.956177 944.547424,103.812561 975.198547,100.668762 1005.849854,97.525146 1036.500977,94.381287" />
				<polyline stroke="#000000" stroke-opacity="1" fill="none" stroke-linecap="round" stroke-width="8.00341797" points="1022.747253,90.255188 1058.899902,99.097046 1095.052612,107.938599 1131.205322,116.780457 1167.358154,125.621765 1203.510620,134.463501 1239.663330,143.305298 1275.816040,152.146851" />
			</g>
			<!--Layer: Block_7-->
			<g id="Block_7">
				<polyline stroke="#000000" stroke-opacity="1" fill="none" stroke-linecap="round" stroke-width="8.00378418" points="1205.671997,57.246521 1204.213867,57.673828 1203.464478,55.931152 1200.072266,54.158203 1183.717651,48.283203 1174.120850,47.848022 1167.056030,48.889526 1159.485596,51.604858 1136.008423,63.203979 1120.879272,72.535645 1114.142212,78.079712 1108.748291,84.356689 1096.690308,104.912842 1093.981445,111.324524 1092.783447,116.736755 1081.579956,144.626770 1078.719238,154.421143 1075.162720,183.881958 1076.534180,211.116943 1083.954590,229.936279 1089.102051,238.305054 1094.849854,250.283691 1103.866089,260.102661 1115.943848,266.598816 1131.818115,272.134583 1142.679443,274.975464 1161.892944,277.012695 1174.460205,275.668701 1192.810669,267.089050 1206.427246,257.755981 1212.205566,252.583252 1229.864746,235.020081 1243.122437,217.011108 1254.109253,193.742493 1256.572510,175.573303 1258.749756,167.435181 1260.056519,136.609741 1257.374634,129.315247 1248.602417,111.312683 1243.683228,95.779297 1238.092041,84.032654 1222.224365,67.560913 1211.514404,59.680969 1192.332520,52.761719 1185.260498,51.068481 1180.915405,51.744751" />
			</g>
			<!--Layer: Block_8-->
			<g id="Block_8">
				<polyline stroke="#000000" stroke-opacity="1" fill="none" stroke-linecap="round" stroke-width="8.00378418" points="944.878418,103.614624 976.806885,112.483582 1008.735107,121.352539 1040.663330,130.221619 1072.591553,139.090393 1104.519775,147.959473 1136.448120,156.828430 1168.376465,165.697327" />
				<polyline stroke="#000000" stroke-opacity="1" fill="none" stroke-linecap="round" stroke-width="8.00341797" points="908.583923,8.102783 906.380737,7.684692 902.166443,9.565674 886.936951,20.594116 867.956787,39.585693 859.140564,52.927734 852.665833,68.196838 845.853394,104.376709 844.886597,114.833862 845.620056,127.379883 848.568848,144.056885 856.556458,167.041992 862.157898,176.821411 874.148682,190.902405 883.422241,196.087402 893.753235,200.084961 900.957642,204.606934 915.885254,207.557251 922.809692,207.606079 944.854431,203.901123 959.527283,199.911682 968.317688,194.926270 978.838806,186.031982 993.113464,168.650330 998.577209,160.390564 1003.624329,155.227905 1007.473633,149.765198 1011.521667,141.849670 1017.191528,112.435425 1018.413757,86.448425 1015.684570,69.126038 1010.691711,52.629028 1001.359741,32.318970 997.085022,25.726074 993.594482,21.977905 984.366333,15.257935 973.859741,9.711792 954.697571,3.082153 938.307617,2.473999 910.414124,7.044189 900.240845,11.334961 891.391846,16.698853" />
			</g>
		</g>
	</g>
</svg>
